<svg xmlns="http://www.w3.org/2000/svg" viewBox="0 0 800 800" id="Dentisttreatingapatient"><defs><clipPath id="a"><path fill="#f66c80" d="M392.23 269.59a21.58 21.58 0 0 0-30.2-4.3l-3.07 2.3-.41.32-.36.29-.7.57-1.37 1.12-2.69 2.24c-1.78 1.49-3.54 3-5.3 4.51-3.5 3-7 6.11-10.41 9.27s-6.83 6.4-10.2 9.79-6.7 6.89-10 10.74c-1.65 1.93-3.29 3.95-4.92 6.16a64.8 64.8 0 0 0-4.89 7.58 39 39 0 0 0-2.37 5.2 28.51 28.51 0 0 0-1 3.45 24 24 0 0 0-.62 4.48v1.32c0 .44 0 .92.07 1.42a5.51 5.51 0 0 0 .32 1.73l.33 1.13.35 1.08c.24.73.51 1.4.76 2.1s.55 1.34.83 2a77.74 77.74 0 0 0 7.92 13.66c1.45 2 3 4 4.5 5.89.77.95 1.55 1.88 2.35 2.8l1.22 1.39 1.32 1.45a7.44 7.44 0 0 0 13-4.62l.2-4a2.18 2.18 0 0 0-.09-.29l-.11-.35-.24-.71-.48-1.47c-.31-1-.6-2-.88-3-.56-2-1-4-1.41-6a58.44 58.44 0 0 1-.86-5.82 38.24 38.24 0 0 1-.14-5.4c0-.42.61-.74.66-.73s.34-.3.68-.67c.69-.78 1.77-1.91 3-3s2.61-2.36 4.06-3.57c2.92-2.41 6.14-4.83 9.48-7.18s6.81-4.66 10.34-6.92 7.13-4.47 10.77-6.62q2.73-1.6 5.48-3.17l2.75-1.54 1.36-.76.67-.36.32-.17a2.38 2.38 0 0 1 .28-.14 22.21 22.21 0 0 0 5.52-3 21.57 21.57 0 0 0 4.18-30.2Z" class="colorf68e6c svgShape"></path></clipPath><clipPath id="b"><path fill="#5debcb" d="M375.74 260c-10.15-.28-22.14 6.34-48.5 34-1.83 8.46 3.24 17.06 9.45 23.12s14.8 8.6 14.8 8.6l16.92-11.7 7.33-26.07Z" data-name="SVGID" class="color7ea3d6 svgShape"></path></clipPath><clipPath id="c"><path fill="#5debcb" d="M448.24 452.56a32.39 32.39 0 0 0-30.13 12.22 32.34 32.34 0 0 0-62.19-2.78l-1 3.14-30.21 91.51-.78 2.33a15.94 15.94 0 0 0-.6 7.3c1 6.5 1.83 13 2.72 19.53l.66 4.88.62 4.89.61 4.89.57 4.89c.4 3.26.73 6.52 1.08 9.78l1.01 9.86 1.94 19.59c1.27 13.06 2.71 26.1 4.6 39.12l.74 4.87.37 2.44.4 2.44.8 4.87c.28 1.63.58 3.25.86 4.87l.88 4.87.94 4.86.47 2.44.23 1.21a3.06 3.06 0 0 0 .48 1.2 7 7 0 0 0 2.93 2.25 19.58 19.58 0 0 0 2.68 1c.26.09.56.17.84.25l.94.24c.62.16 1.33.31 2.16.46h.12a19 19 0 0 0 9.25-.7c.79-.27 1.47-.52 2-.77l.89-.37.79-.37a20.85 20.85 0 0 0 2.49-1.41 7.17 7.17 0 0 0 2.59-2.66 2.93 2.93 0 0 0 .32-1.25l.09-1.24.17-2.48.34-5 .28-4.95c.09-1.65.2-3.3.28-5l.22-4.95.11-2.47.08-2.47.16-5c.17-6.59.28-13.17.26-19.74 0-3.29 0-6.58-.06-9.86l-.17-9.85-.09-4.93-.11-4.92-.23-9.85-.2-9.85c-.07-3.28-.15-6.56-.18-9.85l-.12-9.86-.06-4.92c0-1.65 0-3.29-.09-4.93-.15-4.54-.39-9.08-.89-13.6l37.83-70-10.26 73-.17 1.17a22.86 22.86 0 0 0 .21 7.41l.43 2.18.45 2.18.9 4.35 1.93 8.67c.63 2.89 1.34 5.77 2 8.66l2.1 8.63c2.82 11.51 5.84 23 9 34.42 1.55 5.72 3.18 11.43 4.79 17.14.8 2.86 1.65 5.7 2.48 8.55s1.65 5.71 2.5 8.55l2.56 8.54 1.28 4.26 1.31 4.26 2.63 8.52.66 2.13.33 1.07a3.7 3.7 0 0 0 .55 1 6.29 6.29 0 0 0 2.28 1.78 13.05 13.05 0 0 0 1.87.73l.56.16.64.14c.21 0 .41.1.66.14s.48.09.76.12a24.53 24.53 0 0 0 15.62-3.27l.12-.06.65-.43a6.79 6.79 0 0 0 .56-.41l.52-.4.46-.38a14.82 14.82 0 0 0 1.43-1.45 6.44 6.44 0 0 0 1.4-2.58 3.9 3.9 0 0 0 .11-1.16l-.12-1.11-.24-2.22-.95-8.89-.48-4.44-.51-4.44-1-8.87c-.34-3-.72-5.9-1.08-8.86s-.72-5.9-1.11-8.85c-.78-5.89-1.54-11.79-2.38-17.67-1.65-11.76-3.41-23.51-5.37-35.2l-1.5-8.77-.78-4.38c-.26-1.46-.52-2.91-.81-4.37l-1.66-8.73-.44-2.18L474.1 496a34.78 34.78 0 0 0 1.73-6.82 32.43 32.43 0 0 0-27.59-36.62Z" data-name="SVGID" class="color7ea3d6 svgShape"></path></clipPath><clipPath id="d"><path fill="#f66c80" d="M455.3 299.11a22.81 22.81 0 0 0-25.09 20.3c-.7 6.61-1.47 13.23-2.31 19.81s-1.8 13.13-2.85 19.59-2.23 12.85-3.6 18.89c-.68 3-1.43 5.93-2.2 8.47-.19.62-.38 1.23-.57 1.77-.05.17-.1.32-.15.47-.83 0-1.7.08-2.6.08-1.42 0-2.9 0-4.41-.12-3-.17-6.18-.47-9.37-.86s-6.42-.86-9.66-1.39c-6.48-1.06-13-2.33-19.55-3.73q-4.9-1.06-9.79-2.23l-4.88-1.16-4.82-1.21h-.19a8.48 8.48 0 0 0-5.54 16l2.41 1.08 2.38 1.05 4.76 2.07q4.77 2.06 9.59 4c6.42 2.63 12.91 5.16 19.56 7.53q5 1.77 10.12 3.4c3.44 1.08 6.95 2.1 10.62 3 1.83.45 3.71.87 5.67 1.24s4 .69 6.22.91c1.11.11 2.26.19 3.5.22a37.57 37.57 0 0 0 4-.1 28.39 28.39 0 0 0 5.09-.87 23.46 23.46 0 0 0 3.24-1.13 22 22 0 0 0 3.9-2.22c.35-.26.68-.5 1.05-.81l.53-.46.25-.22.18-.16.68-.65.33-.33.27-.3c.36-.38.75-.81 1-1.15s.62-.74.86-1.05a43.94 43.94 0 0 0 2.52-3.6c.68-1.09 1.28-2.12 1.82-3.1s1.05-1.93 1.53-2.87c1.87-3.71 3.38-7.18 4.81-10.63 2.83-6.86 5.22-13.56 7.55-20.25s4.46-13.35 6.53-20 4.1-13.33 6.05-20l.06-.2a22.85 22.85 0 0 0-19.56-28.94Z" data-name="SVGID" class="colorf68e6c svgShape"></path></clipPath><clipPath id="e"><path fill="none" d="M437.07 298.2c6.35-5.08 16.5-9 25.38-5.47s16.07 12.87 17.34 20.9-8.46 47.68-9.94 49.75S425 357.2 423.12 354s6.76-44.19 8-48.21 5.95-7.59 5.95-7.59Z" data-name="SVGID"></path></clipPath><clipPath id="f"><path fill="#f66c80" d="M319.9 451.28 307.61 440l-6.15-5.63-6-5.44-.39-.35A12.73 12.73 0 0 1 310 408.07l7.53 4.3 7.3 4.22 14.54 8.46a16.42 16.42 0 0 1-16.52 28.38 17.09 17.09 0 0 1-2.8-2.05Z" data-name="SVGID" class="colorf68e6c svgShape"></path></clipPath><clipPath id="g"><path fill="#c80b27" d="m456.27 493.21.66-.21.57-.17 1.1-.33 2.16-.63 4.25-1.2q4.22-1.17 8.43-2.26c5.62-1.46 11.26-2.82 16.91-4.13 11.32-2.61 22.75-4.92 34.48-6.73 5.87-.89 11.8-1.67 17.87-2.25s12.27-1 18.72-1c3.23 0 6.53.07 9.93.29a99.68 99.68 0 0 1 10.65 1.28l2.75.51 1.35.25 1.28.29c.87.18 1.69.38 2.51.59s1.61.41 2.4.62c3.15.87 6.12 1.81 9 2.79s5.68 2 8.44 3.06 5.46 2.12 8.13 3.23 5.31 2.22 7.93 3.36 5.22 2.29 7.8 3.46c10.32 4.67 20.4 9.56 30.36 14.6 2.48 1.26 5 2.52 7.44 3.81l7.4 3.88 7.36 3.92 7.31 4c4.86 2.68 9.71 5.37 14.52 8.15l7.22 4.16 3.61 2.1c1.12.88 2.74.7 2.75 3.88a22.92 22.92 0 0 1-8.6 17.93l-.82.64c-2.44 1.94-3.27.54-4.6.19l-3.78-1.55-7.57-3.07L681 550.6l-15.19-6-7.6-2.92-7.59-2.88c-10.13-3.8-20.27-7.49-30.39-10.83-5.05-1.67-10.1-3.26-15.11-4.7q-3.75-1.09-7.46-2c-2.47-.65-4.92-1.23-7.31-1.74s-4.74-.95-7-1.27c-.55-.08-1.1-.17-1.62-.22s-1.06-.13-1.54-.17l-.75-.07h-.69a5.16 5.16 0 0 0-.68 0h-.65c-1.75.07-3.73.23-5.81.5s-4.27.63-6.51 1.08c-4.49.88-9.17 2.06-13.9 3.43s-9.52 2.93-14.32 4.61c-9.61 3.39-19.25 7.27-28.81 11.45-4.78 2.09-9.53 4.29-14.24 6.53-2.35 1.13-4.7 2.27-7 3.42l-3.44 1.73-1.68.87-.81.43-.39.2a2.56 2.56 0 0 0-.3.18A34.29 34.29 0 1 1 442.46 498Z" data-name="SVGID" class="colorae3347 svgShape"></path></clipPath><clipPath id="h"><path fill="#f66c80" d="M545.91 474.94A24.27 24.27 0 0 0 531 462.26c-8.1-2.53-18.31-1.32-25 4.11h-.73c-2 0-4 .18-6 .36s-3.85.43-5.72.71-3.71.58-5.53.91c-3.64.65-7.18 1.4-10.68 2.13s-6.93 1.5-10.31 2.22q-2.55.54-5.05 1l-5 1c-3.27.62-6.5 1.15-9.63 1.53-1.56.2-3.1.35-4.61.47s-3 .21-4.39.24a39.05 39.05 0 0 1-7.71-.51c-.56-.1-1.08-.22-1.58-.35-.26-.05-.48-.14-.72-.2l-.74-.22c-.48-.13-1.05-.34-1.59-.51l-.85-.31c-.29-.11-.57-.2-.88-.33a78.05 78.05 0 0 1-7.61-3.5c-2.63-1.36-5.34-2.84-8-4.46s-5.4-3.33-8.12-5.07-5.42-3.59-8.1-5.47-5.39-3.77-8-5.72c-5.35-3.86-10.6-7.92-15.76-11.89l-.47-.36-.09-.08a20.61 20.61 0 0 0-24.77 32.94q2.25 1.69 4.52 3.35t4.6 3.21c3.07 2.1 6.17 4.17 9.31 6.17s6.35 3.92 9.59 5.8 6.56 3.69 9.92 5.45 6.81 3.43 10.35 5 7.18 3.13 11 4.52a110.56 110.56 0 0 0 12.18 3.67c.52.13 1.1.24 1.66.36s1.11.24 1.69.35c1.19.2 2.32.42 3.58.56.62.08 1.22.17 1.85.22s1.28.11 1.89.14c1.25.07 2.48.09 3.67.08a73.6 73.6 0 0 0 13.34-1.43q3.11-.6 6-1.37c2-.51 3.86-1.07 5.72-1.66a216.85 216.85 0 0 0 20.94-7.95c6.61-2.82 13-5.75 19.16-8.36 3.08-1.32 6.13-2.56 9.07-3.58 1.47-.52 2.92-1 4.31-1.36l1.08-.29a12.62 12.62 0 0 0 6.67 2.54c5.26.62 11.25-8.57 18-7.33 9.61 1.82 12.78-3.24 12.45-4.05Z" data-name="SVGID" class="colorf68e6c svgShape"></path></clipPath><clipPath id="i"><path fill="#f81d3d" d="M419.4 469.7c-13.16-10-49.44-36.9-58.93-37.61-11.65-.89-17.67 2.37-21.31 5.67-8.23 7.47-8.58 23.19 4.22 35.27 10.73 10.13 43.54 28.07 53.84 33.59-1.21 2.11-1.93 3.62-1.86 4.16.36 2.86 10.35 9.64 13.2 7.5a13 13 0 0 1 5.35-2.5s-1.07 6.06 3.57 6.78a23.44 23.44 0 0 0 7.85 0l7.14-48.56c-2.54-4.2-9.55-6.64-13.07-4.3Z" data-name="SVGID" class="colorf8991d svgShape"></path></clipPath><clipPath id="j"><path fill="#29ccad" d="m237.91 550.31-1.51-1.18-75.91-59.44a33.77 33.77 0 0 0-6.59-4 32.05 32.05 0 1 0-26.35 58.44l76.86 34.65c-.14 1.57-.26 3.14-.39 4.72-.5 6.18-.91 12.36-1.31 18.55-.77 12.38-1.35 24.77-1.82 37.17l-.33 9.3-.27 9.3c-.18 6.21-.31 12.41-.43 18.62s-.18 12.42-.25 18.63l-.06 9.32v8.16c-.06.19.18.4 1.11.66l.76.2 1 .22.33.06.36.07.73.12.74.13 1 .14a140.42 140.42 0 0 0 19.24 1.39H228l1.06-.07.79-.09c1-.12 1.22-.29 1.19-.49l.16-1.16.33-2.3.66-4.62 1.28-9.23q1.25-9.24 2.43-18.47c.78-6.16 1.55-12.32 2.26-18.49l1.08-9.24 1-9.26c1.31-12.33 2.52-24.68 3.54-37 .5-6.18 1-12.36 1.38-18.55s.76-12.37 1-18.57a21.64 21.64 0 0 0-8.25-17.69Z" data-name="SVGID" class="color4b75ba svgShape"></path></clipPath><clipPath id="k"><path fill="#29ccad" d="M295.71 657.46v-9.72l-.1-9.71-.11-9.71c0-3.24 0-6.48-.13-9.71l-.43-19.4c-.41-12.92-.79-25.84-1.61-38.7a28 28 0 0 0-14.05-22.37l-1.58-.89-108.43-61-3.17-1.78a33.82 33.82 0 0 0-3.37-1.63 33 33 0 0 0-45.35 35.27H108l-15.17-.18c-2.14 10.7 0 22.83 16.41 31 6.66 3.33 81.65 20.92 102.76 25.84l32 13.34c1.08 8.92 2.3 17.82 3.51 26.72l2.8 19.12c.45 3.18 1 6.36 1.48 9.54l1.52 9.55 1.51 9.54 1.6 9.54.79 4.76.83 4.77 1.65 9.53 3.41 19 1.77 9.51.88 4.76.45 2.38a1.45 1.45 0 0 0 .16.59 1.8 1.8 0 0 0 .75.52 8.22 8.22 0 0 0 1.56.42h.56l.6.08.73.07h1.21a53.69 53.69 0 0 0 18.8-2.31l.8-.25.68-.23.56-.22.28-.11.24-.1a7.74 7.74 0 0 0 1.41-.78 1.75 1.75 0 0 0 .63-.68 1.65 1.65 0 0 0 .07-.62v-2.43l.08-4.87.14-9.74.17-19.47V657.25Z" data-name="SVGID" class="color4b75ba svgShape"></path></clipPath><clipPath id="l"><path fill="none" d="M325.43 411.24c-9 1.2-19.72 10.18-22.94 13-.85.53-1.68 1.06-2.48 1.6s-1.77 1.24-2.62 1.87-1.66 1.26-2.47 1.9c-3.22 2.55-6.14 5.16-9 7.71l-8.1 7.43c-2.61 2.37-5.19 4.56-7.66 6.41a40.16 40.16 0 0 1-3.6 2.4 20 20 0 0 1-3.17 1.53 5.91 5.91 0 0 1-2.17.42c-.49 0-.67-.2-.74-.36a1.64 1.64 0 0 0-.32-.62c-.11-.15-.26-.33-.45-.56l-.31-.38-.17-.21-.13-.17a18.86 18.86 0 0 1-1.28-1.93 27.12 27.12 0 0 1-1.48-3 52.81 52.81 0 0 1-2.6-8c-.74-3-1.36-6.17-1.9-9.46-1-6.6-1.84-13.56-2.72-20.65s-1.83-14.32-3-21.66a64.06 64.06 0 0 0-2.92-10.93 49.63 49.63 0 0 0-2.34-5.39 32.55 32.55 0 0 0-3.25-5.28 18.68 18.68 0 0 0-32.38 5.32l-.16.45a32 32 0 0 0-1.34 5.77 49.75 49.75 0 0 0-.51 5.67 63.74 63.74 0 0 0 .65 11.21c1.19 7.43 2.67 14.94 4.56 22.55a206.79 206.79 0 0 0 7.2 23.08c1.49 3.91 3.11 7.86 5 11.87a97.86 97.86 0 0 0 6.85 12.27 61.41 61.41 0 0 0 4.76 6.31 44.86 44.86 0 0 0 6.45 6.16c.31.24.63.49.95.72l.94.64c.64.42 1.3.83 2 1.23a36.52 36.52 0 0 0 4.43 2.19 34.17 34.17 0 0 0 5 1.64 31.07 31.07 0 0 0 10.79.67 32.07 32.07 0 0 0 5-1 36.82 36.82 0 0 0 8.31-3.49 48.5 48.5 0 0 0 6.37-4.34c1.89-1.51 3.59-3 5.17-4.58a109.75 109.75 0 0 0 8.39-9.26c2.53-3.06 4.82-6.13 7-9.11s4.32-5.91 6.38-8.65c1-1.36 2.07-2.67 3.08-3.9.4-.48.79-.94 1.19-1.38 4.39-4.46 3.55-3.87 17.38-4.89 3.28-.24 13-5.53 13.74-10.17s-8.68-14.08-19.38-12.65Z" data-name="SVGID"></path></clipPath></defs><g style="isolation:isolate" fill="#000000" class="color000000 svgShape"><g data-name="Layer 1" fill="#000000" class="color000000 svgShape"><circle cx="437.77" cy="396.21" r="263.39" fill="#c6ebe3" class="colorebcbc6 svgShape"></circle><rect width="135.58" height="146.28" x="484.56" y="419.8" fill="#ffffff" rx="38.31" class="colorffffff svgShape"></rect><path fill="#ffffff" d="M530.89 475.7a5.35 5.35 0 0 1-5.35-5.35l.05-420.18a5.35 5.35 0 1 1 10.7 0v420.18a5.34 5.34 0 0 1-5.4 5.35ZM664.69 332.74a5.34 5.34 0 0 1-5.35-5.35v-37.11a5.35 5.35 0 1 1 10.7 0L670 327.4a5.35 5.35 0 0 1-5.31 5.34Z" class="colorffffff svgShape"></path><path fill="#ffffff" d="M752.87 303.84H650.69a1.65 1.65 0 0 1-1.65-1.65v-13.33c0-2.76 3.2-5 7.14-5h89.55c3.94 0 7.14 2.24 7.14 5ZM661.26 334.23s.15.06 0 0h-.37l-1-.06c-.71 0-1.46-.07-2.23-.09h-4.68c-3.15 0-6.34.12-9.52.3-6.37.36-12.73 1-19 1.92s-12.48 2.06-18.53 3.55a146.9 146.9 0 0 0-17.6 5.44q-4.25 1.62-8.23 3.56a93.825 93.825 0 0 0-7.69 4.13 66.53 66.53 0 0 0-13 10.17A46.68 46.68 0 0 0 546.19 390l.3-3 .46 13.21c.09 4.41.25 8.81.27 13.22s.07 8.81.06 13.21-.09 8.81-.28 13.22a16.07 16.07 0 0 1-32.11 0c-.2-4.41-.24-8.81-.29-13.22s0-8.81.06-13.21.18-8.81.27-13.22l.47-13.21v-1.16a9.37 9.37 0 0 1 .25-1.86 85.86 85.86 0 0 1 3.71-11.7A75.33 75.33 0 0 1 525 361.2c.55-.87 1.07-1.77 1.66-2.61l1.76-2.53 1.88-2.45c.63-.8 1.31-1.57 2-2.35a78.25 78.25 0 0 1 8.61-8.48 93 93 0 0 1 19.53-12.44 120 120 0 0 1 20.73-7.56 179.53 179.53 0 0 1 41.79-5.71q10.4-.24 20.7.46c3.44.23 6.88.54 10.33 1 1.73.22 3.46.46 5.22.75.89.14 1.78.3 2.71.48l1.47.31.86.2c.24.06.77.21 1.18.34a7.14 7.14 0 1 1-4.1 13.67Z" class="colorffffff svgShape"></path><path fill="#ffffff" d="M666.78 311.34h-4.44a20.12 20.12 0 0 0-10.44 2.91 5.9 5.9 0 0 0-2.86 5.06v12.07a6.36 6.36 0 0 0 6.36 6.36h18.32a6.36 6.36 0 0 0 6.36-6.36v-12.07a5.91 5.91 0 0 0-2.85-5.06 20.16 20.16 0 0 0-10.45-2.91ZM766.42 407.67H637.26a2.52 2.52 0 0 1-2-4l15.15-20.52a13.38 13.38 0 0 1 10.77-5.44h127.4Z" class="colorffffff svgShape"></path><path fill="#ffffff" d="M753.58 452.98H630.84l-.27-23.36 10.98-23.02H775.7l-22.12 46.38z" class="colorffffff svgShape"></path><path fill="#c6ebe3" d="M644.4 433.72a5 5 0 0 1 5 5v14.63h-10v-14.64a5 5 0 0 1 5-4.99Z" class="colorebcbc6 svgShape"></path><path fill="#a9dbd0" d="M645.12 445.13a1.76 1.76 0 0 1-1.53-.86L634 428.21a1.78 1.78 0 1 1 3.06-1.83l9.64 16.05a1.79 1.79 0 0 1-.62 2.45 1.76 1.76 0 0 1-.96.25Z" class="colordbb1a9 svgShape"></path><path fill="#c6ebe3" d="M665.1 433.72a5 5 0 0 1 5 5v14.63h-10v-14.64a5 5 0 0 1 5-4.99ZM686.15 433.72a5 5 0 0 1 5 5v14.63h-10v-14.64a5 5 0 0 1 5-4.99Z" class="colorebcbc6 svgShape"></path><path fill="#a9dbd0" d="M617.28 435a.9.9 0 0 1-.14-1.78l20.16-3.39a.89.89 0 0 1 1 .74.88.88 0 0 1-.73 1L617.43 435ZM665.81 445.13a1.76 1.76 0 0 1-1.53-.86l-9.63-16.06a1.78 1.78 0 1 1 3.06-1.83l9.63 16.05a1.79 1.79 0 0 1-.61 2.45 1.82 1.82 0 0 1-.92.25Z" class="colordbb1a9 svgShape"></path><path fill="#a9dbd0" d="M656.53 432.29a1.79 1.79 0 0 1-1.51-.84l-1.11-1.77a1.79 1.79 0 0 1 3-1.89l1.11 1.77a1.79 1.79 0 0 1-.57 2.46 1.83 1.83 0 0 1-.92.27ZM687.93 445.13a1.78 1.78 0 0 1-1.53-.86l-9.63-16.06a1.78 1.78 0 1 1 3.06-1.83l9.63 16.05a1.79 1.79 0 0 1-.61 2.45 1.82 1.82 0 0 1-.92.25Z" class="colordbb1a9 svgShape"></path><path fill="#a9dbd0" d="M678.66 432.29a1.79 1.79 0 0 1-1.52-.84l-1.14-1.77a1.79 1.79 0 1 1 3-1.89l1.11 1.77a1.78 1.78 0 0 1-1.51 2.73Z" class="colordbb1a9 svgShape"></path><ellipse cx="679.72" cy="393.71" fill="#c6ebe3" rx="9.31" ry="5.32" transform="rotate(-60 679.713 393.703)" class="colorebcbc6 svgShape"></ellipse><path fill="#c6ebe3" d="M665.1 388.76h-9.64a1.79 1.79 0 0 1 0-3.57h9.64a1.79 1.79 0 0 1 0 3.57ZM661.53 395.54h-9.64a1.79 1.79 0 0 1 0-3.57h9.64a1.79 1.79 0 0 1 0 3.57ZM657.25 403h-9.64a1.79 1.79 0 0 1 0-3.57h9.64a1.79 1.79 0 0 1 0 3.57ZM686.15 408.56h-33.9a.89.89 0 1 1 0-1.78h33.9a.89.89 0 0 1 0 1.78Z" class="colorebcbc6 svgShape"></path><path fill="#ffffff" d="M518.28 401.25h25.33a9.1 9.1 0 0 1 9.1 9.1v19.44h-43.53v-19.44a9.1 9.1 0 0 1 9.1-9.1Z" class="colorffffff svgShape"></path><path fill="#c6ebe3" d="M552.17 421.23h-30.33a.89.89 0 0 1 0-1.78h30.33a.89.89 0 0 1 0 1.78ZM559.66 462.62a.9.9 0 0 1-.82-.55c-2.18-5.2-12.52-13.29-25.13-19.66-14.16-7.16-27.18-10.15-34.82-8a.9.9 0 0 1-1.1-.62.9.9 0 0 1 .62-1.1c17.8-5 57.06 16.74 62.08 28.7a.9.9 0 0 1-.48 1.17 1 1 0 0 1-.35.06Z" class="colorebcbc6 svgShape"></path><path fill="#c5ebe2" d="M531.12 402h-11.77a.89.89 0 1 1 0-1.78h11.77a.89.89 0 1 1 0 1.78Z" class="colorebcbc5 svgShape"></path><path fill="#ffffff" d="M518.01 223.21h26.05v39.96h-26.05z" class="colorffffff svgShape"></path><path fill="#ffffff" d="M523.54 202.87h14.99v24.62h-14.99z" class="colorffffff svgShape"></path><path fill="#b5c6c2" d="M410.11 560.18h16.92v120.06h-16.92z" class="colorb9b5c6 svgShape"></path><path fill="#b5c6c2" d="M500 733.82a3.61 3.61 0 0 1-3.61-3.61v-14.27c-6.94-5.48-40.69-30.76-73.69-32.09a3.61 3.61 0 0 1 .29-7.22c39.33 1.59 77.72 33.45 79.34 34.81l1.29 1.08v17.69a3.62 3.62 0 0 1-3.62 3.61Z" class="colorb9b5c6 svgShape"></path><path fill="#b5c6c2" d="M346.17 733.82a3.61 3.61 0 0 1-3.61-3.61v-17.69l1.29-1.08c1.61-1.36 40-33.22 79.33-34.81a3.61 3.61 0 1 1 .3 7.22c-33 1.33-66.75 26.61-73.69 32.09v14.27a3.62 3.62 0 0 1-3.62 3.61Z" class="colorb9b5c6 svgShape"></path><path fill="#b5c6c2" d="M398.46 733.82a3.62 3.62 0 0 1-3.62-3.61V713.9l.06-.31c.23-1.36 6-33.37 27.85-36.92a3.61 3.61 0 0 1 1.16 7.13c-15.9 2.59-21.26 27.78-21.84 30.74v15.67a3.61 3.61 0 0 1-3.61 3.61Z" class="colorb9b5c6 svgShape"></path><circle cx="398.46" cy="742.35" r="11.28" fill="#b5c6c2" class="colorb9b5c6 svgShape"></circle><circle cx="348.55" cy="742.35" r="11.28" fill="#b5c6c2" class="colorb9b5c6 svgShape"></circle><circle cx="500" cy="742.35" r="11.28" fill="#b5c6c2" class="colorb9b5c6 svgShape"></circle><path fill="#f66c80" d="M392.23 269.59a21.58 21.58 0 0 0-30.2-4.3l-3.07 2.3-.41.32-.36.29-.7.57-1.37 1.12-2.69 2.24c-1.78 1.49-3.54 3-5.3 4.51-3.5 3-7 6.11-10.41 9.27s-6.83 6.4-10.2 9.79-6.7 6.89-10 10.74c-1.65 1.93-3.29 3.95-4.92 6.16a64.8 64.8 0 0 0-4.89 7.58 39 39 0 0 0-2.37 5.2 28.51 28.51 0 0 0-1 3.45 24 24 0 0 0-.62 4.48v1.32c0 .44 0 .92.07 1.42a5.51 5.51 0 0 0 .32 1.73l.33 1.13.35 1.08c.24.73.51 1.4.76 2.1s.55 1.34.83 2a77.74 77.74 0 0 0 7.92 13.66c1.45 2 3 4 4.5 5.89.77.95 1.55 1.88 2.35 2.8l1.22 1.39 1.32 1.45a7.44 7.44 0 0 0 13-4.62l.2-4a2.18 2.18 0 0 0-.09-.29l-.11-.35-.24-.71-.48-1.47c-.31-1-.6-2-.88-3-.56-2-1-4-1.41-6a58.44 58.44 0 0 1-.86-5.82 38.24 38.24 0 0 1-.14-5.4c0-.42.61-.74.66-.73s.34-.3.68-.67c.69-.78 1.77-1.91 3-3s2.61-2.36 4.06-3.57c2.92-2.41 6.14-4.83 9.48-7.18s6.81-4.66 10.34-6.92 7.13-4.47 10.77-6.62q2.73-1.6 5.48-3.17l2.75-1.54 1.36-.76.67-.36.32-.17a2.38 2.38 0 0 1 .28-.14 22.21 22.21 0 0 0 5.52-3 21.57 21.57 0 0 0 4.18-30.2Z" data-name="SVGID" class="colorf68e6c svgShape"></path><path d="M328.75 300.28c3.93 12.13 7.14 31.75 6.07 36.39S350.16 322 350.16 322Z" style="mix-blend-mode:multiply" fill="#aee7da" clip-path="url(#a)" opacity=".61" class="coloraec5e7 svgShape"></path><path fill="#5debcb" d="M375.74 260c-10.15-.28-22.14 6.34-48.5 34-1.83 8.46 3.24 17.06 9.45 23.12s14.8 8.6 14.8 8.6l16.92-11.7 7.33-26.07Z" data-name="SVGID" class="color7ea3d6 svgShape"></path><path d="M336.6 316.69c7.85-.71 19.62-19.27 19.62-19.27l8.92 24.58-12.84 8.6s-15-3.92-13.56-4.63-2.14-9.28-2.14-9.28Z" style="mix-blend-mode:multiply" fill="#aee7da" clip-path="url(#b)" opacity=".61" class="coloraec5e7 svgShape"></path><path fill="#5debcb" d="M340.17 361.64c0 3.35-1.68 6.07-3.75 6.07s-3.74-2.72-3.74-6.07-1.36-7.84.71-7.84 6.78 4.49 6.78 7.84Z" class="color7ea3d6 svgShape"></path><path fill="#ffffff" d="M315.91 378.06a1.76 1.76 0 0 1-1.4-.68 1.78 1.78 0 0 1 .29-2.5l26-20.7a1.79 1.79 0 1 1 2.22 2.8l-26 20.69a1.79 1.79 0 0 1-1.11.39Z" class="colorffffff svgShape"></path><path fill="#5debcb" d="M332.68 351.3c-11.06.71-18 15.16-14.1 20.16s12.13 5 14.63 4.63 1.25-.53 3.75-3.38-4.28-21.41-4.28-21.41Z" class="color7ea3d6 svgShape"></path><path fill="#5debcb" d="M335.53 354.51c.77-2.86 0-10 0-10s-11.42-2.86-19.27 6.78c-4.28 5.35-3.56 7.85-3.56 7.85s7.13 6.06 7.84 5.35 11.07-7.85 11.07-7.85Z" class="color7ea3d6 svgShape"></path><path fill="#29ccad" d="M320.57 373.65a1.15 1.15 0 0 1-.59-.17c-3.31-2.16-5.23-7.13-1.64-12.93S326.45 352 328 352a1.09 1.09 0 0 1 0 2.17c-.68.07-4.59 2.24-7.86 7.51s-.78 8.83 1 10a1.08 1.08 0 0 1-.59 2Z" class="color4b75ba svgShape"></path><path fill="#cf5567" d="M307.56 347.81a1.08 1.08 0 0 1-1-.66c-.32-.74-.71-1.51-1.12-2.33-2.11-4.18-5-9.91-1.25-19.6 4.31-11.14 13.58-20.77 14-21.17a1.08 1.08 0 1 1 1.55 1.51c-.09.09-9.36 9.72-13.51 20.44-3.4 8.8-1 13.6 1.17 17.85.43.85.83 1.65 1.17 2.46a1.08 1.08 0 0 1-.57 1.42 1.25 1.25 0 0 1-.44.08ZM333.26 345.27a1.08 1.08 0 0 1-1.08-.94c-.82-6.3-1.64-13.17-1.65-13.24a1.09 1.09 0 0 1 1-1.21 1.08 1.08 0 0 1 1.2.95c0 .07.83 6.94 1.65 13.22a1.09 1.09 0 0 1-.93 1.22Z" class="colorcf7455 svgShape"></path><path fill="#29ccad" d="M336.6 365.58a1.08 1.08 0 0 1-1-.75v-.09c-2.47-7.75-2.36-9.92-1.24-10.72.44-1 .43-5.58.15-9.42a1.08 1.08 0 1 1 2.16-.16c.68 9.19-.31 10.8-.89 11.24-.1.46-.09 2.19 1.89 8.41v.08a1.08 1.08 0 0 1-.7 1.36 1 1 0 0 1-.37.05Z" class="color4b75ba svgShape"></path><path fill="#f67084" d="M350.73 735.47a15.73 15.73 0 0 0 .67-3.49 31 31 0 0 0 0-4.83 51.57 51.57 0 0 0-.61-5.25c-.14-.89-.31-1.78-.49-2.66-.09-.45-.2-.87-.29-1.31a11.27 11.27 0 0 1-.22-1.16l-.08-.82a8.91 8.91 0 0 1 17.49-3.07c.19.75.27 1.25.37 1.86s.16 1.16.22 1.73c.14 1.15.25 2.29.34 3.44a68.07 68.07 0 0 1 .19 7 45.85 45.85 0 0 1-.72 7.46 28.53 28.53 0 0 1-2.8 8.28 7.88 7.88 0 0 1-14.39-6.32Z" class="colorf69070 svgShape"></path><path fill="#97aba6" d="M368.25 732.35s6.06 10 2.83 21.41c-.16-.18-54-.25-59.43-.18-.25-8.72 35.71-18.48 36.66-18.71 13.94 3.4 19.94-2.52 19.94-2.52Z" class="colorab97a6 svgShape"></path><path fill="#f67084" d="M441.38 735.49a14.27 14.27 0 0 1 0-1.71c0-.78 0-1.68-.07-2.64s-.14-2-.26-3-.23-2.13-.39-3.22a160 160 0 0 0-1.13-6.66c-.21-1.12-.44-2.24-.67-3.36l-.36-1.67a1.55 1.55 0 0 1 .13-.88 2.14 2.14 0 0 1 .83-.94l6-3.52a11.69 11.69 0 0 1 11.49-.21 3.91 3.91 0 0 1 1.2.9 2.18 2.18 0 0 1 .48 1c.1.67.19 1.35.28 2 .18 1.34.32 2.69.44 4 .24 2.7.38 5.43.35 8.23 0 1.41-.06 2.82-.16 4.27s-.28 2.92-.52 4.45a37.66 37.66 0 0 1-1.1 4.77 22.5 22.5 0 0 1-2.38 5.38 7.08 7.08 0 0 1-12.89-2.08Z" class="colorf69070 svgShape"></path><path fill="#97aba6" d="M460.4 729.64s5.29 9.43 2.89 24.12c-.16-.18-54-.25-59.43-.18-.25-8.72 35.72-18.48 36.66-18.71 13.95 3.4 19.88-5.23 19.88-5.23Z" class="colorab97a6 svgShape"></path><path fill="#5debcb" d="M448.24 452.56a32.39 32.39 0 0 0-30.13 12.22 32.34 32.34 0 0 0-62.19-2.78l-1 3.14-30.21 91.51-.78 2.33a15.94 15.94 0 0 0-.6 7.3c1 6.5 1.83 13 2.72 19.53l.66 4.88.62 4.89.61 4.89.57 4.89c.4 3.26.73 6.52 1.08 9.78l1.01 9.86 1.94 19.59c1.27 13.06 2.71 26.1 4.6 39.12l.74 4.87.37 2.44.4 2.44.8 4.87c.28 1.63.58 3.25.86 4.87l.88 4.87.94 4.86.47 2.44.23 1.21a3.06 3.06 0 0 0 .48 1.2 7 7 0 0 0 2.93 2.25 19.58 19.58 0 0 0 2.68 1c.26.09.56.17.84.25l.94.24c.62.16 1.33.31 2.16.46h.12a19 19 0 0 0 9.25-.7c.79-.27 1.47-.52 2-.77l.89-.37.79-.37a20.85 20.85 0 0 0 2.49-1.41 7.17 7.17 0 0 0 2.59-2.66 2.93 2.93 0 0 0 .32-1.25l.09-1.24.17-2.48.34-5 .28-4.95c.09-1.65.2-3.3.28-5l.22-4.95.11-2.47.08-2.47.16-5c.17-6.59.28-13.17.26-19.74 0-3.29 0-6.58-.06-9.86l-.17-9.85-.09-4.93-.11-4.92-.23-9.85-.2-9.85c-.07-3.28-.15-6.56-.18-9.85l-.12-9.86-.06-4.92c0-1.65 0-3.29-.09-4.93-.15-4.54-.39-9.08-.89-13.6l37.83-70-10.26 73-.17 1.17a22.86 22.86 0 0 0 .21 7.41l.43 2.18.45 2.18.9 4.35 1.93 8.67c.63 2.89 1.34 5.77 2 8.66l2.1 8.63c2.82 11.51 5.84 23 9 34.42 1.55 5.72 3.18 11.43 4.79 17.14.8 2.86 1.65 5.7 2.48 8.55s1.65 5.71 2.5 8.55l2.56 8.54 1.28 4.26 1.31 4.26 2.63 8.52.66 2.13.33 1.07a3.7 3.7 0 0 0 .55 1 6.29 6.29 0 0 0 2.28 1.78 13.05 13.05 0 0 0 1.87.73l.56.16.64.14c.21 0 .41.1.66.14s.48.09.76.12a24.53 24.53 0 0 0 15.62-3.27l.12-.06.65-.43a6.79 6.79 0 0 0 .56-.41l.52-.4.46-.38a14.82 14.82 0 0 0 1.43-1.45 6.44 6.44 0 0 0 1.4-2.58 3.9 3.9 0 0 0 .11-1.16l-.12-1.11-.24-2.22-.95-8.89-.48-4.44-.51-4.44-1-8.87c-.34-3-.72-5.9-1.08-8.86s-.72-5.9-1.11-8.85c-.78-5.89-1.54-11.79-2.38-17.67-1.65-11.76-3.41-23.51-5.37-35.2l-1.5-8.77-.78-4.38c-.26-1.46-.52-2.91-.81-4.37l-1.66-8.73-.44-2.18L474.1 496a34.78 34.78 0 0 0 1.73-6.82 32.43 32.43 0 0 0-27.59-36.62Z" data-name="SVGID" class="color7ea3d6 svgShape"></path><g clip-path="url(#c)" fill="#000000" class="color000000 svgShape"><path d="M334.35 688.82c10.35 21.41 38.56 20.19 44.08-35.93 5.68 27.27 6.23 69.47 6.23 69.47l-36 8.56s-23.19-14.27-22.83-15.34 8.52-26.76 8.52-26.76ZM427.47 696.67a16.27 16.27 0 0 0 18.2 8.57c5.35-1.43 17.48-30.33 15.7-50 18.91 34.29 21.5 46.73 21.5 46.73l-8.3 39.62-40.67-2.5s-14.28-23.19-15.35-26 8.92-16.42 8.92-16.42ZM323.29 597.13c1.78-14.27 3.57-28.55 16.06-28.19 9.6.28 31.39 20.34 35 44.6 1.05 7.14 11.78-45 11.78-45l-26-30-36.75-21.4-5 39.24Z" style="mix-blend-mode:multiply" fill="#aee7da" opacity=".61" class="coloraec5e7 svgShape"></path></g><path fill="#ffffff" d="M321.86 379.48a1.78 1.78 0 0 1-.38-3.52l37.1-8.21a1.79 1.79 0 1 1 .77 3.49l-37.1 8.2a1.72 1.72 0 0 1-.39.04Z" class="colorffffff svgShape"></path><path fill="#29ccad" d="M379.55 260.21c26.51-.56 74.9 3.73 97 33.27 18.95 25.34 14 82.78 3.55 123.13a108.15 108.15 0 0 0-2.88 39.08c1.77 15.87-2.06 23-2.06 23S423 468.3 423 467.45s-46.25-36.93-46.25-36.93-2-65.92-5.92-79.34-20-60.23-12.69-74.33a32.78 32.78 0 0 1 21.41-16.64Z" class="color4b75ba svgShape"></path><path d="M479.17 323.23c.39 15.22-2.1 49.12-5.31 50.19a37.4 37.4 0 0 1-7.14 1.43S455.3 422.66 446 426.58s-63.87-7.85-63.87-7.85L376 410.9l-.25-5.45 51.73-5.27s9.64-30.69 9.64-31 21.76-33.9 21.76-33.9Z" style="mix-blend-mode:multiply" fill="#aee7da" opacity=".61" class="coloraec5e7 svgShape"></path><path fill="#f66c80" d="M388.86 274c-4.32 8.64.67 21.25 4.84 29.23 1.81 3.47 3 10.23 5.23 7 4-5.84 14.93-18.16 19.76-22.29 9.85-8.4 9.55-13.44 2.34-17.29S388.86 274 388.86 274Z" class="colorf68e6c svgShape"></path><path fill="#f66c80" d="M455.3 299.11a22.81 22.81 0 0 0-25.09 20.3c-.7 6.61-1.47 13.23-2.31 19.81s-1.8 13.13-2.85 19.59-2.23 12.85-3.6 18.89c-.68 3-1.43 5.93-2.2 8.47-.19.62-.38 1.23-.57 1.77-.05.17-.1.32-.15.47-.83 0-1.7.08-2.6.08-1.42 0-2.9 0-4.41-.12-3-.17-6.18-.47-9.37-.86s-6.42-.86-9.66-1.39c-6.48-1.06-13-2.33-19.55-3.73q-4.9-1.06-9.79-2.23l-4.88-1.16-4.82-1.21h-.19a8.48 8.48 0 0 0-5.54 16l2.41 1.08 2.38 1.05 4.76 2.07q4.77 2.06 9.59 4c6.42 2.63 12.91 5.16 19.56 7.53q5 1.77 10.12 3.4c3.44 1.08 6.95 2.1 10.62 3 1.83.45 3.71.87 5.67 1.24s4 .69 6.22.91c1.11.11 2.26.19 3.5.22a37.57 37.57 0 0 0 4-.1 28.39 28.39 0 0 0 5.09-.87 23.46 23.46 0 0 0 3.24-1.13 22 22 0 0 0 3.9-2.22c.35-.26.68-.5 1.05-.81l.53-.46.25-.22.18-.16.68-.65.33-.33.27-.3c.36-.38.75-.81 1-1.15s.62-.74.86-1.05a43.94 43.94 0 0 0 2.52-3.6c.68-1.09 1.28-2.12 1.82-3.1s1.05-1.93 1.53-2.87c1.87-3.71 3.38-7.18 4.81-10.63 2.83-6.86 5.22-13.56 7.55-20.25s4.46-13.35 6.53-20 4.1-13.33 6.05-20l.06-.2a22.85 22.85 0 0 0-19.56-28.94Z" data-name="SVGID" class="colorf68e6c svgShape"></path><path d="M421.05 362.36c10.35-5.35 26.05-1.43 29.26 5.71s6.78 29.61 5.71 31c-2.14 1.43-27.48 16.41-50.67 10s-54.94-10-54.94-10 81 34.61 83.49 32.11 37.82-35.68 37.82-35.68l-4.29-35.68-37.82-13.2-5 2.14Z" style="mix-blend-mode:multiply" fill="#aee7da" clip-path="url(#d)" opacity=".61" class="coloraec5e7 svgShape"></path><path fill="#5debcb" d="M437.07 298.2c6.35-5.08 16.5-9 25.38-5.47s16.07 12.87 17.34 20.9-8.46 47.68-9.94 49.75S425 357.2 423.12 354s6.76-44.19 8-48.21 5.95-7.59 5.95-7.59ZM343.63 377.7c-10.35-10-19.11-1.52-24.47 1.16s-7.64 8.41-7.64 8.41 3.82 7.65 7.64 9.56 19.84-2.72 19.84-2.72ZM401.6 324.54a.92.92 0 0 1-.52-.17.9.9 0 0 1-.2-1.25c.68-.92 16.56-22.63 24.73-30.45l1.39-1.27c4.09-3.83 9.18-8.61 9.15-13.39 0-2.07-1-4-3-5.8a.89.89 0 0 1 1.21-1.31 9.63 9.63 0 0 1 3.56 7.1c0 5.56-5.37 10.63-9.71 14.71l-1.37 1.29c-8 7.71-24.35 30-24.51 30.21a.91.91 0 0 1-.73.33ZM391 324.69l-1.66-.66a.31.31 0 0 0 0 .07s.38-1.89-2.8-8.26c-2.89-5.78-16.2-38.62-5.63-45a.89.89 0 0 1 .92 1.53c-8.53 5.19 2.67 35.46 6.3 42.72 3.48 6.91 3.09 9.1 2.87 9.6Z" class="color7ea3d6 svgShape"></path><path fill="#29ccad" d="M470.43 350.3c-6.56 0-20.47-.63-30-5.52a.89.89 0 0 1 .82-1.59c12.13 6.24 32.52 5.27 32.73 5.25a.9.9 0 0 1 .09 1.79c-.2.01-1.54.07-3.64.07Z" class="color4b75ba svgShape"></path><path fill="#5debcb" d="M417 354.51h-.07c-5-.36-16-2.43-16.51-2.51a.9.9 0 0 1-.73-.88v-4.64a.87.87 0 0 1 .3-.66 1 1 0 0 1 .7-.23l22.48 2.56a.87.87 0 0 1 .78 1 .89.89 0 0 1-1 .79l-21.49-2.44v2.9c2.59.47 11.42 2.05 15.58 2.35a.89.89 0 0 1-.06 1.78ZM343.66 377.58l13.27-.35s.37 10.75-1.63 14.62l-5.61 10.83-10.69-8.57Z" class="color7ea3d6 svgShape"></path><path d="M443.45 360c15.78-.87 36.47-27.18 36.29-41.5-2.85 17.39-6.24 49.19-6.24 49.19l-14.63-1.78Z" style="mix-blend-mode:multiply" fill="#aee7da" clip-path="url(#e)" opacity=".61" class="coloraec5e7 svgShape"></path><path fill="#cf5567" d="M424 419.49a60.11 60.11 0 0 1-12.6-1.6c-13.64-3-37.63-12-44.95-14.92-2.72-1.09-6.92-3.07-12.47-5.9a1.08 1.08 0 1 1 1-1.93c5.5 2.79 9.63 4.75 12.29 5.82 7.28 2.91 31.11 11.88 44.61 14.81 13.14 2.84 17.73 1.16 21.78-.32l.27-.1c4-1.45 13.57-10 16.91-20.58a257.84 257.84 0 0 1 9.45-24.08 1.08 1.08 0 0 1 2 .9 252.67 252.67 0 0 0-9.35 23.84c-3.6 11.36-13.79 20.33-18.24 22l-.26.1a26.86 26.86 0 0 1-10.44 1.96Z" class="colorcf7455 svgShape"></path><path fill="#29ccad" d="M349.69 403.76a1.06 1.06 0 0 1-.65-.22c-4.7-3.52-9-7.09-10.31-8.23-2.19.61-10.08 2.74-13.3 2.74a1.09 1.09 0 0 1 0-2.17c3.38 0 13.16-2.78 13.26-2.81a1.07 1.07 0 0 1 1 .22c.05 0 4.6 3.94 9.9 7.95 4.35-4.59 5.32-11.34 6-15.88.07-.5.14-1 .21-1.4a1.08 1.08 0 1 1 2.14.33c-.07.43-.13.89-.2 1.38-.72 5.05-1.81 12.68-7.27 17.8a1.08 1.08 0 0 1-.78.29Z" class="color4b75ba svgShape"></path><path fill="#f66c80" d="M374.72 248.68c2 20.79 12 36.37 26.15 35s29.63-19 27.62-39.76-15.11-36.52-29.25-35.15-26.54 19.12-24.52 39.91Z" class="colorf68e6c svgShape"></path><path fill="#3d6e65" d="M366.44 225.81c12.84 13.44 27.49 11.84 35.95 11 10.82-1.08 17.34-3.17 19-1.69s.43 9.94 0 12.47c1.91-.21 2.56-1.47 4.89 0S427.56 258 425 260.2c-1.06 2.73-1.91 6.92-1.06 7.17s7.19-9.2 7.83-15.55 1.37-16.6 0-18.71c2.22-3.6 4.23-19.77-3.86-26.33s-26.91-11.31-37.27-5-14.79 1.5-20.41 4.12c-6.33 2.99-7.64 15.88-3.79 19.91Z" class="color3d406e svgShape"></path><path fill="#ffffff" d="M385.83 263.1c-1-.22-1.55.72-1.29 1.69 1.36 5 7.28 7.55 11.09 7.55 4.65 0 7.19-4.66 8-6.39a1.18 1.18 0 0 0-1.25-1.75 19.62 19.62 0 0 1-4.21.52 72.2 72.2 0 0 1-12.34-1.62Z" class="colorffffff svgShape"></path><path fill="#cf5567" d="M399.36 284.68a19.28 19.28 0 0 1-11.18-3.54c-13.34-9-14.34-32.1-14.67-39.7a1.08 1.08 0 0 1 1-1.13 1.1 1.1 0 0 1 1.13 1c.31 7.33 1.27 29.64 13.72 38 9 6.25 18.46 1.24 19.05.92s11.82-8.14 14.79-18.1a1.08 1.08 0 1 1 2.07.62c-3.27 11-15.19 19-15.7 19.31h-.05a22.16 22.16 0 0 1-10.16 2.62Z" class="colorcf7455 svgShape"></path><path fill="#29ccad" d="M354.65 722.83c-6.83 0-10.52-3.7-12.55-5.73a.85.85 0 0 1-.21-.34c-3.56-10.67-17.41-134.6-18-139.87-.06-.5-1.67-12.8-1.21-16.81s6-18.38 6.2-19a.89.89 0 0 1 1.66.64c-.05.15-5.66 14.76-6.09 18.55s1.2 16.27 1.22 16.39c.14 1.3 14.25 127.54 17.85 139.33 3.27 3.26 10 9.58 26.55-.06.45-5.5 2.33-45.66 2.35-46.08a.86.86 0 0 1 .93-.84.89.89 0 0 1 .85.93c-.08 1.77-2 43.42-2.39 46.62a.88.88 0 0 1-.43.67c-7.02 4.16-12.48 5.6-16.73 5.6ZM373.31 647.61a.88.88 0 0 1-.89-.87l-2-76.84c-2.07.52-4.95 1.26-5.64 1.49a.89.89 0 0 1-1.13-.56.9.9 0 0 1 .57-1.13c1.09-.36 6.61-1.74 6.84-1.8a.9.9 0 0 1 .76.15.93.93 0 0 1 .35.69l2 78a.89.89 0 0 1-.87.91ZM444.88 717.86c-5.17 0-10-1.79-11.89-4.44a.87.87 0 0 1-.16-.45c-.28-3.59-9.39-33.65-14.18-49a.9.9 0 1 1 1.71-.53c.55 1.79 13.43 43.29 14.22 49.16 1.5 1.87 5.63 3.65 10.83 3.5a19.2 19.2 0 0 0 15.93-8.73c-.78-8-4.69-41.75-4.73-42.09a.89.89 0 0 1 1.77-.21c0 .35 4.06 35 4.77 42.44a.84.84 0 0 1-.14.56 21.13 21.13 0 0 1-17.56 9.82Z" class="color4b75ba svgShape"></path><path fill="#f67084" d="M713.83 540.58a9.84 9.84 0 0 0 1.24.94 21.27 21.27 0 0 0 2.25 1.27 45.16 45.16 0 0 0 5.78 2.32c2.07.69 4.25 1.31 6.46 1.86 1.11.27 2.22.53 3.33.76l1.67.35.82.17c.25 0 .56.13.73.18l.42.12a8.91 8.91 0 0 1-4 17.35c-.44-.08-.73-.13-1.08-.21l-1-.25-1.93-.54c-1.28-.38-2.55-.77-3.82-1.18-2.54-.84-5.07-1.75-7.61-2.81a63.2 63.2 0 0 1-7.71-3.81 37.37 37.37 0 0 1-4-2.73 21.73 21.73 0 0 1-4.12-4.17 7.85 7.85 0 0 1 11.46-10.59Z" class="colorf69070 svgShape"></path><path fill="#fd566f" d="M348.27 423.73c-3.93-5.36-16.42-5.36-16.42-5.36l-23.19 15.35 4.64 11.77s-6.42 5.35 3.57-2.5c7.47-5.87 18.55-13.91 23.55-14.27s7.85-4.99 7.85-4.99Z" class="colorfdb956 svgShape"></path><path fill="#f66c80" d="M319.9 451.28 307.61 440l-6.15-5.63-6-5.44-.39-.35A12.73 12.73 0 0 1 310 408.07l7.53 4.3 7.3 4.22 14.54 8.46a16.42 16.42 0 0 1-16.52 28.38 17.09 17.09 0 0 1-2.8-2.05Z" data-name="SVGID" class="colorf68e6c svgShape"></path><path d="M336.45 429.74c-7.45-5.66-23.86-.3-26.36.05s-10-1.43-10-1.43L329 413.74l12.49 4.63 4.8 6.07Z" style="mix-blend-mode:multiply" fill="#aee7da" clip-path="url(#f)" opacity=".61" class="coloraec5e7 svgShape"></path><path fill="#c80b27" d="m456.27 493.21.66-.21.57-.17 1.1-.33 2.16-.63 4.25-1.2q4.22-1.17 8.43-2.26c5.62-1.46 11.26-2.82 16.91-4.13 11.32-2.61 22.75-4.92 34.48-6.73 5.87-.89 11.8-1.67 17.87-2.25s12.27-1 18.72-1c3.23 0 6.53.07 9.93.29a99.68 99.68 0 0 1 10.65 1.28l2.75.51 1.35.25 1.28.29c.87.18 1.69.38 2.51.59s1.61.41 2.4.62c3.15.87 6.12 1.81 9 2.79s5.68 2 8.44 3.06 5.46 2.12 8.13 3.23 5.31 2.22 7.93 3.36 5.22 2.29 7.8 3.46c10.32 4.67 20.4 9.56 30.36 14.6 2.48 1.26 5 2.52 7.44 3.81l7.4 3.88 7.36 3.92 7.31 4c4.86 2.68 9.71 5.37 14.52 8.15l7.22 4.16 3.61 2.1c1.12.88 2.74.7 2.75 3.88a22.92 22.92 0 0 1-8.6 17.93l-.82.64c-2.44 1.94-3.27.54-4.6.19l-3.78-1.55-7.57-3.07L681 550.6l-15.19-6-7.6-2.92-7.59-2.88c-10.13-3.8-20.27-7.49-30.39-10.83-5.05-1.67-10.1-3.26-15.11-4.7q-3.75-1.09-7.46-2c-2.47-.65-4.92-1.23-7.31-1.74s-4.74-.95-7-1.27c-.55-.08-1.1-.17-1.62-.22s-1.06-.13-1.54-.17l-.75-.07h-.69a5.16 5.16 0 0 0-.68 0h-.65c-1.75.07-3.73.23-5.81.5s-4.27.63-6.51 1.08c-4.49.88-9.17 2.06-13.9 3.43s-9.52 2.93-14.32 4.61c-9.61 3.39-19.25 7.27-28.81 11.45-4.78 2.09-9.53 4.29-14.24 6.53-2.35 1.13-4.7 2.27-7 3.42l-3.44 1.73-1.68.87-.81.43-.39.2a2.56 2.56 0 0 0-.3.18A34.29 34.29 0 1 1 442.46 498Z" data-name="SVGID" class="colorae3347 svgShape"></path><path d="M552.71 476.53c-2.86 10-36.4 23.19-45.32 11.42-9.38 5.1-35.71 17.25-48.2 23a5.43 5.43 0 0 0-1.06 9.25c4.45 3.4 11.77 6.73 22.86 5.6 10.1-1 109.18-12.49 109.18-12.49s90.43 30.43 107.75 27.83c14.27-2.14 10.7-18.91 10.7-18.91l22.13 10-13.92 34.25-156.28-34.2-134.81 21.24s13.15-48.8 12.44-49.52 44.35-23.1 44.35-23.1 47.34-6.51 49.13-6.87 25.34-8.92 25.34-8.92Z" style="mix-blend-mode:multiply" fill="#aee7da" clip-path="url(#g)" opacity=".61" class="coloraec5e7 svgShape"></path><path fill="#fd566f" d="M311.16 446.56c1.43-3.5 12.7-7.47 18.2-11.42 11.41-8.2 9.75-8.81 15.34-10.34 7-1.93 16.36.47 26 4.64 27.92 12 36.44 25.63 46 35.78s29.21 30.24 29.21 30.24c2.29 22.52-.33 38.57-12.73 56l-32.56-23.37s-58.77-35.58-60.94-37.32-14.1-22.37-19.63-26.77c-14.16-11.47-8.89-17.44-8.89-17.44Z" class="colorfdb956 svgShape"></path><path fill="#f77f91" d="M314.5 393.63c1.18 3.14-3.06 8.39-2.17 9.15 1.74 1.47 5.71-4.79 6.29-2.8 1.56 5.37 6.2 7.95 5.26 13.94-1.53 9.63-32.81 23.81-43.81 17.52-18.85-10.78-21.75-26.79-16.36-40.54 2.75-7 9.94-25.16 19.12-17.61 13.59 11.17 13.77 7.22 23.37 9 3.5.63-.4 5.14 1.45 7.11 2.73 2.88 6.41 3.07 6.85 4.23Z" class="colorf79c7f svgShape"></path><path fill="#5e121d" d="M253.33 420.94c-8.45-8.51-15.31-28.25 1.81-37.17 2.93-13.26 9-13.36 16.2-16.74s13 .15 11.67 9-12.93 18.39-12.79 23.46 2.11 13.4 11.56 16.36c-3.81 1.41-5.57 3.25-3.67 6.7s15.23 6.23 15.89 1.45c8.88 6.77 7.9 9.45 7.76 9.59-4.8 4.79-1.27-1.69-16.64-2s-31.79-10.65-31.79-10.65Z" class="color5e1512 svgShape"></path><path fill="#4c7b72" d="M725 563.85s4.74 8.55 17.53 9.37c4.83-13.29 17.15-43.19 18.13-47.34-7.3-1.78-27.49 22.91-27.84 23.6.46 11.36-7.82 14.37-7.82 14.37Z" class="color4c4f7b svgShape"></path><path fill="#f66c80" d="M545.91 474.94A24.27 24.27 0 0 0 531 462.26c-8.1-2.53-18.31-1.32-25 4.11h-.73c-2 0-4 .18-6 .36s-3.85.43-5.72.71-3.71.58-5.53.91c-3.64.65-7.18 1.4-10.68 2.13s-6.93 1.5-10.31 2.22q-2.55.54-5.05 1l-5 1c-3.27.62-6.5 1.15-9.63 1.53-1.56.2-3.1.35-4.61.47s-3 .21-4.39.24a39.05 39.05 0 0 1-7.71-.51c-.56-.1-1.08-.22-1.58-.35-.26-.05-.48-.14-.72-.2l-.74-.22c-.48-.13-1.05-.34-1.59-.51l-.85-.31c-.29-.11-.57-.2-.88-.33a78.05 78.05 0 0 1-7.61-3.5c-2.63-1.36-5.34-2.84-8-4.46s-5.4-3.33-8.12-5.07-5.42-3.59-8.1-5.47-5.39-3.77-8-5.72c-5.35-3.86-10.6-7.92-15.76-11.89l-.47-.36-.09-.08a20.61 20.61 0 0 0-24.77 32.94q2.25 1.69 4.52 3.35t4.6 3.21c3.07 2.1 6.17 4.17 9.31 6.17s6.35 3.92 9.59 5.8 6.56 3.69 9.92 5.45 6.81 3.43 10.35 5 7.18 3.13 11 4.52a110.56 110.56 0 0 0 12.18 3.67c.52.13 1.1.24 1.66.36s1.11.24 1.69.35c1.19.2 2.32.42 3.58.56.62.08 1.22.17 1.85.22s1.28.11 1.89.14c1.25.07 2.48.09 3.67.08a73.6 73.6 0 0 0 13.34-1.43q3.11-.6 6-1.37c2-.51 3.86-1.07 5.72-1.66a216.85 216.85 0 0 0 20.94-7.95c6.61-2.82 13-5.75 19.16-8.36 3.08-1.32 6.13-2.56 9.07-3.58 1.47-.52 2.92-1 4.31-1.36l1.08-.29a12.62 12.62 0 0 0 6.67 2.54c5.26.62 11.25-8.57 18-7.33 9.61 1.82 12.78-3.24 12.45-4.05Z" data-name="SVGID" class="colorf68e6c svgShape"></path><path d="M545.94 476.17c-5 2.86-17.85-4.63-24.27-3.56s-10.71 5.71-13.21 2.85-25 11.42-32.82 15-27.24 20.21-51.74 16.41-25.68-16.77-25.68-16.77l-7.5 29.26 71.72 6.42 69.93-30.33Z" style="mix-blend-mode:multiply" fill="#aee7da" clip-path="url(#h)" opacity=".61" class="coloraec5e7 svgShape"></path><path fill="#f81d3d" d="M419.4 469.7c-13.16-10-49.44-36.9-58.93-37.61-11.65-.89-17.67 2.37-21.31 5.67-8.23 7.47-8.58 23.19 4.22 35.27 10.73 10.13 43.54 28.07 53.84 33.59-1.21 2.11-1.93 3.62-1.86 4.16.36 2.86 10.35 9.64 13.2 7.5a13 13 0 0 1 5.35-2.5s-1.07 6.06 3.57 6.78a23.44 23.44 0 0 0 7.85 0l7.14-48.56c-2.54-4.2-9.55-6.64-13.07-4.3Z" data-name="SVGID" class="colorf8991d svgShape"></path><path d="M430 499.72c-6.07 7.14-11.77 2.5-14.27 2.14s-10.7 5.36-12.49 1.79 0-8.21 0-8.21-62.11-25-65.65-31.75a72.06 72.06 0 0 0-7.85-11.78s10.35 49.95 11.06 49.6 67.08 30.68 67.08 30.68l27.47-1.43Z" style="mix-blend-mode:multiply" fill="#aee7da" clip-path="url(#i)" opacity=".61" class="coloraec5e7 svgShape"></path><path fill="#cf5567" d="M442.81 478.33a1.08 1.08 0 0 1-.2-2.15c1.35-.26 4-.82 7.37-1.53 15.25-3.22 46.73-9.86 55.69-9.22 6.88-4.79 17.35-6.61 22.28-5 4.72 1.52 8 2.76 8 2.78a1.08 1.08 0 1 1-.76 2s-3.28-1.23-8-2.74c-4.33-1.4-14.52.5-20.68 4.95l-.34.24h-.41c-8-.86-40 5.9-55.42 9.15-3.38.72-6.05 1.28-7.41 1.54Z" class="colorcf7455 svgShape"></path><path fill="#973342" d="M451.2 507.37a1.08 1.08 0 0 1-.21-2.15c9.21-1.77 29.49-10.49 42.9-16.25 7.41-3.19 12.77-5.49 14.65-6l.45-.12.39.24c.05 0 4.44 2.66 7.85 2 1.81-.34 4.28-2.11 6.46-3.66s4.26-3 5.84-3.21a36.44 36.44 0 0 1 4.8 0 24.17 24.17 0 0 0 5.19-.09c2.4-.58 5.14-2.26 5.35-3.27.13-.69-1.16-2.42-2.41-3.54a1.09 1.09 0 0 1 1.45-1.62c.59.54 3.53 3.31 3.08 5.59-.52 2.59-4.91 4.45-7 4.94a24.4 24.4 0 0 1-5.79.16 35.42 35.42 0 0 0-4.48 0c-1 .12-3 1.55-4.81 2.82-2.48 1.77-5 3.6-7.32 4-3.56.67-7.63-1.33-8.94-2.06-2.1.68-7.38 2.95-13.94 5.77-14.31 6.15-33.91 14.57-43.35 16.39Z" class="color974d33 svgShape"></path><path fill="#f81d3d" d="M355.4 424.08c-3.92-5.35-16.41-5.35-16.41-5.35s-25.33 17.48-29.26 17.48a26.41 26.41 0 0 0-7.85 1.43l4.64 11.42s7.48 2.14 17.48-5.71c7.47-5.87 18.56-13.91 23.55-14.27s7.85-5 7.85-5Z" class="colorf8991d svgShape"></path><path fill="#cf5567" d="M304.22 438.45a3.05 3.05 0 0 1-1-.15.89.89 0 1 1 .62-1.67c2.6 1 18.59-6.38 24.78-12a.89.89 0 1 1 1.19 1.32c-5.59 5.05-20.48 12.5-25.59 12.5ZM309.74 450.79a7.6 7.6 0 0 1-3.44-.75.89.89 0 1 1 .8-1.6c5.63 2.82 16.79-5.4 24.17-10.83 2.17-1.6 4.05-3 5.45-3.84 6.24-3.83 19.2-9.49 19.75-9.73a.89.89 0 1 1 .71 1.63c-.13.06-13.39 5.85-19.52 9.62-1.35.82-3.19 2.18-5.33 3.75-6.9 5.08-15.95 11.75-22.59 11.75ZM425.51 523.63A72.13 72.13 0 0 1 416 523a3.25 3.25 0 0 1-2.18-1.43 6.64 6.64 0 0 1-.84-3.84 13.82 13.82 0 0 1-7.53 1.58c-5.84-.38-10.8-7.86-10.8-8.73 0-.27 0-.57 12.93-27.15a.89.89 0 1 1 1.61.78c-4.7 9.64-11.65 24-12.68 26.34.83 1.46 4.86 6.7 9.06 7a11.47 11.47 0 0 0 7.93-2.27.91.91 0 0 1 1-.1.87.87 0 0 1 .42 1c-.18.83-.47 3.26.34 4.46a1.46 1.46 0 0 0 1 .66 62.52 62.52 0 0 0 8.42.57l5.2-36.78c.07-.39 1.45-9.05 1.82-11-.42-1.13-6.48-3.94-8.78-4.43-.89-.18-2.74.37-6.47 4.1a.89.89 0 0 1-1.26-1.26c3.54-3.54 6.11-5 8.1-4.58.85.18 10.78 3.42 10.17 6.46-.35 1.74-1.8 10.84-1.81 10.94l-5.32 37.53a.89.89 0 0 1-.82.78ZM392.9 451.29a.9.9 0 0 1-.54-.18l-.09-.06C378 440.23 366.39 433.66 360.48 433a.9.9 0 0 1 .19-1.78c8.53.95 24.14 11.94 32.68 18.4l.09.07a.89.89 0 0 1-.54 1.6ZM351.7 480.48a.92.92 0 0 1-.45-.12c-.43-.25-10.68-6.34-16-16.7s-2.44-21.15 1.7-24.89a.9.9 0 0 1 1.2 1.33c-3.09 2.79-6.65 12.32-1.31 22.74 5.07 9.91 15.2 15.92 15.3 16a.89.89 0 0 1 .32 1.22.88.88 0 0 1-.76.42Z" class="colorcf7455 svgShape"></path><path fill="#cf5567" d="M397.22 507.51a.88.88 0 0 1-.44-.12l-35.17-20.19a.89.89 0 0 1-.33-1.22.88.88 0 0 1 1.21-.33l35.18 20.2a.89.89 0 0 1 .33 1.21.9.9 0 0 1-.78.45Z" class="colorcf7455 svgShape"></path><path fill="#ffffff" d="M655.46 557.17 584.82 534l-162.45 31.72-126.21-98.17C284.6 489 321 518.73 346.85 544.78c14.27 14.37 60.88 50.7 76.34 67 6.27 2.48 22.84 29.61 22.84 29.61s10.13-4.51 25.58-10.92a15.62 15.62 0 0 1 21.52 12.79l2.85 27 134.15 10v-93.13Z" class="colorffffff svgShape"></path><path fill="#ffffff" d="M297.15 481.79h-.33c-11.46-1.09-27.75-10.4-34.84-19.91-2.9-3.89-4-7.51-3.4-10.76a3.38 3.38 0 0 1 6.64 1.31c-.25 1.24.55 3.21 2.18 5.4 6 8.09 20.36 16.3 30.07 17.22a3.39 3.39 0 0 1-.32 6.76Z" class="colorffffff svgShape"></path><path fill="#ef405a" d="m746 598.54-39.77-13.92-39.72-14-39.73-14-39.71-13.91-4.9-1.71-.75-.26-.36-.13-.19-.06h-.09l.42.1a10.51 10.51 0 0 0 1.94.25h1.15c.08 0 0 0 0 0h-.2l-.45.06-.51.08c-1.49.23-3.18.53-4.84.83l-5.07 1c-6.8 1.31-13.66 2.69-20.52 4.08q-20.56 4.18-41.18 8.53-41.19 8.64-82.36 17.5a12.56 12.56 0 0 1-10.49-2.4l-.14-.11-30.1-23.89-30-24-30-24-15-12-7.5-6c-2.47-2-5.12-3.86-7.14-6.45a12.82 12.82 0 0 1 15.63-19.46c3 1.42 5.31 3.61 7.83 5.59l7.49 6 15 12.05 29.93 24.11 29.94 24.1 29.82 24.24-10.63-2.51c13.44-4.4 27-8.21 40.59-11.86l10.21-2.69 10.2-2.7c3.42-.84 6.83-1.72 10.25-2.52l10.28-2.4c3.42-.78 6.84-1.61 10.28-2.36l5.16-1.1 2.58-.55 2.6-.5 5.19-1c1.73-.33 3.47-.59 5.21-.89 3.47-.61 7-1.12 10.45-1.65l21.07-3c1.76-.26 3.55-.5 5.34-.78s3.61-.54 5.65-.8l1.7-.21 1.21-.11c.36 0 .71-.05 1.07-.06h1.37a18.09 18.09 0 0 1 2.65.32 4.07 4.07 0 0 1 .67.16h.11l.24.08.46.15.93.3 1.84.62 5 1.81 9.94 3.63 9.95 3.51c6.62 2.36 13.28 4.61 19.92 6.91l10 3.43q5 1.71 10 3.47l9.88 3.54 9.87 3.68q19.74 7.36 39.06 16a148.87 148.87 0 0 1 18.78 10.1c3 2 6 4 8.93 6.33 1.46 1.15 2.9 2.33 4.32 3.59s2.81 2.59 4.16 4l2.44 2.63a6.92 6.92 0 0 1-7.36 11.21Z" class="coloref4050 svgShape"></path><path fill="#ffffff" d="M241.74 436.33c1.69 13.51 23.12 21.83 27.91 21.69s8.46-4.8 8.46-4.8l-26.33-11.7Z" class="colorffffff svgShape"></path><path fill="#ef405a" d="M277.33 454.65a12.53 12.53 0 0 1-5.67-1.35l-27.23-13.63A12.69 12.69 0 1 1 255.79 417L283 430.61a12.69 12.69 0 0 1-5.69 24Z" class="coloref4050 svgShape"></path><circle cx="427.47" cy="611.76" r="34.97" fill="#ffffff" class="colorffffff svgShape"></circle><path fill="#c6ebe3" d="M426.58 639.94a26.23 26.23 0 1 1 26.23-26.22 26.25 26.25 0 0 1-26.23 26.22Zm0-50.66A24.44 24.44 0 1 0 451 613.72a24.46 24.46 0 0 0-24.42-24.44ZM485.81 621a.89.89 0 0 1-.37-1.7l101-46.38a.89.89 0 0 1 .66 0l87.77 30a.89.89 0 1 1-.58 1.69l-87.43-29.85L486.18 621a.83.83 0 0 1-.37 0ZM702.56 612a17.4 17.4 0 0 1-5.1-.6.89.89 0 0 1 .56-1.69c2.4.8 11.76 1.1 18.68-2.93a14.39 14.39 0 0 0 7.28-10 .89.89 0 1 1 1.75.34 16.12 16.12 0 0 1-8.13 11.15C712.91 611 707 612 702.56 612Z" class="colorebcbc6 svgShape"></path><path fill="#c6ebe3" d="M588.56 625.31a.75.75 0 0 1-.21 0 .89.89 0 0 1-.65-1.08l8.92-36a.89.89 0 1 1 1.73.43l-8.92 36a.89.89 0 0 1-.87.65ZM548.6 699.53h-.1a.89.89 0 0 1-.78-1l12.13-101.69a.89.89 0 0 1 1.77.21l-12.13 101.69a.9.9 0 0 1-.89.79ZM643.15 754.47h-.08a.89.89 0 0 1-.8-1c.93-9.73-.88-17.45-5.4-22.93a23.07 23.07 0 0 0-14.1-7.84h-48.83a.9.9 0 1 1 0-1.79h49a24.37 24.37 0 0 1 15.32 8.47c4.85 5.85 6.81 14 5.82 24.26a.88.88 0 0 1-.93.83Z" class="colorebcbc6 svgShape"></path><path fill="#f67084" d="M280.23 744.72a15.88 15.88 0 0 1-2.23-2.78l-.39-.62-.32-.57-.31-.58-.27-.54a37.71 37.71 0 0 1-1.69-4c-.9-2.55-1.57-5-2.17-7.36s-1.09-4.74-1.54-7.1c-.23-1.17-.44-2.35-.64-3.53l-.29-1.78c-.09-.61-.17-1.16-.21-1.86a8.93 8.93 0 0 1 17.71-2.05v.28c.08.43.13 1 .18 1.51l.13 1.6c.09 1.07.2 2.13.32 3.2.23 2.12.51 4.23.85 6.28s.73 4 1.2 5.81a23 23 0 0 0 .73 2.31l.08.24.08.18.07.18a.31.31 0 0 1 .05.1c.07.18 0 .1-.19-.07a7.91 7.91 0 1 1-11.19 11.18ZM206.64 742.4a28.59 28.59 0 0 1-2.46-8.39 47.17 47.17 0 0 1-.42-7.48 69.66 69.66 0 0 1 .49-7c.13-1.15.29-2.28.47-3.43.09-.56.2-1.14.3-1.71a15.82 15.82 0 0 1 .45-1.85 8.91 8.91 0 0 1 17.35 3.78l-.12.82a10 10 0 0 1-.27 1.15c-.11.43-.23.86-.34 1.3-.22.87-.42 1.75-.6 2.63a52.93 52.93 0 0 0-.83 5.23 32.24 32.24 0 0 0-.18 4.82 15.07 15.07 0 0 0 .52 3.52l.28.9a7.88 7.88 0 0 1-14.64 5.73Z" class="colorf69070 svgShape"></path><path fill="#778582" d="M273 732.35s-6.06 10-2.83 21.41c.16-.18 54-.25 59.43-.18.25-8.72-35.72-18.48-36.66-18.71-13.94 3.4-19.94-2.52-19.94-2.52ZM202 732.35s-6.07 10-2.83 21.41c.15-.18 54-.25 59.43-.18.25-8.72-35.72-18.48-36.67-18.71-13.93 3.4-19.93-2.52-19.93-2.52Z" class="color857782 svgShape"></path><path fill="#29ccad" d="m237.91 550.31-1.51-1.18-75.91-59.44a33.77 33.77 0 0 0-6.59-4 32.05 32.05 0 1 0-26.35 58.44l76.86 34.65c-.14 1.57-.26 3.14-.39 4.72-.5 6.18-.91 12.36-1.31 18.55-.77 12.38-1.35 24.77-1.82 37.17l-.33 9.3-.27 9.3c-.18 6.21-.31 12.41-.43 18.62s-.18 12.42-.25 18.63l-.06 9.32v8.16c-.06.19.18.4 1.11.66l.76.2 1 .22.33.06.36.07.73.12.74.13 1 .14a140.42 140.42 0 0 0 19.24 1.39H228l1.06-.07.79-.09c1-.12 1.22-.29 1.19-.49l.16-1.16.33-2.3.66-4.62 1.28-9.23q1.25-9.24 2.43-18.47c.78-6.16 1.55-12.32 2.26-18.49l1.08-9.24 1-9.26c1.31-12.33 2.52-24.68 3.54-37 .5-6.18 1-12.36 1.38-18.55s.76-12.37 1-18.57a21.64 21.64 0 0 0-8.25-17.69Z" data-name="SVGID" class="color4b75ba svgShape"></path><path d="M195.2 628.17c12.49-31.76 32.83-41.39 43.53-25.33s0 72.78-11.06 82.77-17.84 20-30 0-12.85 34.61-12.85 34.61h54.24l19.62-170.55-48.88-12.84-25 23.35Z" style="mix-blend-mode:multiply" fill="#aee7da" clip-path="url(#j)" opacity=".61" class="coloraec5e7 svgShape"></path><path fill="#b5c6c2" d="M70.28 456.91h16.87v92.94H70.28zM131.82 560.18h16.92v120.06h-16.92z" class="colorb9b5c6 svgShape"></path><path fill="#b5c6c2" d="M221.71 733.82a3.62 3.62 0 0 1-3.62-3.61v-14.27c-6.93-5.48-40.68-30.76-73.69-32.09a3.61 3.61 0 1 1 .3-7.22c39.32 1.59 77.71 33.45 79.33 34.81l1.29 1.08v17.69a3.61 3.61 0 0 1-3.61 3.61Z" class="colorb9b5c6 svgShape"></path><path fill="#b5c6c2" d="M67.88 733.82a3.62 3.62 0 0 1-3.62-3.61v-17.69l1.29-1.08c1.62-1.36 40-33.22 79.34-34.81a3.61 3.61 0 0 1 .29 7.22c-33 1.33-66.75 26.61-73.69 32.09v14.27a3.61 3.61 0 0 1-3.61 3.61Z" class="colorb9b5c6 svgShape"></path><path fill="#b5c6c2" d="M120.16 733.82a3.61 3.61 0 0 1-3.61-3.61V713.59c.23-1.36 6-33.37 27.85-36.92a3.61 3.61 0 1 1 1.16 7.13c-15.89 2.59-21.26 27.78-21.84 30.74v15.67a3.61 3.61 0 0 1-3.56 3.61Z" class="colorb9b5c6 svgShape"></path><circle cx="120.16" cy="742.35" r="11.28" fill="#b5c6c2" class="colorb9b5c6 svgShape"></circle><circle cx="70.25" cy="742.35" r="11.28" fill="#b5c6c2" class="colorb9b5c6 svgShape"></circle><circle cx="221.71" cy="742.35" r="11.28" fill="#b5c6c2" class="colorb9b5c6 svgShape"></circle><rect width="152" height="43.46" x="68.02" y="530.49" fill="#ef405a" rx="21.73" class="coloref4050 svgShape"></rect><path fill="#29ccad" d="M295.71 657.46v-9.72l-.1-9.71-.11-9.71c0-3.24 0-6.48-.13-9.71l-.43-19.4c-.41-12.92-.79-25.84-1.61-38.7a28 28 0 0 0-14.05-22.37l-1.58-.89-108.43-61-3.17-1.78a33.82 33.82 0 0 0-3.37-1.63 33 33 0 0 0-45.35 35.27H108l-15.17-.18c-2.14 10.7 0 22.83 16.41 31 6.66 3.33 81.65 20.92 102.76 25.84l32 13.34c1.08 8.92 2.3 17.82 3.51 26.72l2.8 19.12c.45 3.18 1 6.36 1.48 9.54l1.52 9.55 1.51 9.54 1.6 9.54.79 4.76.83 4.77 1.65 9.53 3.41 19 1.77 9.51.88 4.76.45 2.38a1.45 1.45 0 0 0 .16.59 1.8 1.8 0 0 0 .75.52 8.22 8.22 0 0 0 1.56.42h.56l.6.08.73.07h1.21a53.69 53.69 0 0 0 18.8-2.31l.8-.25.68-.23.56-.22.28-.11.24-.1a7.74 7.74 0 0 0 1.41-.78 1.75 1.75 0 0 0 .63-.68 1.65 1.65 0 0 0 .07-.62v-2.43l.08-4.87.14-9.74.17-19.47V657.25Z" data-name="SVGID" class="color4b75ba svgShape"></path><g clip-path="url(#k)" fill="#000000" class="color000000 svgShape"><path d="M248.72 650.29c8.92 28.54 26.76 49.24 37.11 47.81s13.55-74.21 13.55-74.21L311.16 727l-62.44-1.07Z" style="mix-blend-mode:multiply" fill="#aee7da" opacity=".61" class="coloraec5e7 svgShape"></path><path d="M177.39 502.93c-11.8 10-21.08 19.63-29.28 23.55s-2.15 17.49 3.21 20 15.34 13.2 15.34 13.2-52.09-2.85-52.09-4.63-25.34-26.76-25.69-27.12 1.78-28.19 2.14-28.54 54.59-6.07 54.59-6.07Z" style="mix-blend-mode:multiply" fill="#aee7da" opacity=".36" class="coloraec5e7 svgShape"></path></g><path fill="#ccf0e8" d="M137 345.23c6.33-33.62 35.12-45.61 54.41-38.61 15.05 5.46 25.74 12.76 34.44 24 13.38 17.27 27.48 53.7 28.18 71 1.17 28.54-17.64 23.17-30.33 40.67s-26 31.93-29.25 38.89c-2.48 5.24 2 7.39 2.85 10 1.69 5-3.38 6.87-7.85 9.63-22.77 14.09-52.08 23.07-59.58 23.19-23.58.4-48.52-12.48-48.52-12.48s4.07-6.32 7.49-20c5-20 20-36.56 20-36.56Z" class="colorccdbf0 svgShape"></path><path d="M203.05 370.92c-9.28 20.7-9.63 52.09-9.28 63.15h12.49s-3.21 18.56 2.86 27.48c3.56-4.64 14.62-19.27 14.62-19.27l14.63-50.66S222 368.07 221.6 368.07s-18.55 2.85-18.55 2.85Z" style="mix-blend-mode:multiply" fill="#aee7da" opacity=".24" class="coloraec5e7 svgShape"></path><path fill="#3d6e65" d="M267.17 300.4a11 11 0 0 1-10.16-8 6.56 6.56 0 0 1 6.65-8.45 11 11 0 0 1 10.16 8 6.56 6.56 0 0 1-6.65 8.45Zm-3.54-14.5a4.59 4.59 0 0 0-4.72 6 9 9 0 0 0 8.24 6.52 4.59 4.59 0 0 0 4.74-6 9 9 0 0 0-8.24-6.52Z" class="color3d406e svgShape"></path><path fill="#f66c80" d="M263 297.78c-13.34 16.07-29.25 25.33-37.1 19.27-11.24-8.69-19.31-35-6.38-51.43s32.45-22.57 43.61-13.77 15.56 27.02-.13 45.93Z" class="colorf68e6c svgShape"></path><path fill="#cf5567" d="M231.77 319.76a12.37 12.37 0 0 1-6.42-1.77 1.09 1.09 0 0 1-.41-1.48 1.08 1.08 0 0 1 1.48-.4c1.91 1.08 5.45 3.11 14.72-1 8.93-3.92 27.23-27.42 27.42-27.66a1.08 1.08 0 1 1 1.71 1.33c-.76 1-18.83 24.17-28.26 28.32-4.38 1.95-7.65 2.66-10.24 2.66Z" class="colorcf7455 svgShape"></path><path fill="#f66c80" d="m193.74 309 13.67-23.69a14.17 14.17 0 0 1 26.1 10.16l-1 4.34a66.54 66.54 0 0 1-2 6.74c-.4 1.08-.78 2.18-1.2 3.25L228 313c-.44 1.07-.93 2.1-1.39 3.15s-.93 2.09-1.44 3.11-1 2.05-1.53 3.07c-.28.49-.42 1.07-1 1.41a4 4 0 0 1-2.78.37L200 321.58a8.45 8.45 0 0 1-6.26-12.6Z" class="colorf68e6c svgShape"></path><path fill="#5e121d" d="M268.41 243.83c-18.28-9-30.56-9.32-46-2.38-9.43 4.25-26.8 8.35-20.06 57.46-.34 4.81 13.83 10.58 14.67 10.89 11.61 4.16 26-3.73 25.22-7.61s7.81-21.46 12.38-15.82.58 9.18 4.85 2 6.8-12.09 15.81-8.71c16.67 1.43 14.39-20.14 12.56-23.62-5.54-10.53-19.43-12.21-19.43-12.21Z" class="color5e1512 svgShape"></path><path fill="#5e121d" d="M244.24 238.92c12.69-32.48-22.8-43.72-43.33-28.55s-7.52 34.74-2.5 38.89 35.82-3 35.82-3Z" class="color5e1512 svgShape"></path><path fill="#f66c80" d="M297.65 427.56a2.48 2.48 0 0 0-.26.19c-.84.63-1.66 1.26-2.47 1.9-3.22 2.55-6.14 5.16-9 7.71l-8.1 7.43c-2.61 2.37-5.19 4.56-7.66 6.41a40.16 40.16 0 0 1-3.6 2.4 20 20 0 0 1-3.17 1.53 5.91 5.91 0 0 1-2.17.42c-.49 0-.67-.2-.74-.36a1.64 1.64 0 0 0-.32-.62c-.11-.15-.26-.33-.45-.56l-.31-.38-.17-.21-.13-.17a18.86 18.86 0 0 1-1.28-1.93 27.12 27.12 0 0 1-1.48-3 52.81 52.81 0 0 1-2.6-8c-.74-3-1.36-6.17-1.9-9.46-1-6.6-1.84-13.56-2.72-20.65s-1.83-14.32-3-21.66a64.06 64.06 0 0 0-2.92-10.93 49.63 49.63 0 0 0-2.34-5.39 32.55 32.55 0 0 0-3.25-5.28 18.68 18.68 0 0 0-32.38 5.32l-.16.45a32 32 0 0 0-1.34 5.77 49.75 49.75 0 0 0-.51 5.67 63.74 63.74 0 0 0 .65 11.21c1.19 7.43 2.67 14.94 4.56 22.55a206.79 206.79 0 0 0 7.2 23.08c1.49 3.91 3.11 7.86 5 11.87a97.86 97.86 0 0 0 6.85 12.27 61.41 61.41 0 0 0 4.76 6.31 44.86 44.86 0 0 0 6.45 6.16c.31.24.63.49.95.72l.94.64c.64.42 1.3.83 2 1.23a36.52 36.52 0 0 0 4.43 2.19 34.17 34.17 0 0 0 5 1.64 31.07 31.07 0 0 0 10.79.67 32.07 32.07 0 0 0 5-1 36.82 36.82 0 0 0 8.31-3.49 48.5 48.5 0 0 0 6.37-4.34c1.89-1.51 3.59-3 5.17-4.58a109.75 109.75 0 0 0 8.39-9.26c2.53-3.06 4.82-6.13 7-9.11s4.32-5.91 6.38-8.65c.55-.71 1.09-1.41 1.63-2.09-4.68-4.61-9.05-9.57-13.4-14.62Z" class="colorf68e6c svgShape"></path><path fill="#5debcb" d="M325.43 411.24c-9 1.2-29.86 14.33-30.81 15.13 5.34 7.11 10.79 14.1 16.67 20.54.6-.87 6.61-11 7-11.41 0 0-1-.41 12.85-1.43 3.28-.24 13-5.53 13.74-10.17s-8.75-14.09-19.45-12.66Z" class="color7ea3d6 svgShape"></path><path d="M254.07 432.29c-13.56-12.49-32.82-10.7-38.53 1.43-4.89 10.39 17.12 44.6 43.88 42.1s57-36.39 57-36.39L291.54 494s-55 11.07-56 10-27.47-33.53-27.47-37.46v-55.3l41.38-4.64 12.85 13.92Z" style="mix-blend-mode:multiply" fill="#aee7da" clip-path="url(#l)" opacity=".36" class="coloraec5e7 svgShape"></path><path d="M156.67 448.35c7.85 5.7 9.27 16.76 6.06 23.54s-71 11.06-71 11.06 8.21-15.69 10.35-19.62 21.76-15 21.76-15Z" style="mix-blend-mode:multiply" fill="#aee7da" opacity=".61" class="coloraec5e7 svgShape"></path><path fill="#ef405a" d="M72.19 439.43H143a17.2 17.2 0 0 1 17.2 17.2 9.91 9.91 0 0 1-9.91 9.91H64.9a9.91 9.91 0 0 1-9.9-9.91 17.2 17.2 0 0 1 17.2-17.2Z" class="coloref4050 svgShape"></path><path fill="#3d6e65" d="M273.34 297a1 1 0 0 1-.59-.2L256 284.3a1 1 0 1 1 1.18-1.59l16.77 12.49a1 1 0 0 1 .21 1.39 1 1 0 0 1-.82.41Z" class="color3d406e svgShape"></path><path fill="#39ac96" d="M242.48 573.58a.88.88 0 0 1-.7-.34.9.9 0 0 1-.09-1 66.41 66.41 0 0 1 5.08-8 .89.89 0 1 1 1.41 1.09 57.21 57.21 0 0 0-3.89 5.92l7.6-2a.89.89 0 1 1 .44 1.72l-9.63 2.5a.83.83 0 0 1-.22.11Z" class="color3960ac svgShape"></path><path fill="#39ac96" d="M254.25 651.36a.9.9 0 0 1-.88-.76l-11.78-77.78a.9.9 0 0 1 1.77-.27l11.77 77.78a.89.89 0 0 1-.75 1Z" class="color3960ac svgShape"></path><path fill="#39ac96" d="M241.76 573.58a.76.76 0 0 1-.21 0l-52.09-12.84a.89.89 0 1 1 .43-1.73L242 571.82a.89.89 0 0 1-.22 1.76Z" class="color3960ac svgShape"></path><path fill="#29ccad" d="M181.47 497.58a.87.87 0 0 1-.74-.39.89.89 0 0 1 .27-1.19l13.25-9.06a2.2 2.2 0 0 0-.88-2.53l-20.97-3.61a.88.88 0 0 1-.73-1 .89.89 0 0 1 1-.73l21.15 3.6a.82.82 0 0 1 .36.15c2.14 1.5 2 3.26 1.7 4.79a.93.93 0 0 1-.37.57L182 497.43a.94.94 0 0 1-.53.15ZM129.57 524.55c-7.3 0-34-3.42-39.23-6.39-5.63-3.2-9.62-6.09-9.66-6.12a.89.89 0 0 1-.19-1.25.88.88 0 0 1 1.24-.19s4 2.86 9.49 6 35.65 6.66 39.45 6.11a.89.89 0 1 1 .25 1.77 11.47 11.47 0 0 1-1.35.07Z" class="color4b75ba svgShape"></path><path fill="#f66c80" d="M194.31 308c-8.21-1.07-16.41 2.5-12.84 9.27s18.42 13.09 22.65 13.74c13.92 2.14 17.84 0 20.7-.36s-3.93-12.84-15.25-16.41c-4.4-1.44-15.26-6.24-15.26-6.24Z" class="colorf68e6c svgShape"></path><path fill="#39ac96" d="M215 584.64a.85.85 0 0 1-.38-.09l-10.35-5a.9.9 0 0 1 .18-1.68l7.49-1.78a.89.89 0 0 1 1.08.66.9.9 0 0 1-.66 1.08L207.3 579l8.09 3.9a.9.9 0 0 1 .42 1.2.92.92 0 0 1-.81.54Z" class="color3960ac svgShape"></path><path fill="#39ac96" d="M200 678.83a.88.88 0 0 1-.85-.93l4.64-99.19a.89.89 0 0 1 1.78.08L200.91 678a.89.89 0 0 1-.91.83ZM274.47 719.56a41.5 41.5 0 0 1-8.27-.78.9.9 0 0 1-.68-.66c-2.48-9.56-5-26-5-26.13a.9.9 0 0 1 1.77-.27c0 .16 2.42 15.87 4.84 25.41 11.89 2.23 25.12-2 28-3.07v-44c0-1-.73-97.83-2.49-109.76-1.64-11.21-9.8-19.78-14.55-22.55-4.22-2.46-60.42-32.86-61-33.17a.88.88 0 0 1-.36-1.21.9.9 0 0 1 1.21-.36c2.31 1.25 56.79 30.72 61 33.2 5 2.94 13.68 12 15.42 23.83 1.77 12 2.48 106 2.51 110v44.61a.89.89 0 0 1-.57.83 67.8 67.8 0 0 1-21.83 4.08Z" class="color3960ac svgShape"></path><path fill="#aee7da" d="M222.32 354.54c-12.11-.75-24.62 11.6-24.26 31.82a175.5 175.5 0 0 0 5.35 38.44l50.66-9.28s-2.85-37.78-11.06-48-15.34-12.65-20.69-12.98Z" class="coloraec5e7 svgShape"></path><path d="M205.21 362c-5.37 17.45 3.19 43.5 7.83 50.64s8.21 9.63 8.21 9.63l-17.84 2.5s-4.74-23.52-5-31.39 1-18.89 2.48-22.3 4.32-9.08 4.32-9.08Z" style="mix-blend-mode:multiply" fill="#aee7da" opacity=".36" class="coloraec5e7 svgShape"></path><path fill="#29ccad" d="M202.87 342h-.07c-.57 0-14.24-1.16-24-7.27a20.48 20.48 0 0 1-9.38-14.55 14.83 14.83 0 0 1 3.5-12.15.89.89 0 1 1 1.29 1.22 13.08 13.08 0 0 0-3 10.71 18.68 18.68 0 0 0 8.56 13.26c9.34 5.88 23 7 23.14 7a.89.89 0 0 1-.07 1.78ZM238.91 353.08a.89.89 0 0 1-.83-.57c-3.92-10.17-15-10.94-21.23-10.49a.9.9 0 0 1-.95-.83.88.88 0 0 1 .82-.95c11.64-.83 19.81 3.3 23 11.63a.88.88 0 0 1-.51 1.15.91.91 0 0 1-.3.06ZM202.87 425.51a.86.86 0 0 1-.51-.16 1 1 0 0 1-.37-.58l-2.49-14.23a.89.89 0 0 1 1.76-.31l2.34 13.35 50.13-9.12a.89.89 0 0 1 .32 1.76l-51 9.28ZM212.86 407.67a.89.89 0 0 1-.14-1.77c8-1.28 33.59-5.53 38.63-6.37l-.46-3.12c-1.77-14.24-4.73-38.05-29.58-41.19a14.5 14.5 0 0 0-11.61 3.15c-9.6 7.88-10.92 27.22-10.93 27.41a.89.89 0 1 1-1.78-.11c0-.82 1.38-20.3 11.57-28.68a16.3 16.3 0 0 1 13-3.54c26.22 3.32 29.4 28.95 31.11 42.72l.6 4a.9.9 0 0 1-.74 1c-.31.05-30.69 5.1-39.51 6.51Z" class="color4b75ba svgShape"></path><path fill="#cf5567" d="M257.33 485.57c-7.67 0-15.3-1.86-19.77-6.89C229 469 216.3 446.24 214 439.6a1.08 1.08 0 0 1 2.05-.71c2.28 6.5 14.7 28.83 23.16 38.35 8.18 9.2 29.47 6.63 37.9 1.74 8.59-5 22.74-23.25 25-26.6.16-.23.35-.53.58-.88.92-1.41 2.46-3.77 4.32-6.27a1.09 1.09 0 1 1 1.74 1.3c-1.82 2.44-3.34 4.76-4.24 6.15-.24.36-.43.66-.6.9-2.37 3.57-16.64 22-25.69 27.28-4.57 2.61-12.75 4.71-20.89 4.71Z" class="colorcf7455 svgShape"></path><path fill="#29ccad" d="M311.26 448.79 293.9 426.9a1.09 1.09 0 0 1 1.7-1.35L311.05 445l6.56-10.48.42-.11c.16 0 1.74-.4 9.92-1.22s16-7 15.88-10.06-6.05-7.4-10.29-9.34c-7.69-3.53-15.4-1.71-22.92 5.4a1.09 1.09 0 0 1-1.53 0 1.1 1.1 0 0 1 0-1.54c8.11-7.66 16.86-9.66 25.31-5.79 3.16 1.44 11.37 6.28 11.56 11.23s-9.49 11.46-17.83 12.3c-6 .6-8.36.94-9.21 1.09Z" class="color4b75ba svgShape"></path><path fill="#97aba6" d="M223.3 754.87a10 10 0 0 1-4.44-1 .89.89 0 0 1 .85-1.57 8 8 0 0 0 5.91.44c2.31-.81 4.18-2.87 5.58-6.12 4.12-9.64-6.14-14.47-6.58-14.67a.88.88 0 0 1-.52-.78c0-.53-.34-12.84 0-18-6.31-10-45.09-27.78-45.48-28a.89.89 0 1 1 .74-1.62c1.64.75 40.29 18.43 46.42 28.9a.87.87 0 0 1 .12.52c-.31 4.33-.07 15.08 0 17.58 2.28 1.23 11.2 6.82 7 16.73-1.6 3.74-3.83 6.13-6.64 7.11a8.79 8.79 0 0 1-2.96.48ZM109 743.41a.9.9 0 0 1-.87-.67c-1.39-5.58 5.9-10.85 7.81-12.12-.06-2.56-.31-13.92 0-17.79.34-4.14 7.76-24.89 16-31.77a.89.89 0 0 1 1.26.11.9.9 0 0 1-.11 1.26c-7.77 6.47-15.07 26.69-15.4 30.55-.34 4.18 0 18 0 18.1a.88.88 0 0 1-.43.78c-.08.06-8.7 5.44-7.45 10.44a.9.9 0 0 1-.65 1.09ZM132.58 660.64a.89.89 0 0 1-.89-.9v-86a.9.9 0 0 1 1.79 0v86a.9.9 0 0 1-.9.9ZM548.6 755.19H342.73a.9.9 0 0 1 0-1.79H548.6a.9.9 0 1 1 0 1.79Z" class="colorab97a6 svgShape"></path><path fill="#97aba6" d="M329.53 754.47H167.91a.89.89 0 1 1 0-1.78h161.62a.89.89 0 1 1 0 1.78ZM145.07 754.83H46.6a.9.9 0 0 1 0-1.79h98.47a.9.9 0 0 1 0 1.79ZM28.4 754.83h-16a.9.9 0 1 1 0-1.79h16a.9.9 0 0 1 0 1.79ZM666.7 755.19h-78.85a.9.9 0 0 1 0-1.79h78.85a.9.9 0 0 1 0 1.79Z" class="colorab97a6 svgShape"></path></g></g></svg>