<svg xmlns="http://www.w3.org/2000/svg" viewBox="0 0 800 800" id="Dentistexaminingpatient"><defs><clipPath id="a"><path fill="none" d="M427.38 276.89c-1.42 1.69-2.9 3.31-4.42 4.86-.77.77-1.53 1.55-2.32 2.28s-1.57 1.49-2.37 2.2c-3.19 2.89-6.5 5.56-9.88 8.12s-6.85 4.95-10.36 7.26-7.11 4.48-10.73 6.59-7.31 4.11-11.05 6-7.52 3.75-11.37 5.49-7.78 3.38-11.82 4.9c-1 .38-2 .76-3.05 1.12l-1.55.55-1.56.52c-1 .36-2.12.69-3.19 1l-1 .28-1.08.29c-.7.16-1.41.34-2.09.47a65.14 65.14 0 0 1-7.81 1.11c-2.49.22-4.88.31-7.23.34-4.68.06-9.16-.14-13.54-.52a253.1 253.1 0 0 1-25.45-3.58c-8.28-1.54-16.39-3.4-24.43-5.43s-16-4.3-23.84-6.83h-.06a20.2 20.2 0 0 1 12.37-38.45c.26.09.6.2.85.3 14.49 5.38 29.12 10.66 43.67 15.11C297.71 292 301.35 293 305 294s7.19 1.86 10.73 2.61 7 1.4 10.31 1.83c1.66.22 3.26.38 4.77.47s2.93.11 4.13.06l.86-.05h.38a2.57 2.57 0 0 0 .47-.05c.87-.16 1.74-.3 2.63-.48l1.32-.26 1.34-.29c.89-.18 1.79-.4 2.69-.6 3.6-.84 7.25-1.8 10.88-2.86s7.29-2.17 10.91-3.39l2.71-.93 2.71-1 2.7-1 2.69-1c3.58-1.36 7.13-2.81 10.64-4.32s7-3.09 10.37-4.78a127.36 127.36 0 0 0 19.22-11.42l.2-.15a7.21 7.21 0 0 1 9.77 10.46Z"></path></clipPath><clipPath id="b"><path fill="#ffffff" d="M220.34 289.33c-1.61 13 8.43 34.84 69.07 44.31 11-6.8 10.93-44.23 10.93-44.23s-52.62-19.52-64.79-17.53-14.03 7.98-15.21 17.45Z" data-name="SVGID" class="colorffffff svgShape"></path></clipPath><clipPath id="c"><path fill="#a9dbd0" d="m303.78 540.9-.14-.12-62.41-53.1-.48-.42a31.76 31.76 0 0 0-4.42-3.1 31.23 31.23 0 0 0-46.86 25 35 35 0 0 0-7.1-3.95c-18-7.36-48.11-3.17-55.48 14.79s-2.49 44.35 28.8 50.27l9 3.67 8.45 3.47-.41 1.08-1.83 4.86-3.57 9.76c-4.67 13.05-9 26.23-13.17 39.5s-8 26.64-11.83 40.05l-2.74 10.1c-.91 3.37-1.85 6.73-2.72 10.11s-1.77 6.76-2.62 10.15l-1.3 5.09a4.27 4.27 0 0 0-.14.64 1.83 1.83 0 0 0 .11.74 5.36 5.36 0 0 0 1.17 1.89l.5.56.61.6c.48.43 1 .9 1.56 1.34l.2.17.26.2.52.38.51.39c.18.13.32.25.55.4l1.26.87 1.53 1a5.21 5.21 0 0 0 1.66.69l1.78.37 1.51.27c.27.06.45.07.67.1l.64.09.63.09H149.07l2.05.15h1.6a5.43 5.43 0 0 0 2.17-.51 1.76 1.76 0 0 0 .59-.46 4.72 4.72 0 0 0 .36-.55l2.65-4.53q2.67-4.51 5.27-9.06c1.77-3 3.46-6.06 5.19-9.1l5.15-9.1c6.74-12.21 13.43-24.43 19.77-36.79s12.57-24.78 18.42-37.34l4.34-9.45 2.11-4.75 1.06-2.37 1-2.38c2.76-6.36 5.43-12.74 7.85-19.23a22.5 22.5 0 0 0-3.51-21.9l-2.53-3.16L263.13 572l-.24 2.94-.2 2.48-.17 2.49-.34 5-.55 10c-.63 13.3-.88 26.64-.91 40s.27 26.76.67 40.17l.42 10.07.21 5q.11 2.52.24 5c.18 3.36.35 6.72.56 10.08l.3 5c0 .43 0 .84.1 1.27a1.61 1.61 0 0 0 .43.67 5 5 0 0 0 .94.72l.32.19c.12.06.22.13.37.19l.82.4 1 .42 1.23.43.61.22.31.11.38.12 1.56.47c.24.08.58.17.89.25l.94.25c.29.09.69.18 1.07.27l1.13.27h2.27l1-.06c.32 0 .68 0 .93-.06l1.63-.14h.72l.65-.09 1.29-.18 1.05-.2.88-.23a3.26 3.26 0 0 0 .4-.11l.35-.12a4.87 4.87 0 0 0 1-.52 1.5 1.5 0 0 0 .54-.57 11.07 11.07 0 0 0 .31-1.23l1.14-4.89c.77-3.26 1.49-6.53 2.23-9.8s1.43-6.54 2.15-9.8l2.07-9.82c2.63-13.09 5.2-26.2 7.35-39.34s4.16-26.31 5.74-39.52l1.11-9.91.49-5 .25-2.48.21-2.48c.58-6.63 1.06-13.26 1.25-19.93a24.27 24.27 0 0 0-8.45-19.1Z" data-name="SVGID" class="colordbb1a9 svgShape"></path></clipPath><clipPath id="d"><path fill="#daf2ed" d="M258.63 282.75c-4.58-9.11-22.88-14.09-33.07-14.23-30.19-.42-89.4 11.38-96.19 46.89-8.44 44.09 12.29 150.59 13.27 158.64s-18.24 51.8-18.24 51.8c20.73-39.37 106.18 8 143-16.16 7.29-.86-15.34-93.45-15.34-93.45s10-72.05 14.54-94.08c2.84-13.71-2.67-28.87-7.97-39.41Z" class="colorf2e1da svgShape"></path></clipPath><clipPath id="e"><path fill="none" d="m182.05 274.55 10.12-24.33a12.55 12.55 0 0 1 24 6.37L213 282.73a16.14 16.14 0 0 1-32-4 16.63 16.63 0 0 1 1.05-4.18Z" data-name="SVGID"></path></clipPath><clipPath id="f"><path fill="#f66c80" d="M242 365.9h-.09l-.13.09c-.07 0-.26.19-.43.28a8.29 8.29 0 0 0-10.42-12.89c-.37.29-.76.64-1 .89l-.4.41-.34.37c-.23.25-.39.45-.59.69l-.47.62c-.58.79-1 1.47-1.42 2.12-.78 1.3-1.4 2.48-2 3.63-1.15 2.29-2.13 4.47-3.08 6.63-1.88 4.32-3.61 8.54-5.33 12.73-3.45 8.36-6.88 16.58-10.58 24.44-1.85 3.92-3.76 7.75-5.78 11.35a77.3 77.3 0 0 1-6.34 9.78c-.54.68-1.08 1.32-1.6 1.89l-.16-.29c-.81-1.45-1.72-3.21-2.61-5-1.8-3.67-3.57-7.61-5.31-11.59-3.47-8-6.81-16.22-10.08-24.5s-6.48-16.63-9.62-25L159.54 350l-2.29-6.31-2.25-6.31-.11-.29a22.25 22.25 0 0 0-41.69 15.55l.88 2.36.61 1.64.63 1.6 1.24 3.2 2.6 6.34c.85 2.12 1.78 4.2 2.68 6.29l2.74 6.28q2.82 6.24 5.72 12.46c1 2.08 2 4.13 3 6.2s2 4.13 3 6.18l3.1 6.17 3.21 6.15 1.63 3.08 1.68 3.07q1.68 3.07 3.42 6.16c2.36 4.12 4.78 8.22 7.51 12.51 1.4 2.15 2.85 4.33 4.65 6.78l.34.46.37.49.37.48.39.51.85 1.06 1 1.18.28.32.32.35.63.69.17.17.21.22.43.43c.29.28.58.57.87.83l1.23 1 1.32 1.05a37.48 37.48 0 0 0 6.62 4 31.3 31.3 0 0 0 9.21 2.7 30 30 0 0 0 5.28.2 29.36 29.36 0 0 0 5.13-.75 30.07 30.07 0 0 0 8.39-3.43 33.2 33.2 0 0 0 3.15-2.13c.93-.72 1.81-1.45 2.58-2.17a43.29 43.29 0 0 0 4-4.27 55 55 0 0 0 5.41-8 97.76 97.76 0 0 0 6.64-14.69c1.76-4.73 3.15-9.4 4.43-14q1-3.47 1.81-6.88l.85-3.41.77-3.41c1-4.54 2-9 2.85-13.49l2.6-13.08c.41-2.12.86-4.22 1.3-6.13.21-1 .44-1.86.62-2.58a4.47 4.47 0 0 0 .16-.84.29.29 0 0 0 0-.09s-.08-.03-.08 0Z" data-name="SVGID" class="colorf68e6c svgShape"></path></clipPath><clipPath id="g"><path fill="none" d="M130.55 309.38c-14.11 1.44-26.73 16.15-12.78 85 10.41 8.34 60.1-10.25 60.1-10.25S169.17 346.81 164 331c-3.92-11.83-18-23.19-33.45-21.62Z" data-name="SVGID"></path></clipPath><clipPath id="h"><path fill="none" d="M405.27 489.78c12.1-1.53 24.2-2.75 36.32-4l18.21-1.73 18.2-1.56c3.05-.25 6.09-.52 9.13-.76l9.15-.69 18.33-1.33c6.13-.39 12.27-.79 18.5-1.12l4.72-.23 4.87-.21 2.63-.1H551.35c.9 0 1.69.1 2.42.18 1.46.16 2.68.37 3.83.59 2.26.44 4.18.94 6 1.46s3.52 1.07 5.17 1.63c3.3 1.11 6.39 2.28 9.42 3.49 6 2.41 11.83 4.92 17.53 7.53q4.28 1.95 8.49 3.95t8.37 4c5.56 2.71 11.06 5.51 16.53 8.32 11 5.6 21.75 11.43 32.49 17.34s21.35 12 31.89 18.34a7.25 7.25 0 0 1-5.75 13.12c-23.33-6.86-46.62-13.92-69.79-20.62-11.59-3.32-23.17-6.57-34.62-9.53-5.73-1.46-11.42-2.86-17-4-2.76-.58-5.49-1.11-8.06-1.53-1.29-.21-2.53-.38-3.67-.5a22.74 22.74 0 0 0-3-.17 1.83 1.83 0 0 0-.69.1s0 .07.15.1h.6-.08l-.5.16h-.12l-.23.06-.45.11-1.88.46-4.14 1-4.26 1.17c-5.76 1.47-11.6 3-17.45 4.48L505 533.81l-8.8 2.29-8.81 2.24c-23.49 6-47.07 11.91-70.67 17.26a33.45 33.45 0 0 1-14.8-65.24c1.06-.24 2.11-.43 3.16-.56Z" data-name="SVGID"></path></clipPath><clipPath id="i"><path fill="#5debcb" d="m397 486.55-13.31-2.72s-52.85 12.28-63.5 15.71-15.1 49.17 0 58.05 190.31-18.84 190.31-18.84 10.53-35.13-10.21-58.17c-2.16-2.38-103.29 5.97-103.29 5.97Z" data-name="SVGID" class="color7ea3d6 svgShape"></path></clipPath><clipPath id="j"><path fill="none" d="M498.14 462.17c-5.48-1.88-13.29 2.24-18.1 5.36-5.12-.64-10.19-1.22-15.17-1.82-7.33-.85-14.5-1.82-21.38-3.14a124.91 124.91 0 0 1-19.58-5.14l-2.27-.85c-.74-.3-1.49-.59-2.22-.9s-1.45-.62-2.16-1l-1.07-.49-.13-.06h-.05l-.1-.06-.21-.12c-.64-.38-1.55-.95-2.53-1.66s-2.07-1.56-3.17-2.49c-2.21-1.88-4.52-4.09-6.81-6.43s-4.57-4.88-6.84-7.48c-4.53-5.21-9-10.73-13.48-16.4S374 408 369.37 402c-2.33-3-4.69-6-7.28-9.13a122.71 122.71 0 0 0-4.27-4.92c-.79-.87-1.68-1.8-2.73-2.82l-.84-.79-1-.87c-.36-.31-.79-.66-1.19-1l-.35-.28-.39-.29-.79-.57a21.63 21.63 0 1 0-24.07 35.95l-.22-.17-.11-.09-.08-.07s-.1-.09-.1-.11h.08l.19.14c.32.24.75.6 1.26 1.06 1 .9 2.16 2 3.34 3.19 2.38 2.37 4.87 5 7.38 7.62s5.09 5.34 7.7 8.05 5.24 5.44 7.92 8.16 5.41 5.46 8.2 8.17 5.68 5.38 8.64 8.05 6 5.29 9.28 7.88 6.66 5.14 10.47 7.61c1.91 1.23 3.92 2.44 6.14 3.61a55.24 55.24 0 0 0 7.43 3.28l1.1.36.55.17.28.09h.2l1.59.34c1.06.24 2.11.42 3.17.62s2.11.35 3.16.52l3.14.44a154.57 154.57 0 0 0 24.44.91c7.91-.36 15.58-1.19 23.08-2.1 1.88-.22 3.74-.47 5.6-.73l5.56-.77 11-1.47.37-.05a6.9 6.9 0 0 0 2.25-.72c3.53-.33 9.45-.65 12 .54 3.69 1.76 4.35 3.32 7.57 3.09a9.8 9.8 0 0 0 5.22-1.88c-2.8-9.42-7.68-17.97-16.12-20.85Z" data-name="SVGID"></path></clipPath><clipPath id="k"><path fill="#5debcb" d="M358.82 432.4c6.07 0 22.94-13.72 20.87-22.75-10.43-16-30.95-35.62-48.94-33.4s3.11 27.53 3.11 27.53Z" data-name="SVGID" class="color7ea3d6 svgShape"></path></clipPath></defs><g style="isolation:isolate" fill="#000000" class="color000000 svgShape"><g data-name="Layer 1" fill="#000000" class="color000000 svgShape"><circle cx="400" cy="777.84" r="14.63" fill="#ffffff" transform="rotate(-71.01 400.019 777.845)" class="colorffffff svgShape"></circle><circle cx="385.52" cy="354.81" r="305.96" fill="#c6ebe3" class="colorebcbc6 svgShape"></circle><path fill="#ffffff" d="M675.63 359.24a8.27 8.27 0 0 1-6.78-3.51l-29.63-42.07a8.29 8.29 0 1 1 13.55-9.55l29.63 42.07a8.28 8.28 0 0 1-6.77 13.06ZM341.16 384.11h116.53a45.52 45.52 0 0 1 45.52 45.52v69.28H341.16v-114.8Z" class="colorffffff svgShape"></path><path fill="#ffffff" d="M433.59 400.69a79 79 0 0 1-1.15-8.62c-.12-1.43-.23-2.85-.31-4.28s-.1-2.85-.12-4.28a113 113 0 0 1 1.14-17.39 84.05 84.05 0 0 1 1.83-9 59.79 59.79 0 0 1 3.4-9.57c.37-.83.82-1.68 1.28-2.53.22-.42.51-.87.76-1.3l.72-1.2 1.27-2.08c.45-.68.9-1.35 1.37-2 .94-1.32 1.9-2.63 2.93-3.88.49-.64 1-1.26 1.56-1.86s1.06-1.21 1.62-1.79a78 78 0 0 1 14.58-12.11 93.46 93.46 0 0 1 16.26-8.31 139.36 139.36 0 0 1 33.75-8c2.8-.35 5.59-.68 8.38-.93l8.31-.72c2.76-.21 5.52-.37 8.26-.53s5.49-.32 8.21-.49l8.18-.42q4.08-.19 8.16-.29c2.71-.07 5.42-.12 8.13-.13s5.42-.06 8.12-.06c10.82 0 21.6.29 32.35.67l32.22 1.3a8.3 8.3 0 1 1-.63 16.59l-.72-.06q-7.85-1-15.71-1.64c-2.62-.2-5.25-.4-7.87-.57s-5.25-.27-7.88-.39c-10.5-.43-21-.47-31.45 0-2.61.11-5.22.2-7.83.39s-5.2.38-7.79.61c-5.19.45-10.35 1-15.48 1.71a250.15 250.15 0 0 0-30.21 5.72c-2.44.67-4.86 1.37-7.26 2.13s-4.73 1.67-7 2.58a79.78 79.78 0 0 0-13.13 6.59c-8.16 5.11-15.1 11.6-19.14 19-.27.46-.48.94-.72 1.4a13.94 13.94 0 0 0-.66 1.41c-.4.95-.74 1.93-1.07 2.88-.15.48-.3 1-.43 1.45l-.33 1.47a1.88 1.88 0 0 0-.06.32v.16a1.73 1.73 0 0 1 0 .33v.84c0 1.25-.17 3-.18 4.86s0 3.95.21 6.1c.09 1.08.19 2.16.31 3.27s.29 2.23.46 3.35c.32 2.25.8 4.54 1.33 6.8.28 1.13.56 2.26.89 3.38s.67 2.22 1.06 3.3.79 2.14 1.26 3.14a17.8 17.8 0 0 0 1.48 2.75 21.91 21.91 0 1 1-39.49 16.69ZM351.47 528.62a8.29 8.29 0 0 1-8.29-8.29V77.74a8.29 8.29 0 1 1 16.58 0v442.59a8.29 8.29 0 0 1-8.29 8.29Z" class="colorffffff svgShape"></path><path fill="#ffffff" d="M432.76 251.49H329.14v-17.41c0-3.21 3.72-5.8 8.29-5.8h87c4.58 0 8.29 2.59 8.29 5.8ZM372.66 283.4h-43.52V266c0-3.2 3.72-5.8 8.29-5.8h26.94c4.58 0 8.29 2.6 8.29 5.8ZM571.19 103.11H334.12V85.7c0-3.2 3.71-5.8 8.29-5.8H562.9c4.57 0 8.29 2.6 8.29 5.8Z" class="colorffffff svgShape"></path><path fill="#3d6e65" d="M562.18 313.39h-149.2l-29.85-107.76h149.21l29.84 107.76z" class="color3d406e svgShape"></path><path fill="#ffffff" d="M562.18 319.6H413a6.22 6.22 0 0 1-6-4.55l-29.86-107.76a6.23 6.23 0 0 1 6-7.88h149.2a6.23 6.23 0 0 1 6 4.56l29.84 107.76a6.21 6.21 0 0 1-6 7.87ZM417.7 307.17H554l-26.4-95.32H391.31Z" class="colorffffff svgShape"></path><path d="M519.86 263.54c-2.36-.4 2 11.39-3.93 14.14s-18.85 5.1-21.21-1.58-4.71-11.78-7.85-11.78-5.5 12.57-9.82 14.53-15.71 1.18-18.85-3.14-1.2-12.17-8.2-11.39c-3.31.37-7.07 14.93-14.53 15.32s-16.54-19.64-18.9-18.46 4.71 31.42 15.71 31.81 18.46.39 31.81 0 36.52 2.36 49.09.39 15.32-5.89 15.32-9.42-.79-15.71-1.18-18.07-7.46-2.35-7.46-2.35Z" style="mix-blend-mode:screen" fill="#ffffff" opacity=".11" class="colorffffff svgShape"></path><g style="mix-blend-mode:screen" opacity=".25" fill="#000000" class="color000000 svgShape"><path fill="#ffffff" d="M491.71 269.25a35.71 35.71 0 0 1-1.72-5.11c-.46-1.71-.83-3.42-1.14-5.14s-.54-3.45-.72-5.18a76 76 0 0 1-.23-2.6 2.4 2.4 0 0 1 .5-1.35 5.27 5.27 0 0 1 1.74-1.44 31.85 31.85 0 0 1 26.44-2 5 5 0 0 1 1.94 1.16 2.34 2.34 0 0 1 .69 1.26c.08.86.13 1.73.17 2.6.08 1.74.1 3.48.06 5.23s-.15 3.5-.35 5.26a35.49 35.49 0 0 1-.93 5.3 14.06 14.06 0 0 1-26.45 2Z" class="colorffffff svgShape"></path></g><g style="mix-blend-mode:screen" opacity=".25" fill="#000000" class="color000000 svgShape"><path fill="#ffffff" d="M457.31 268.5a33.39 33.39 0 0 1-1.51-5.08c-.38-1.69-.67-3.39-.89-5.09s-.39-3.39-.48-5.1c-.06-.85-.07-1.7-.1-2.55s.17-1.7 2.58-2.6a39.47 39.47 0 0 1 26.14-.5c2.44.8 2.77 1.65 2.68 2.5s0 1.7 0 2.55c0 1.71-.13 3.41-.27 5.12s-.39 3.41-.7 5.12a33.6 33.6 0 0 1-1.31 5.13 14 14 0 0 1-26.13.5Z" class="colorffffff svgShape"></path></g><g style="mix-blend-mode:screen" opacity=".25" fill="#000000" class="color000000 svgShape"><path fill="#ffffff" d="M427.15 268.93a28.53 28.53 0 0 1-2-5.08 46.63 46.63 0 0 1-1.2-5.14c-.3-1.72-.52-3.45-.66-5.18a5.69 5.69 0 0 1 .32-2.65 6.55 6.55 0 0 1 2-2.76 15.3 15.3 0 0 1 18.11-1.37 6.53 6.53 0 0 1 2.37 2.44 5.65 5.65 0 0 1 .71 2.56c.12 1.74.16 3.48.13 5.23a47 47 0 0 1-.42 5.26 28.21 28.21 0 0 1-1.22 5.33 9.9 9.9 0 0 1-18.11 1.36Z" class="colorffffff svgShape"></path></g><path fill="#ffffff" d="M715.41 381.62h-150A2.92 2.92 0 0 1 563 377l17.59-23.83a15.55 15.55 0 0 1 12.52-6.32h148Z" class="colorffffff svgShape"></path><path fill="#ffffff" d="M700.49 434.26H557.92l-.32-27.14 12.76-26.74h155.83l-25.7 53.88z" class="colorffffff svgShape"></path><path fill="#c6ebe3" d="M573.67 411.88a5.8 5.8 0 0 1 5.8 5.8v17h-11.6v-17a5.8 5.8 0 0 1 5.8-5.8Z" class="colorebcbc6 svgShape"></path><path fill="#a9dbd0" d="M574.5 425.14a2.09 2.09 0 0 1-1.78-1l-11.19-18.66a2.07 2.07 0 0 1 3.56-2.13L576.28 422a2.07 2.07 0 0 1-1.78 3.14Z" class="colordbb1a9 svgShape"></path><path fill="#c6ebe3" d="M648.69 411.88a5.8 5.8 0 0 1 5.8 5.8v17h-11.6v-17a5.8 5.8 0 0 1 5.8-5.8Z" class="colorebcbc6 svgShape"></path><path fill="#a9dbd0" d="M649.52 425.14a2.08 2.08 0 0 1-1.78-1l-11.19-18.66a2.07 2.07 0 1 1 3.55-2.13L651.29 422a2.08 2.08 0 0 1-.71 2.85 2 2 0 0 1-1.06.29Z" class="colordbb1a9 svgShape"></path><path fill="#c6ebe3" d="M597.71 411.88a5.8 5.8 0 0 1 5.8 5.8v17h-11.6v-17a5.8 5.8 0 0 1 5.8-5.8ZM622.16 411.88a5.81 5.81 0 0 1 5.81 5.8v17h-11.61v-17a5.8 5.8 0 0 1 5.8-5.8Z" class="colorebcbc6 svgShape"></path><path fill="#a9dbd0" d="M542.17 413.33a1 1 0 0 1-.17-2.06l23.42-3.94a1 1 0 0 1 .34 2.05l-23.41 3.93ZM598.54 425.14a2.09 2.09 0 0 1-1.78-1l-11.19-18.66a2.07 2.07 0 0 1 3.56-2.13L600.32 422a2.07 2.07 0 0 1-1.78 3.14Z" class="colordbb1a9 svgShape"></path><path fill="#a9dbd0" d="M587.77 410.22a2.05 2.05 0 0 1-1.76-1l-1.29-2.06a2.08 2.08 0 0 1 3.52-2.2l1.28 2.06a2.07 2.07 0 0 1-1.75 3.17ZM624.24 425.14a2.08 2.08 0 0 1-1.78-1l-11.19-18.66a2.07 2.07 0 1 1 3.55-2.13L626 422a2.08 2.08 0 0 1-.71 2.85 2 2 0 0 1-1.05.29Z" class="colordbb1a9 svgShape"></path><path fill="#a9dbd0" d="M613.46 410.22a2.06 2.06 0 0 1-1.76-1l-1.28-2.06a2.07 2.07 0 1 1 3.51-2.2l1.29 2.06a2.07 2.07 0 0 1-1.76 3.17Z" class="colordbb1a9 svgShape"></path><ellipse cx="614.69" cy="365.4" fill="#c6ebe3" rx="10.81" ry="6.18" transform="rotate(-60 614.693 365.4)" class="colorebcbc6 svgShape"></ellipse><path fill="#c6ebe3" d="M597.71 359.66h-11.19a2.08 2.08 0 0 1 0-4.15h11.19a2.08 2.08 0 0 1 0 4.15ZM593.57 367.53h-11.19a2.07 2.07 0 1 1 0-4.14h11.19a2.07 2.07 0 0 1 0 4.14ZM588.59 376.24H577.4a2.08 2.08 0 0 1 0-4.15h11.19a2.08 2.08 0 0 1 0 4.15ZM639.36 382.66h-56.57a1 1 0 1 1 0-2.07h56.57a1 1 0 1 1 0 2.07ZM639.16 359.66H635a2.08 2.08 0 0 1 0-4.15h4.15a2.08 2.08 0 0 1 0 4.15ZM655.73 359.66h-4.14a2.08 2.08 0 0 1 0-4.15h4.14a2.08 2.08 0 1 1 0 4.15ZM636.25 367.53h-4.14a2.07 2.07 0 0 1 0-4.14h4.14a2.07 2.07 0 1 1 0 4.14ZM652.83 367.53h-4.14a2.07 2.07 0 0 1 0-4.14h4.14a2.07 2.07 0 0 1 0 4.14ZM633.35 376.24h-4.14a2.08 2.08 0 0 1 0-4.15h4.14a2.08 2.08 0 1 1 0 4.15ZM649.93 376.24h-4.14a2.08 2.08 0 1 1 0-4.15h4.14a2.08 2.08 0 0 1 0 4.15ZM677.58 375.41h-9.49a2.56 2.56 0 0 1-2.39-3.41l5.58-15.2a2.56 2.56 0 0 1 2.4-1.67h9.48a2.56 2.56 0 0 1 2.4 3.43L680 373.73a2.55 2.55 0 0 1-2.42 1.68ZM665.06 440.48a1 1 0 0 1-1-1v-32.56l9.6-25.05a1 1 0 0 1 1.94.75l-9.47 24.68v32.14a1 1 0 0 1-1.07 1.04Z" class="colorebcbc6 svgShape"></path><path fill="#c6ebe3" d="M685.78 382.45h-26.11a1 1 0 1 1 0-2.07h26.11a1 1 0 1 1 0 2.07Z" class="colorebcbc6 svgShape"></path><rect width="63.41" height="21.97" x="418.04" y="365.25" fill="#ffffff" rx="9.45" class="colorffffff svgShape"></rect><path fill="#c5ebe2" d="M452.44 384.11h-48.9a1 1 0 1 1 0-2.07h48.9a1 1 0 1 1 0 2.07ZM471.09 365.05h-21.55a1 1 0 0 1 0-2.08h21.55a1 1 0 1 1 0 2.08Z" class="colorebcbc5 svgShape"></path><circle cx="645.79" cy="309.09" r="14.51" fill="#ffffff" class="colorffffff svgShape"></circle><path fill="#c5ebe2" d="M388.62 254a1 1 0 0 1-1-.75l-7.46-26.53a1 1 0 1 1 2-.56l7.46 26.53a1 1 0 0 1-.72 1.27.9.9 0 0 1-.28.04ZM557.72 321.94H430.48a1 1 0 1 1 0-2.07h127.24a1 1 0 0 1 0 2.07Z" class="colorebcbc5 svgShape"></path><path fill="#b5c6c2" d="M113.56 550.55c-8.38-3.31-15-10.64-19.09-21.18-6.91-17.73-5.62-40.23-.45-50.92l14.98 7.22c-3.1 6.4-4.26 24.27 1 37.67 1.67 4.29 4.71 9.81 9.74 11.8Z" class="colorb9b5c6 svgShape"></path><rect width="148.95" height="42.59" x="108.65" y="527.3" fill="#c80b27" rx="18.33" transform="rotate(-180 183.12 548.595)" class="coloref4050 svgShape"></rect><path fill="#b5c6c2" d="M60.41 454c0 41 32.19 49.91 49.9 49.91S124.56 495 124.56 454s-32.08-98.49-49.79-98.49S60.41 413 60.41 454ZM171.85 574.76h24.87v104.25h-24.87z" class="colorb9b5c6 svgShape"></path><path fill="#b5c6c2" d="M108.91 731.51a3.54 3.54 0 0 1-3.54-3.54v-17.33l1.27-1.06c1.58-1.33 39.2-32.56 77.74-34.11a3.54 3.54 0 1 1 .28 7.07c-32.38 1.31-65.41 26.08-72.21 31.45v14a3.53 3.53 0 0 1-3.54 3.52Z" class="colorb9b5c6 svgShape"></path><path fill="#b5c6c2" d="M259.66 731.51a3.53 3.53 0 0 1-3.54-3.54V714c-6.81-5.37-39.88-30.14-72.22-31.45a3.54 3.54 0 0 1 .29-7.07c38.54 1.55 76.16 32.78 77.74 34.11l1.27 1.06V728a3.54 3.54 0 0 1-3.54 3.51Z" class="colorb9b5c6 svgShape"></path><path fill="#b5c6c2" d="M208.42 731.51a3.54 3.54 0 0 1-3.54-3.54v-15.35c-.57-2.89-5.87-27.59-21.4-30.12a3.54 3.54 0 1 1 1.14-7c21.39 3.48 27.06 34.85 27.29 36.18l.05.3v16a3.53 3.53 0 0 1-3.54 3.53Z" class="colorb9b5c6 svgShape"></path><circle cx="208.42" cy="737.78" r="11.05" fill="#b5c6c2" class="colorb9b5c6 svgShape"></circle><circle cx="259.81" cy="737.78" r="11.05" fill="#b5c6c2" class="colorb9b5c6 svgShape"></circle><circle cx="108.91" cy="737.78" r="11.05" fill="#b5c6c2" class="colorb9b5c6 svgShape"></circle><path fill="#b5c6c2" d="M234.94 577.66H125.8a4.15 4.15 0 1 1 0-8.29h109.14a4.15 4.15 0 0 1 0 8.29Z" class="colorb9b5c6 svgShape"></path><path fill="#c80b27" d="M75.58 437.37C80.67 487.56 92.65 499 113.72 499s38.14-11 38.14-61.62-29.74-112.53-50.8-112.53-35.22 16.57-25.48 112.52Z" class="coloref4050 svgShape"></path><path fill="#f67084" d="M130.79 739.36a31.54 31.54 0 0 1 .38-9.53 52.57 52.57 0 0 1 2.22-8.09 77.74 77.74 0 0 1 3-7.36c.56-1.19 1.14-2.35 1.75-3.52.3-.58.62-1.16.94-1.74s.64-1.11 1.11-1.8a8.25 8.25 0 0 1 14.07 8.57l-.24.45c-.17.31-.49.82-.76 1.24s-.58.89-.85 1.36c-.57.91-1.12 1.84-1.64 2.78a61.38 61.38 0 0 0-2.77 5.68 36.39 36.39 0 0 0-2 5.58 17.61 17.61 0 0 0-.65 4.69v.53a7.32 7.32 0 0 1-14.57 1.16ZM272.41 743.25a31.3 31.3 0 0 1-4.18-8.57 53.2 53.2 0 0 1-1.88-8.17 77.54 77.54 0 0 1-.8-7.92c-.08-1.31-.12-2.62-.13-3.93v-2c0-.68 0-1.29.13-2.12a8.25 8.25 0 0 1 16.45.88v.58c0 .36 0 1-.08 1.46s-.09 1.06-.11 1.6c-.07 1.07-.11 2.15-.12 3.22a57.8 57.8 0 0 0 .19 6.35 36.62 36.62 0 0 0 .89 5.85 18 18 0 0 0 1.65 4.44l.27.46a7.31 7.31 0 0 1-12.28 7.91Z" class="colorf69070 svgShape"></path><path fill="#f66c80" d="M427.38 276.89a116.86 116.86 0 0 1-19 17.46c-3.39 2.54-6.85 4.95-10.36 7.26s-7.11 4.48-10.73 6.59-7.31 4.11-11.05 6-7.52 3.75-11.37 5.49-7.79 3.36-11.82 4.88c-2 .76-4.06 1.51-6.17 2.21-1 .36-2.11.69-3.18 1l-1 .28-1.08.29c-.7.16-1.41.34-2.09.47a65.14 65.14 0 0 1-7.81 1.11c-2.49.22-4.88.31-7.23.34-4.68.06-9.16-.14-13.54-.52a253.1 253.1 0 0 1-25.45-3.58A412.83 412.83 0 0 1 237.25 314a20.19 20.19 0 0 1 12.21-38.5l.86.29h.09c14.49 5.38 29.12 10.66 43.67 15.11 7.27 2.18 14.52 4.22 21.6 5.72 3.53.74 7 1.4 10.31 1.83 1.66.22 3.26.38 4.77.47s2.93.11 4.13.06l.86-.05h.38a2.57 2.57 0 0 0 .47-.05c.88-.16 1.74-.3 2.63-.48 1.76-.33 3.56-.72 5.35-1.14 3.61-.83 7.25-1.8 10.88-2.87 7.3-2.07 14.55-4.56 21.72-7.25 3.58-1.36 7.13-2.81 10.64-4.32s7-3.09 10.37-4.78a127.36 127.36 0 0 0 19.22-11.42l.2-.14a7.2 7.2 0 0 1 9.77 10.45Z" class="colorf68e6c svgShape"></path><path d="M295.57 317c10.37 6.22 38.13 5.39 45.59 5.39s65.49-23.21 65.49-23.21l-36.47 40.2-38.55 2.07-43.1-3.73Z" style="mix-blend-mode:multiply" fill="#aee7da" clip-path="url(#a)" opacity=".46" class="coloraec5e7 svgShape"></path><path fill="#ffffff" d="M220.34 289.33c-1.61 13 8.43 34.84 69.07 44.31 11-6.8 10.93-44.23 10.93-44.23s-52.62-19.52-64.79-17.53-14.03 7.98-15.21 17.45Z" data-name="SVGID" class="colorffffff svgShape"></path><path d="M303.24 306.22c-4.85 6.87-21.14 14.27-41.24 14.27-1.59 10.66 0 17.1 0 17.1h28.19l16.81-6.76Z" style="mix-blend-mode:multiply" fill="#aee7da" clip-path="url(#b)" opacity=".61" class="coloraec5e7 svgShape"></path><path fill="#a9dbd0" d="m196.47 515.81 21.06 26.29 7.63 9.52a22.39 22.39 0 0 1 3.47 21.85l-.91 2.43-1 2.41-1.93 4.82c-1.32 3.2-2.66 6.39-4.05 9.57s-2.8 6.33-4.19 9.5l-4.34 9.45c-5.85 12.56-12 25-18.42 37.34s-13 24.58-19.77 36.79c-3.45 6.06-6.83 12.16-10.35 18.2l-5.23 9.02-2.64 4.53c-.33.8-1.18 1.38-3.12 1.52h-1.6L149 719a4.9 4.9 0 0 1-.59-.06l-.63-.09c-.44-.06-.82-.1-1.31-.19l-1.51-.27-1.78-.37a5.21 5.21 0 0 1-1.66-.69l-1.53-1-1.26-.87c-.41-.28-.71-.52-1.06-.79l-.52-.38a5.25 5.25 0 0 1-.46-.37c-.52-.44-1.08-.91-1.56-1.34l-.61-.6-.5-.56c-1.28-1.46-1.47-2.47-1.14-3.27l1.31-5.08 2.62-10.15c1.76-6.77 3.64-13.48 5.45-20.22 3.79-13.41 7.64-26.8 11.83-40.05s8.5-26.45 13.17-39.5l3.57-9.76c1.23-3.24 2.42-6.49 3.7-9.71s2.54-6.44 3.85-9.65l2-4.78 1-2.39 1.06-2.37 11.1 31.36-29-11.87-9-3.67a35.16 35.16 0 1 1 26.68-65.06 35.64 35.64 0 0 1 14.25 10.56Z" class="colordbb1a9 svgShape"></path><path fill="#a9dbd0" d="m241.23 487.68 62.41 53.1.14.12a24.27 24.27 0 0 1 8.46 19c-.19 6.67-.67 13.3-1.25 19.93-.26 3.31-.64 6.61-.95 9.92l-1.11 9.91c-1.58 13.21-3.55 26.37-5.74 39.52s-4.72 26.25-7.35 39.34c-1.41 6.54-2.76 13.09-4.23 19.62l-2.24 9.8-1.12 4.89c-.11.41-.16.82-.31 1.23a1.58 1.58 0 0 1-.54.57 4.12 4.12 0 0 1-1.07.51c-.25.08-.43.17-.73.24l-.88.23-1.05.2-1.29.18-.65.09h-.76l-1.76.13-1.77.14-1.07.05h-1.17l-1.13-.27-1-.26-1.7-.49-1.69-.49-.42-.12-.31-.11-.61-.22-1.23-.43-1-.42-.82-.4c-.28-.13-.44-.25-.67-.38a4.33 4.33 0 0 1-1-.72 1.71 1.71 0 0 1-.43-.67c-.07-.43-.06-.84-.09-1.27l-.29-5-.57-10.08c-.35-6.72-.59-13.43-.88-20.14-.4-13.41-.74-26.81-.67-40.17s.28-26.7.91-40l.55-10c.24-3.32.42-6.64.71-10 .52-6.63 1.15-13.25 2.06-19.84l10.95 24.32L205 538.16a31.23 31.23 0 1 1 31.38-54 31.76 31.76 0 0 1 4.42 3.1Z" class="colordbb1a9 svgShape"></path><path fill="#a9dbd0" d="m303.78 540.9-.14-.12-62.41-53.1-.48-.42a31.76 31.76 0 0 0-4.42-3.1 31.23 31.23 0 0 0-46.86 25 35 35 0 0 0-7.1-3.95c-18-7.36-48.11-3.17-55.48 14.79s-2.49 44.35 28.8 50.27l9 3.67 8.45 3.47-.41 1.08-1.83 4.86-3.57 9.76c-4.67 13.05-9 26.23-13.17 39.5s-8 26.64-11.83 40.05l-2.74 10.1c-.91 3.37-1.85 6.73-2.72 10.11s-1.77 6.76-2.62 10.15l-1.3 5.09a4.27 4.27 0 0 0-.14.64 1.83 1.83 0 0 0 .11.74 5.36 5.36 0 0 0 1.17 1.89l.5.56.61.6c.48.43 1 .9 1.56 1.34l.2.17.26.2.52.38.51.39c.18.13.32.25.55.4l1.26.87 1.53 1a5.21 5.21 0 0 0 1.66.69l1.78.37 1.51.27c.27.06.45.07.67.1l.64.09.63.09H149.07l2.05.15h1.6a5.43 5.43 0 0 0 2.17-.51 1.76 1.76 0 0 0 .59-.46 4.72 4.72 0 0 0 .36-.55l2.65-4.53q2.67-4.51 5.27-9.06c1.77-3 3.46-6.06 5.19-9.1l5.15-9.1c6.74-12.21 13.43-24.43 19.77-36.79s12.57-24.78 18.42-37.34l4.34-9.45 2.11-4.75 1.06-2.37 1-2.38c2.76-6.36 5.43-12.74 7.85-19.23a22.5 22.5 0 0 0-3.51-21.9l-2.53-3.16L263.13 572l-.24 2.94-.2 2.48-.17 2.49-.34 5-.55 10c-.63 13.3-.88 26.64-.91 40s.27 26.76.67 40.17l.42 10.07.21 5q.11 2.52.24 5c.18 3.36.35 6.72.56 10.08l.3 5c0 .43 0 .84.1 1.27a1.61 1.61 0 0 0 .43.67 5 5 0 0 0 .94.72l.32.19c.12.06.22.13.37.19l.82.4 1 .42 1.23.43.61.22.31.11.38.12 1.56.47c.24.08.58.17.89.25l.94.25c.29.09.69.18 1.07.27l1.13.27h2.27l1-.06c.32 0 .68 0 .93-.06l1.63-.14h.72l.65-.09 1.29-.18 1.05-.2.88-.23a3.26 3.26 0 0 0 .4-.11l.35-.12a4.87 4.87 0 0 0 1-.52 1.5 1.5 0 0 0 .54-.57 11.07 11.07 0 0 0 .31-1.23l1.14-4.89c.77-3.26 1.49-6.53 2.23-9.8s1.43-6.54 2.15-9.8l2.07-9.82c2.63-13.09 5.2-26.2 7.35-39.34s4.16-26.31 5.74-39.52l1.11-9.91.49-5 .25-2.48.21-2.48c.58-6.63 1.06-13.26 1.25-19.93a24.27 24.27 0 0 0-8.45-19.1Z" data-name="SVGID" class="colordbb1a9 svgShape"></path><g clip-path="url(#c)" fill="#000000" class="color000000 svgShape"><path d="M156.73 617c-11.19 36.06-14.78 77.37-7.6 84.27s20-.13 20-.13l-12 24-25.26-6.14s-16.17-12-15.34-15.34 25.28-76.26 25.7-76.67 14.5-9.99 14.5-9.99ZM259.52 616.62c-1.25 16.58 2.48 76.26 16.16 83.72s30.67-12.85 30.67-12.85l-7.87 33.57h-40.21l-14.09-39.79ZM276.92 498.5l-20.3 9.5-15.34-20.72-89.52 12.85s-7.59 3.07-12.13 8.26l-27.63 4.2 20.52 62.17 29.21-2a102 102 0 0 1-19.47-21.23c-7-10-7.07-18.63-4.21-29.82 7.39-12 35.29-11.63 46.07-6.65S221 545.33 221 545.33s2.2-21.79 19.48-24.45c16.17-2.49 34.82 2.49 43.81 13.32l7.17-17.46Z" style="mix-blend-mode:multiply" fill="#aee7da" opacity=".36" class="coloraec5e7 svgShape"></path></g><path fill="#daf2ed" d="M258.63 282.75c-4.58-9.11-22.88-14.09-33.07-14.23-30.19-.42-89.4 11.38-96.19 46.89-8.44 44.09 12.29 150.59 13.27 158.64s-18.24 51.8-18.24 51.8c20.73-39.37 106.18 8 143-16.16 7.29-.86-15.34-93.45-15.34-93.45s10-72.05 14.54-94.08c2.84-13.71-2.67-28.87-7.97-39.41Z" class="colorf2e1da svgShape"></path><g clip-path="url(#d)" fill="#000000" class="color000000 svgShape"><path d="M250.81 355.51a80.62 80.62 0 0 0 15.34 20.31l-20.31 37.72s-13.26 62.58-60.51 68.38c-24.15 3-58-76.67-58-76.67v-37.72l24.45 5.8s22.38 48.08 23.62 50.15 23.21 17.41 23.21 16.58 27.77-46.42 27.77-46.42Z" style="mix-blend-mode:multiply" fill="#aee7da" opacity=".24" class="coloraec5e7 svgShape"></path></g><path fill="#aadbd0" d="M218 341.8a1 1 0 0 1-1-.76 1 1 0 0 1 .72-1.28l11.61-3.18c.15-3.53.74-18.81.39-30.69-.06-2.35-.06-4.62-.06-6.82 0-11.24 0-20.12-8.72-26.55a1 1 0 0 1 1.24-1.67c9.55 7 9.55 16.86 9.55 28.22 0 2.19 0 4.44.06 6.76.4 13.54-.42 31.42-.43 31.6v.75l-13.06 3.58a.84.84 0 0 1-.3.04Z" class="colordbb7aa svgShape"></path><path fill="#aadbd0" d="m215.66 342.47-.41-.36c-.17-.14-16.65-14.27-21-17.24S168 302.46 164.84 288.6c-2.34-10.13 7.61-13.54 7.71-13.57a47.45 47.45 0 0 1 11.22-2.68l1.11-.09v4l-.07.19c-1.39 3.43-3.12 9.64-1.82 11.68l-1.75 1.11c-2.18-3.43.92-11.74 1.57-13.38v-1.33a48.7 48.7 0 0 0-9.56 2.45c-.38.13-8.3 2.88-6.39 11.16 2.91 12.6 23.59 31.58 28.59 35 4.07 2.8 18.06 14.74 20.73 17l13.84-3.8.55 2Z" class="colordbb7aa svgShape"></path><path fill="#97aba6" d="M293.43 330a1 1 0 0 1-.4-.09 1 1 0 0 1-.55-1.35c4-9.43 6.13-18.2 6.08-24.69a1 1 0 0 1 1-1 1 1 0 0 1 1.05 1c.05 6.76-2.16 15.82-6.24 25.5a1 1 0 0 1-.94.63Z" class="colorab97a6 svgShape"></path><path fill="#f66c80" d="m182.05 274.55 10.12-24.33a12.55 12.55 0 0 1 24 6.37L213 282.73a16.14 16.14 0 0 1-32-4 16.63 16.63 0 0 1 1.05-4.18Z" class="colorf68e6c svgShape"></path><path fill="#f66c80" d="M180.56 289c-11.32-20 23.9-12.92 29.95-12.12 8.34 1.1 8 14.66 8 23.84s.82 19.12 0 23.26c-6.86-4.8-34.75-29.29-37.95-34.98Z" class="colorf68e6c svgShape"></path><path d="M212.68 283.81c-5.9-4-19.06-11.6-31.08-6.63s0-29.84 0-29.84l19.48-2.07 13.68 17.82 2.2 14.5Z" style="mix-blend-mode:multiply" fill="#aee7da" clip-path="url(#e)" opacity=".46" class="coloraec5e7 svgShape"></path><path fill="#778582" d="M265.73 729.35s-6.68 7.37-4.32 21.8c.15-.18 53-.25 58.33-.18.25-8.56-35.05-18.14-36-18.37-13.67 3.34-18.01-3.25-18.01-3.25ZM130.21 730.18s-6.5 6.74-4.36 19.89c.15-.16 48.37-.22 53.2-.16.22-7.8-32-16.54-32.82-16.75-12.48 3.05-16.02-2.98-16.02-2.98Z" class="color857782 svgShape"></path><path fill="#97aba6" d="M284.59 322.36a1 1 0 0 1-.41-.09 1 1 0 0 1-.54-1.36c4-9.16 4.89-27.55 4.08-34.91-16.11-6.09-42.54-12.54-47.34-12a1 1 0 0 1-1.13-.93 1 1 0 0 1 .92-1.13c5.15-.53 32.26 6 48.88 12.39a1 1 0 0 1 .65.83c1 7.09.08 26.87-4.16 36.61a1 1 0 0 1-.95.59Z" class="colorab97a6 svgShape"></path><path fill="#f66c80" d="M247.41 244.88c-3.83 24.55-17.5 40.61-28.07 39.6-9.78-.93-21.09-14.57-26.18-27.69-3 14.6-12.17-5.31-10.57-15.6 3.84-24.56 21.75-48.05 38.45-45.44s30.21 24.57 26.37 49.13Z" class="colorf68e6c svgShape"></path><path fill="#cf5567" d="M221 285.86h-.45c-9.36-.48-17.92-7.07-25.43-19.6a1.25 1.25 0 1 1 2.15-1.29c7.06 11.76 14.94 17.94 23.41 18.38 7.06.36 18.43-10.3 21.86-24.08 3.57-14.33 3.89-27.72 3.23-33.22-1-8.53-2.55-11.08-2.56-11.11a1.27 1.27 0 0 1 .39-1.73 1.25 1.25 0 0 1 1.72.37c.19.28 1.85 3 2.95 12.17.68 5.69.37 19.47-3.28 34.13-3.72 14.86-15.8 25.98-23.99 25.98Z" class="colorcf7455 svgShape"></path><path fill="#5e121d" d="M253.85 221.78c-4 3.09-18.4 5.1-33.47-5.1-2.21 2.22-2.67 3.32-6.64 6.21-4.88 3.55-12.41 2.22-15.84 1.4-2.92 5.3-.37 13.62-1.42 15.91-1.68 3.65-2-4.15-7.25-4s-2.17 17.21 3.43 18.59c2.48.61.23 8-2.41 7.11s-17.76-19.3-8.07-40.69c-6.56-2.3-14.91-11.4-7-18.7 5.76-5.32 18.61-7.09 27.48-4.43-21.28-16 7.53-14.18 15.06-12.41 11.05 2.6 21.28 8.42 21.28 10.64 2.66-3.55 5.06-4.51 8.64-3.77 12.85 2.65 17.73 20.38 6.21 29.24Z" class="color5e1512 svgShape"></path><path fill="#ffffff" d="M213.67 262.85c-1-.23-1.63.76-1.35 1.77 1.42 5.25 7.62 7.91 11.61 7.91 4.88 0 7.53-4.88 8.38-6.7A1.24 1.24 0 0 0 231 264a20.13 20.13 0 0 1-4.41.55 75.57 75.57 0 0 1-12.92-1.7Z" class="colorffffff svgShape"></path><path fill="#5debcb" d="M441.05 265.16c9.14-3.74 16.52-3.55 14.92-5.8-4.15-5.8-29.43-12.43-38.82 8.29-1.89 4.17-.5 15.29 11.5 11.47a29.06 29.06 0 0 1 4.79-1.06 10.15 10.15 0 0 0 5.95-2.54c2.49-2.07 7-1.65 7-2.48s-.82-3.32-5-3.32a22.28 22.28 0 0 0-4.5.65 1 1 0 0 1-1-1.63 12.68 12.68 0 0 1 5.16-3.58Z" class="color7ea3d6 svgShape"></path><path fill="#97aba6" d="M268.35 310.28a1 1 0 0 1-1-.81c-.11-.48-.23-1-.35-1.59-1.65-7.5-5.08-23.11-13.35-27.51a1.06 1.06 0 0 1-.43-1.41 1 1 0 0 1 1.41-.42c9.11 4.85 12.68 21.09 14.39 28.9.13.57.24 1.09.35 1.57a1 1 0 0 1-.78 1.24ZM124.24 526.69a1.11 1.11 0 0 1-.78-.31c-.37-.38-.39-.88-.29-1.8.3-2.79 2.78-14.88 8.65-18.65 6.78-4.37 28.43-7.78 51.45-2.85a1 1 0 0 1-.44 2c-24-5.15-44.67-.8-49.89 2.56-3.89 2.5-6.3 9.93-7.26 14.39 2.64-3.49 7.38-8.87 14.27-10.61 11.75-3 38.83-2 72.44 2.66 36.09 5 47.21-1.62 47.32-1.69a1 1 0 0 1 1.11 1.75c-.46.29-11.65 7.11-48.71 2-39.28-5.42-62.77-4.95-71.65-2.7-7.45 1.88-12.29 8.65-14.36 11.54-.93 1.29-1.18 1.64-1.79 1.69ZM187.67 661.81a1 1 0 0 1-.47-.12 1 1 0 0 1-.45-1.39c.22-.44 22.37-44.08 28.5-58.39s13.18-32.11 12.95-42.27c-.22-9.74-16.39-21.51-16.56-21.63a1 1 0 1 1 1.22-1.68c.7.51 17.16 12.5 17.41 23.27.24 10.55-6.88 28.59-13.11 43.13-6.16 14.37-28.34 58.07-28.56 58.51a1.05 1.05 0 0 1-.93.57ZM154.87 720.23c-.76 0-18.55-.11-22.92-10.15a1 1 0 0 1-.06-.63c1.64-7.81 9.47-36.65 9.54-36.94a1 1 0 0 1 2 .54c-.07.28-7.67 28.29-9.44 36.49 3.63 7.59 17.27 8.5 20.29 8.61L172 687.39a1 1 0 1 1 1.8 1l-18 31.29a1 1 0 0 1-.93.55ZM148.8 650.89a1.26 1.26 0 0 1-.33 0 1 1 0 0 1-.66-1.31l23.89-72.4a1 1 0 0 1 1-.71h14.92a1 1 0 0 1 0 2.07h-14.18l-23.66 71.69a1 1 0 0 1-.98.66Z" class="colorab97a6 svgShape"></path><path fill="#97aba6" d="M182.69 584.91a1 1 0 0 1-.56-.16l-9.86-6.34c-2.9-.75-35-9.34-41.34-20.21a1 1 0 0 1 .37-1.42 1 1 0 0 1 1.42.38c6.09 10.4 39.89 19.2 40.23 19.29a1.14 1.14 0 0 1 .3.13l10 6.42a1 1 0 0 1-.56 1.91ZM275.47 571.86H263a1 1 0 0 1-.65-1.85l8.29-6.63A1 1 0 0 1 272 565l-6 4.79h9.48a1 1 0 1 1 0 2.07Z" class="colorab97a6 svgShape"></path><path fill="#97aba6" d="M261.38 675.89a1 1 0 0 1-1-1c-.41-11-.21-64.69.11-77.11.26-10.15 1.25-23.23 1.49-26.35l-15.44-7.93a1 1 0 1 1 .94-1.84l16.06 8.24a1 1 0 0 1 .56 1c0 .16-1.24 15.45-1.54 26.94-.32 12.39-.52 66-.11 77a1 1 0 0 1-1 1.07ZM278.58 717.28c-6.35 0-13.25-1.93-16.3-5.26a1 1 0 1 1 1.52-1.4c4.11 4.48 17.27 6.08 23.19 2.93 2.65-12 13.6-65.41 13.71-66a1 1 0 0 1 2 .42c-.11.55-11.35 55.37-13.81 66.44a1.07 1.07 0 0 1-.48.66c-2.41 1.52-6.04 2.21-9.83 2.21Z" class="colorab97a6 svgShape"></path><path fill="#f66c80" d="M242 365.9h-.09l-.13.09c-.07 0-.26.19-.43.28a8.29 8.29 0 0 0-10.42-12.89c-.37.29-.76.64-1 .89l-.4.41-.34.37c-.23.25-.39.45-.59.69l-.47.62c-.58.79-1 1.47-1.42 2.12-.78 1.3-1.4 2.48-2 3.63-1.15 2.29-2.13 4.47-3.08 6.63-1.88 4.32-3.61 8.54-5.33 12.73-3.45 8.36-6.88 16.58-10.58 24.44-1.85 3.92-3.76 7.75-5.78 11.35a77.3 77.3 0 0 1-6.34 9.78c-.54.68-1.08 1.32-1.6 1.89l-.16-.29c-.81-1.45-1.72-3.21-2.61-5-1.8-3.67-3.57-7.61-5.31-11.59-3.47-8-6.81-16.22-10.08-24.5s-6.48-16.63-9.62-25L159.54 350l-2.29-6.31-2.25-6.31-.11-.29a22.25 22.25 0 0 0-41.69 15.55l.88 2.36.61 1.64.63 1.6 1.24 3.2 2.6 6.34c.85 2.12 1.78 4.2 2.68 6.29l2.74 6.28q2.82 6.24 5.72 12.46c1 2.08 2 4.13 3 6.2s2 4.13 3 6.18l3.1 6.17 3.21 6.15 1.63 3.08 1.68 3.07q1.68 3.07 3.42 6.16c2.36 4.12 4.78 8.22 7.51 12.51 1.4 2.15 2.85 4.33 4.65 6.78l.34.46.37.49.37.48.39.51.85 1.06 1 1.18.28.32.32.35.63.69.17.17.21.22.43.43c.29.28.58.57.87.83l1.23 1 1.32 1.05a37.48 37.48 0 0 0 6.62 4 31.3 31.3 0 0 0 9.21 2.7 30 30 0 0 0 5.28.2 29.36 29.36 0 0 0 5.13-.75 30.07 30.07 0 0 0 8.39-3.43 33.2 33.2 0 0 0 3.15-2.13c.93-.72 1.81-1.45 2.58-2.17a43.29 43.29 0 0 0 4-4.27 55 55 0 0 0 5.41-8 97.76 97.76 0 0 0 6.64-14.69c1.76-4.73 3.15-9.4 4.43-14q1-3.47 1.81-6.88l.85-3.41.77-3.41c1-4.54 2-9 2.85-13.49l2.6-13.08c.41-2.12.86-4.22 1.3-6.13.21-1 .44-1.86.62-2.58a4.47 4.47 0 0 0 .16-.84.29.29 0 0 0 0-.09s-.08-.03-.08 0Z" data-name="SVGID" class="colorf68e6c svgShape"></path><g clip-path="url(#f)" fill="#000000" class="color000000 svgShape"><path d="M131.12 397.18C146.79 426 165 447.52 185.74 450s48.67-35.36 55.13-43.1c6.21-7.46-16.17 72.94-16.17 72.94l-57.19-7.46-26.53-29Z" style="mix-blend-mode:multiply" fill="#aee7da" opacity=".16" class="coloraec5e7 svgShape"></path></g><path fill="#5debcb" d="M257.86 350.54c3.57-3.22 4.56-16.58-1.24-22.8-1.94-2.07-7.43-2-8.71-.82-3.73 3.31 1 4-5.8 12.43-3.47 4.27-7.88 8.29-11.61 9.12-.46.1-.41-3.73-.82-7.05-.53-4.19-3.91-4.47-5.23-5-2.07-.84-2.38 2.42-2 3.46 1.8 4.46.25 7-.11 9.67a20.77 20.77 0 0 0 .45 7.89c.51 2 .17 5 1.32 6.71 1.38 2 15.14 12.17 15.89 11.69 9.18-5.92 18.23-11.19 18.65-13.26.66-3.15-3-10.05-.79-12.04Z" class="color7ea3d6 svgShape"></path><path fill="#ffffff" d="M130.55 309.38c-14.11 1.44-26.73 16.15-12.78 85 10.41 8.34 60.1-10.25 60.1-10.25S169.17 346.81 164 331c-3.92-11.83-18-23.19-33.45-21.62Z" class="colorffffff svgShape"></path><path fill="#97aba6" d="M134.15 385.21h-1.69a1 1 0 1 1 .06-2.07c14.85.43 28.28-5 39.06-9.37l3.42-1.38a1 1 0 0 1 .77 1.93c-1.1.43-2.23.89-3.41 1.37-10 4.02-23.56 9.52-38.21 9.52Z" class="colorab97a6 svgShape"></path><g clip-path="url(#g)" fill="#000000" class="color000000 svgShape"><path d="M114.14 324.81c-.1 22.41 6.12 44.43 13.58 53.94s22.87 15.12 22.87 15.12L130 405.32l-38.34 1.38s3.53-52.14 5.39-55.5 8.08-21.8 8.7-22.21 8.39-4.18 8.39-4.18Z" style="mix-blend-mode:multiply" fill="#aee7da" opacity=".61" class="coloraec5e7 svgShape"></path></g><path fill="#97aba6" d="M113.34 328.9a1.13 1.13 0 0 1-.36-.06 1.05 1.05 0 0 1-.62-1.33q.56-1.51 1-2.91c2.28-6.59 3.92-11.36 12.57-15.28 9.61-4.36 22.43 1.83 30.49 8.45a1 1 0 0 1-1.32 1.6c-7.6-6.24-19.58-12.13-28.31-8.17-7.84 3.56-9.21 7.52-11.47 14.08-.32.93-.66 1.91-1 2.94a1 1 0 0 1-.98.68ZM169.72 352.24a1 1 0 0 1-1-.76l-4.35-15.71a1 1 0 0 1 2-.55l4.35 15.71a1 1 0 0 1-.72 1.27.9.9 0 0 1-.28.04ZM131 397.64c-9.47 0-13.74-2.35-14-2.47a1 1 0 0 1-.38-1.42 1 1 0 0 1 1.41-.39c.06 0 6.77 3.65 22.14 1.54 14-1.92 32.58-9.49 36.64-11.19l-2.48-10.14a1 1 0 1 1 2-.49l2.9 11.84-.8.35c-.22.09-22 9.48-38 11.68a69.09 69.09 0 0 1-9.43.69Z" class="colorab97a6 svgShape"></path><path fill="#cf5567" d="M191.85 467.62c-6.34 0-12.67-2.64-18.46-5.66-9.54-5-22.61-24.53-40-59.76a1.26 1.26 0 1 1 2.26-1.11c16.86 34.25 29.94 54 38.87 58.64 13.71 7.15 22.46 7.19 30.23.12 9.6-8.72 20.63-23 29.66-63a1.26 1.26 0 1 1 2.46.56c-9.19 40.6-20.54 55.27-30.43 64.26a21.09 21.09 0 0 1-14.59 5.95Z" class="colorcf7455 svgShape"></path><path fill="#cf5567" d="M192.38 431a1.26 1.26 0 0 1-1.14-.72L182 410.81a1.26 1.26 0 0 1 2.28-1.08l8.18 17.18c3.76-7 15.51-29.21 19.94-39.34.91-2.08 1.84-4.27 2.76-6.52a1.26 1.26 0 1 1 2.33 1c-.93 2.26-1.86 4.47-2.78 6.57-5.33 12.16-21.05 41.42-21.21 41.72a1.26 1.26 0 0 1-1.12.66Z" class="colorcf7455 svgShape"></path><path fill="#5debcb" d="m226.78 360.49-12.44 17.4 25.7 14.92 2.07-21.96-15.33-10.36zM419.91 264.75l-11.19 5.8s1.24 8.7 4.56 12a12.62 12.62 0 0 0 6.63 3.73l7.46-8.7Z" class="color7ea3d6 svgShape"></path><path fill="#97aba6" d="M113.34 504.92a128.85 128.85 0 0 1-19-2.19h-.12c-15.62-5-22.78-13.92-29.89-24.17-7.34-10.58-5.15-38.87-5-40.07a1 1 0 0 1 2.07.17c0 .28-2.24 28.74 4.68 38.72s13.81 18.53 28.77 23.35a126.66 126.66 0 0 0 18.57 2.15 1 1 0 0 1 1 1.06 1 1 0 0 1-1.08.98ZM210.55 749.66a1 1 0 0 1-.21-2c.36-.08 8.88-2 8.15-9.67s-7.35-8.93-7.42-8.94a1 1 0 0 1-.87-1.1 153.76 153.76 0 0 0 0-20.63c-.79-9.13-14.57-27.47-14.71-27.65a1 1 0 0 1 1.65-1.25c.58.77 14.28 19 15.12 28.72a151.77 151.77 0 0 1 .06 20.09c2.19.68 7.52 3.09 8.23 10.57s-6.08 11.1-9.78 11.89Z" class="colorab97a6 svgShape"></path><path fill="#5debcb" d="M330.58 385.91c13.45 2.23 35.86 13.53 44.8 30.3 10.24 19.22 8.3 67.62 8.3 67.62s-37.68 25.34-56.31 22.79-48.27-78.88-47.91-80.8 5.36-32.39 5.36-32.39Z" class="color7ea3d6 svgShape"></path><path fill="#f66c80" d="M405.27 489.78c24.19-3 48.42-5.27 72.76-7.29 6.08-.53 12.18-1 18.28-1.45l18.33-1.33c6.13-.39 12.27-.76 18.5-1.09 3.15-.17 6.24-.33 9.59-.46l2.63-.1 3.23-.09H552.61l1.18.11c1.41.16 2.71.36 3.81.59s2.14.46 3.19.7 2 .5 2.83.77 1.8.53 2.64.8 1.71.55 2.53.83c3.29 1.12 6.39 2.29 9.42 3.49 6 2.4 11.84 4.9 17.54 7.52 11.38 5.23 22.45 10.64 33.39 16.3s21.75 11.43 32.49 17.34 21.35 12 31.89 18.34a7.25 7.25 0 0 1-5.78 13.24c-23.33-6.86-46.62-13.92-69.79-20.62-11.6-3.3-23.15-6.62-34.62-9.54-5.73-1.43-11.42-2.87-16.95-4-2.76-.59-5.49-1.12-8.06-1.53-.65-.1-1.28-.2-1.89-.28s-1.21-.15-1.78-.21-1.09-.09-1.64-.15-1-.05-1.29 0a1.93 1.93 0 0 0-.71.1v.06h.1l.36.05h.15l-.5.16h-.35l-.45.11-1.89.46-8.43 2.17c-5.76 1.46-11.6 3-17.44 4.51L505 533.81c-5.86 1.53-11.73 3.06-17.61 4.53-23.49 6-47.07 11.91-70.67 17.26a33.45 33.45 0 1 1-14.82-65.24 32.61 32.61 0 0 1 3.37-.58Z" class="colorf68e6c svgShape"></path><path d="M506.8 515.89c34.19.89 50.17-14.65 52.39-14.65C565.41 499 605.37 531 632 538.09c29.48 7.86 58.61 13.32 61.72-.44 9.76 10.21-8 25.75-8 25.75l-70.15-17.76-51.06-12.43h-38.62l-27.08 4.44Z" style="mix-blend-mode:multiply" fill="#aee7da" clip-path="url(#h)" opacity=".46" class="coloraec5e7 svgShape"></path><path fill="#5debcb" d="m397 486.55-13.31-2.72s-52.85 12.28-63.5 15.71-15.1 49.17 0 58.05 190.31-18.84 190.31-18.84 10.53-35.13-10.21-58.17c-2.16-2.38-103.29 5.97-103.29 5.97Z" data-name="SVGID" class="color7ea3d6 svgShape"></path><path d="M514.35 494.14c-15.54 22.2-68.82 52.39-103.45 44.84s-44-45-44-45l-15 33.45 32 65.75 59-35.56 75.93-12L529 499.91Z" style="mix-blend-mode:multiply" fill="#aee7da" clip-path="url(#i)" opacity=".61" class="coloraec5e7 svgShape"></path><path fill="#f66c80" d="M350.55 381.39c.51.36 1.08.78 1.53 1.14s.83.67 1.19 1l1 .87.84.79c1.05 1 1.94 1.95 2.73 2.82 1.61 1.75 2.95 3.34 4.27 4.92 2.59 3.15 5 6.16 7.28 9.13 4.63 5.95 9 11.81 13.47 17.49s8.92 11.22 13.47 16.42c2.27 2.59 4.56 5.1 6.86 7.45s4.6 4.56 6.82 6.43c1.1.93 2.18 1.77 3.17 2.48s1.9 1.28 2.54 1.65l.21.12.1.06h.05l.13.06 1.07.49c.7.35 1.44.65 2.16 1 1.46.62 3 1.2 4.48 1.76a127 127 0 0 0 19.59 5.2c6.88 1.3 14.05 2.24 21.38 3.07s14.82 1.71 22.39 2.75a6.89 6.89 0 0 1 0 13.65l-.37.05-11 1.47c-3.69.5-7.41 1.07-11.16 1.5-7.5.91-15.17 1.74-23.08 2.1a154.57 154.57 0 0 1-24.44-.91c-2.09-.27-4.19-.58-6.3-1-1.06-.2-2.11-.38-3.17-.62l-1.59-.34h-.2l-.28-.09-.55-.17-1.1-.36a55.24 55.24 0 0 1-7.43-3.28 80.962 80.962 0 0 1-6.14-3.61c-3.81-2.47-7.21-5-10.47-7.61s-6.3-5.23-9.28-7.88c-6-5.3-11.47-10.76-16.84-16.22s-10.59-10.9-15.62-16.21c-2.51-2.65-5-5.25-7.38-7.62-1.18-1.17-2.35-2.29-3.34-3.19-.51-.46-.94-.82-1.26-1.06l-.19-.14h-.08s.07.08.1.11a4.16 4.16 0 0 0 .41.33 21.63 21.63 0 1 1 24.07-35.95Z" class="colorf68e6c svgShape"></path><path d="M366.88 424.53c4.5 31.87 41.8 54.51 52.45 58.06s51.06-2.22 56.39-4.44 18.09-1.32 20.59 2.89-71.65 18.87-71.65 18.87-34.63-8-35.08-10.21-32-35.52-32-35.52l-9.21-19.08Z" style="mix-blend-mode:multiply" fill="#aee7da" clip-path="url(#j)" opacity=".46" class="coloraec5e7 svgShape"></path><path fill="#5debcb" d="M358.82 432.4c6.07 0 22.94-13.72 20.87-22.75-10.43-16-30.95-35.62-48.94-33.4s3.11 27.53 3.11 27.53Z" data-name="SVGID" class="color7ea3d6 svgShape"></path><path d="M378 419.1c-11.1 2.66-50.17-30.64-50.17-30.64l8 24 21.31 20 8 6.66L375.82 428Z" style="mix-blend-mode:multiply" fill="#aee7da" clip-path="url(#k)" opacity=".61" class="coloraec5e7 svgShape"></path><path fill="#f77f91" d="M316.32 318.31c1.29 2.89 5.46 1.34 6.33 4.2 5.15 17 3.4 32.62.78 35.76-10.19 12.22-35.85 2.83-46.85-16.14s-9.45-40.4 3.45-47.88c11.81-6.84 25.77-5.39 36.5 13.79.99 1.79-1.14 8.17-.21 10.27Z" class="colorf79c7f svgShape"></path><path fill="#29ccad" d="M364.08 431.64a1 1 0 0 1-.58-1.9l.83-.55c5.12-3.43 13.65-9.14 14.64-19.31-.72-.87-1.46-1.8-2.23-2.76-7.85-9.78-18.59-23.18-34.1-28.41a1 1 0 0 1 .66-2c16.08 5.42 27.05 19.09 35.05 29.07l2.49 3.08a1 1 0 0 1 .23.73c-.88 11.43-10.45 17.84-15.59 21.28l-.82.55a1 1 0 0 1-.58.22Z" class="color4b75ba svgShape"></path><path fill="#fd566f" d="M295.12 288.9c-21.75-3.38-35.95 4.71-45.55 22.68-20.87 39.07 20.39 91.64 37.3 113s40.92 32 54.06 18.55c6.56-6.73 21.69 16 25.86 10.06s1.41-20.78-11.17-34.14c-31.16-33.09-47.07-61.39-45.29-88.76 2-31 1.41-41.08-8.59-44.34-3.67-1.25-6.62 2.95-6.62 2.95Z" class="colorfdb956 svgShape"></path><path fill="#f41f3f" d="M303 317.35a1.26 1.26 0 0 1-1.26-1.26c0-16.42-1.86-23.58-3.46-24.72-2.95-2.11-5.15-2.46-20-1.11-6.69.42-13.76 5.28-13.83 5.33a1.28 1.28 0 0 1-1.76-.32 1.26 1.26 0 0 1 .32-1.75c.31-.22 7.71-5.31 15.08-5.77 14.86-1.35 17.9-1.13 21.68 1.56s4.52 16 4.52 26.78a1.25 1.25 0 0 1-1.29 1.26Z" class="colorf4921f svgShape"></path><path d="M284.8 325c7.1 58.17 37.18 71.86 58.16 92.8S362 453.32 362 453.32L259.49 385.8l-5.33-13.8 3.11-37.74Z" style="mix-blend-mode:multiply" fill="#aee7da" opacity=".46" class="coloraec5e7 svgShape"></path><path fill="#c80b27" d="M283.05 317c6.29 23.84 6.8 43.75-14.11 49.26s-38.84-4.26-45.13-28.1-1.21-39.67 12-43.14c20.87-5.54 40.96-1.89 47.24 21.98Z" class="coloref4050 svgShape"></path><path fill="#ffffff" d="M276.33 326.57c5.51 20.91 5.42 38.52-15.49 44s-33.06-1.72-38.57-22.63-13.1-33.91 7.81-39.42 40.74-2.86 46.25 18.05Z" class="colorffffff svgShape"></path><path fill="#c80b27" d="M371.4 474.71c27.64 71.63-37.13 59.95-58.75 59.95S254.9 442 254.9 420.41a39.15 39.15 0 0 1 39.16-39.15c21.62 0 69.55 73.28 77.34 93.45ZM726.89 596.74l-180.21-48.51 6.41.13-141.32 32a14.19 14.19 0 0 1-2.95.33H328a13.32 13.32 0 0 1-.19-26.64h.19l80.81-1.1-3.18.36 140.9-33.91a14.61 14.61 0 0 1 6-.19l1.85.34c1.92.36 3.82.76 5.73 1.15s3.81.81 5.71 1.24l5.69 1.28c1.9.43 3.79.91 5.68 1.36l5.67 1.38q2.83.67 5.65 1.42l11.28 3c3.77 1 7.5 2.07 11.25 3.11l11.22 3.17q11.21 3.24 22.35 6.72c3.73 1.13 7.43 2.33 11.14 3.51l5.56 1.77 5.55 1.82c7.4 2.43 14.8 4.87 22.1 7.65s14.54 5.82 21.67 9.23q5.36 2.55 10.63 5.39l2.63 1.45 2.61 1.53q2.61 1.51 5.17 3.23l2.52 1.68a9 9 0 0 1-7.32 16.14Z" class="coloref4050 svgShape"></path><path fill="#ffffff" d="M355.62 474.71c92.51 161-7.46 117.71-29.08 117.71s-87.41-150.39-87.41-172a39.15 39.15 0 0 1 39.15-39.15c21.62-.01 66.57 74.73 77.34 93.44Z" class="colorffffff svgShape"></path><path fill="#ffffff" d="m334.53 531.48 19.98 52.4H322.3l-23.74-52.4h35.97z" class="colorffffff svgShape"></path><path fill="#ffffff" d="m553.72 548.72-138 30.6c-2.09.58-29.26 1.62-37.78 1.62H313c-5.12 0-12.09 16.3-12.09 21.42 0 23 2.06 25.62 34.46 31.25 28.6 5 86.83 5.76 109.83-1.24 41.7-12.71 103.8-57.63 103.8-57.63s134.54 36 143.86 35.5 19.8-15.43 19.8-15.43Z" class="colorffffff svgShape"></path><path fill="#ffffff" d="m321.51 624.91-5.64-4.76 268.19-55.86s39.74 30.32-13.32 60.38c-2.93 1.66-190.62 125-190.62 125s42.28-150.04-58.61-124.76Z" class="colorffffff svgShape"></path><path fill="#c6ebe3" d="M685.73 557.18s4.9 5.5 15.54 6.22c6.84-15.56 20.83-37.1 21.76-40.85-8.5-6.7-30.23 20.25-30.54 20.87.09 10.29-6.76 13.76-6.76 13.76Z" class="colorebcbc6 svgShape"></path><path fill="#f66c80" d="M520.12 482.15c-2.77-9.55-13.54-17.1-22-20s-22.42 8.43-22.42 8.43l11 11.1s11.06-1.51 14.74.24 4.35 3.32 7.57 3.09 11.11-2.86 11.11-2.86Z" class="colorf68e6c svgShape"></path><path fill="#cf5567" d="M677.37 536.63a1.26 1.26 0 0 1-.67-.19c-25.18-15.77-94.42-48.26-103.69-51.78a81.31 81.31 0 0 0-20.23-5.17l-2-.31c-7.8-1.24-40.37 2-51.43 3.4a1.26 1.26 0 1 1-.32-2.5c8.58-1.1 43.44-4.77 52.15-3.4l2 .32a84 84 0 0 1 20.73 5.3c9.32 3.54 78.85 36.17 104.14 52a1.26 1.26 0 0 1-.67 2.33Z" class="colorcf7455 svgShape"></path><path fill="#29ccad" d="M512.62 528.47a.78.78 0 0 1-.22 0 1 1 0 0 1-.8-1.23c2-9.35-.7-29.4-6.31-37.88a1 1 0 0 1 .3-1.43 1 1 0 0 1 1.43.29c5.86 8.85 8.69 29.73 6.61 39.45a1 1 0 0 1-1.01.8Z" class="color4b75ba svgShape"></path><path fill="#cf5567" d="M511.24 471a1.26 1.26 0 0 1-1.06-.59c-2.57-4.05-11.55-8.6-14.79-7.5-5.66 1.94-14.77 5.76-14.86 5.8l-.3.12h-.31c-1.55-.14-38-3.67-44-5.9-.88-.32-2-.69-3.31-1.11-7.19-2.31-20.56-6.62-30.19-17.41a1.26 1.26 0 0 1 1.88-1.68c9.17 10.28 21.64 14.29 29.08 16.69 1.34.43 2.49.8 3.42 1.15 4.53 1.68 29.95 4.46 43 5.72 1.63-.67 9.57-4 14.73-5.73 4.61-1.58 14.81 3.9 17.74 8.53a1.27 1.27 0 0 1-.39 1.74 1.31 1.31 0 0 1-.64.17Z" class="colorcf7455 svgShape"></path><path fill="#f41f3f" d="M358.38 439.8a1.26 1.26 0 0 1-1.2-.85c-2.76-8-15.82-23.08-22.59-27.26-7.49-4.63-25-23.25-29.09-29.65-4.37-6.78-6.35-32.63-5.53-43a1.27 1.27 0 0 1 1.36-1.16 1.28 1.28 0 0 1 1.16 1.36c-.88 10.91 1.33 35.49 5.13 41.4 3.91 6.08 21.19 24.47 28.29 28.86s20.7 20 23.66 28.59a1.26 1.26 0 0 1-.78 1.6 1.22 1.22 0 0 1-.41.11Z" class="colorf4921f svgShape"></path><path fill="#f41f3f" d="M309.67 360.86a1.25 1.25 0 0 1-1.13-.69c-2.82-5.64-.84-20.41.22-28.35.18-1.3.32-2.37.41-3.14.8-7.27 2.31-29.75-.26-34a1.26 1.26 0 0 1 2.16-1.3c3.62 6 .64 35.33.6 35.62-.08.78-.23 1.87-.41 3.2-.95 7.12-2.94 21.94-.47 26.88a1.25 1.25 0 0 1-1.12 1.82Z" class="colorf4921f svgShape"></path><path fill="#778582" d="M700.64 564.64c-6.11 0-15.13-5.28-15.53-5.52a1.22 1.22 0 1 1 1.24-2.1c.09.06 8.74 5.12 14.14 5.19 4.16-8.57 20.75-38.92 21.47-40.24a1.22 1.22 0 1 1 2.14 1.17c-.18.33-18.23 33.35-21.72 40.78a1.23 1.23 0 0 1-1 .7Z" class="color857782 svgShape"></path><path fill="#cf5567" d="M321.65 361.31a1.26 1.26 0 0 1-.89-2.15c5.84-5.84 2.67-28.25 1.5-33.93-.44-2.13-2.27-3-4.05-3.77a7.71 7.71 0 0 1-2.33-1.37c-1.12-1.11-1-3.52-.65-7.35a20.74 20.74 0 0 0 .12-4.25 1.26 1.26 0 0 1 .73-1.63 1.28 1.28 0 0 1 1.63.74c.37 1 .26 2.69 0 5.35-.14 1.65-.39 4.7-.05 5.39a8 8 0 0 0 1.56.82c1.91.87 4.78 2.17 5.48 5.56.06.28 5.58 28.45-2.19 36.22a1.23 1.23 0 0 1-.86.37Z" class="colorcf7455 svgShape"></path><ellipse cx="318.37" cy="604.39" fill="#ffffff" rx="22.79" ry="24.25" class="colorffffff svgShape"></ellipse><path fill="#ffffff" d="M262 408.88a8.3 8.3 0 0 1-8.13-6.73l-7.44-38.58a8.29 8.29 0 0 1 16.28-3.14l7.4 38.57a8.27 8.27 0 0 1-6.57 9.7 7.77 7.77 0 0 1-1.54.18Z" class="colorffffff svgShape"></path><path fill="#c6ebe3" d="M421.15 635.06a21.76 21.76 0 1 1 21.76-21.76 21.79 21.79 0 0 1-21.76 21.76Zm0-41.44a19.69 19.69 0 1 0 19.69 19.68 19.7 19.7 0 0 0-19.69-19.68ZM689.66 611.3c-17.64 0-88.37-12.85-91.5-13.42a1 1 0 0 1 .37-2c.8.15 80 14.55 93 13.32 12.47-1.2 17.82-15.28 17.87-15.42a1 1 0 1 1 1.94.72c-.23.63-5.91 15.44-19.66 16.73-.56.05-1.24.07-2.02.07ZM531.61 712.36a.84.84 0 0 1-.27 0 1 1 0 0 1-.74-1.26l19.48-73.78a1 1 0 0 1 2 .53l-19.48 73.78a1.05 1.05 0 0 1-.99.73ZM508.81 690h-.08a1 1 0 0 1-1-1.11l5.39-70a1 1 0 1 1 2.06.16l-5.39 70a1 1 0 0 1-.98.95ZM606.21 750.07a1 1 0 0 1-1-1v-10.25a21.51 21.51 0 0 0-21.49-21.49h-27.66a1 1 0 1 1 0-2.07h27.62a23.59 23.59 0 0 1 23.56 23.56V749a1 1 0 0 1-1.03 1.07ZM400.64 717.33a1 1 0 0 1-1-.76L383.89 659a1 1 0 0 1 2-.55L401.64 716a1 1 0 0 1-.73 1.27.84.84 0 0 1-.27.06Z" class="colorebcbc6 svgShape"></path><path fill="#c6ebe3" d="M457.42 717.33h-66.73a1 1 0 1 1 0-2.07h66.73a1 1 0 0 1 0 2.07ZM358.36 749.66a1 1 0 0 1-1-1v-17.45a16 16 0 0 1 15.95-16 1 1 0 1 1 0 2.07 13.9 13.9 0 0 0-13.88 13.88v17.41a1 1 0 0 1-1.07 1.09ZM424.06 643.92c-11.62 0-22.24-4.74-23.87-5.51l-9.94-.24a1 1 0 0 1-1-1.06 1 1 0 0 1 1.06-1l10.16.25a.92.92 0 0 1 .43.11c.31.15 30.71 14.87 45.54-4.92a1 1 0 0 1 .61-.39c18.35-4.08 97.87-36.92 98.67-37.25a1 1 0 1 1 .8 1.92c-3.26 1.34-79.49 32.82-98.65 37.27-6.43 8.32-15.38 10.82-23.81 10.82ZM353.18 522.33a1 1 0 0 1-1-.65l-1.32-3.31c-6.23-15.68-8.56-21.55-36.3-63.65-27.93-42.38-52.52-49.93-61.63-48a1 1 0 0 1-1.23-.8 1 1 0 0 1 .8-1.22c2.23-.48 10.56-1.39 23.94 6.77s26.82 22.34 39.85 42.12c27.86 42.27 30.21 48.2 36.5 64l1.31 3.3a1 1 0 0 1-.57 1.35 1.07 1.07 0 0 1-.35.09ZM373.28 583.88l-46.86-1.25a1 1 0 0 1-1-1.06 1.05 1.05 0 0 1 1.07-1l46.83 1.24a1 1 0 0 1 0 2.08ZM264.7 360.49a1 1 0 0 1-.33-.06 1 1 0 0 1-.66-1.31c2.2-6.6 4.63-31.41-6-38.21s-24.13-5.67-29.08-3.61a1 1 0 1 1-.79-1.91c5.29-2.2 19.81-3.36 31 3.77 11.76 7.52 9.27 33.42 6.87 40.62a1 1 0 0 1-1.01.71Z" class="colorebcbc6 svgShape"></path><path fill="#f66c80" d="M242 365.9h-.09l-.13.09c-.07 0-.26.19-.43.28a8.29 8.29 0 0 0-10.42-12.89c-.37.29-.76.64-1 .89l-.4.41-.34.37c-.23.25-.39.45-.59.69l-.47.62c-.58.79-1 1.47-1.42 2.12-.78 1.3-1.4 2.48-2 3.63-1.15 2.29-2.13 4.47-3.08 6.63-1.88 4.32-3.61 8.54-5.33 12.73-3.45 8.36-6.88 16.58-10.58 24.44-1.85 3.92-3.76 7.75-5.78 11.35a77.3 77.3 0 0 1-6.34 9.78c-.54.68-1.08 1.32-1.6 1.89l-.16-.29c-.81-1.45-1.72-3.21-2.61-5-1.8-3.67-3.57-7.61-5.31-11.59-3.47-8-6.81-16.22-10.08-24.5s-6.48-16.63-9.62-25L159.54 350l-2.29-6.31-2.25-6.31-.11-.29a22.25 22.25 0 0 0-41.69 15.55l.88 2.36.61 1.64.63 1.6 1.24 3.2 2.6 6.34c.85 2.12 1.78 4.2 2.68 6.29l2.74 6.28q2.82 6.24 5.72 12.46c1 2.08 2 4.13 3 6.2s2 4.13 3 6.18l3.1 6.17 3.21 6.15 1.63 3.08 1.68 3.07q1.68 3.07 3.42 6.16c2.36 4.12 4.78 8.22 7.51 12.51 1.4 2.15 2.85 4.33 4.65 6.78l.34.46.37.49.37.48.39.51.85 1.06 1 1.18.28.32.32.35.63.69.17.17.21.22.43.43c.29.28.58.57.87.83l1.23 1 1.32 1.05a37.48 37.48 0 0 0 6.62 4 31.3 31.3 0 0 0 9.21 2.7 30 30 0 0 0 5.28.2 29.36 29.36 0 0 0 5.13-.75 30.07 30.07 0 0 0 8.39-3.43 33.2 33.2 0 0 0 3.15-2.13c.93-.72 1.81-1.45 2.58-2.17a43.29 43.29 0 0 0 4-4.27 55 55 0 0 0 5.41-8 97.76 97.76 0 0 0 6.64-14.69c1.76-4.73 3.15-9.4 4.43-14q1-3.47 1.81-6.88l.85-3.41.77-3.41c1-4.54 2-9 2.85-13.49l2.6-13.08c.41-2.12.86-4.22 1.3-6.13.21-1 .44-1.86.62-2.58a4.47 4.47 0 0 0 .16-.84.29.29 0 0 0 0-.09s-.08-.03-.08 0Z" class="colorf68e6c svgShape"></path><path fill="#5debcb" d="M257.86 350.54c3.57-3.22 4.56-16.58-1.24-22.8-1.94-2.07-7.43-2-8.71-.82-3.73 3.31 1 4-5.8 12.43-3.47 4.27-7.88 8.29-11.61 9.12-.46.1-.41-3.73-.82-7.05-.53-4.19-3.91-4.47-5.23-5-2.07-.84-2.38 2.42-2 3.46 1.8 4.46.25 7-.11 9.67a20.77 20.77 0 0 0 .45 7.89c.51 2 .17 5 1.32 6.71 1.38 2 15.14 12.17 15.89 11.69 9.18-5.92 18.23-11.19 18.65-13.26.66-3.15-3-10.05-.79-12.04Z" class="color7ea3d6 svgShape"></path><path fill="#ffffff" d="M130.55 309.38c-14.11 1.44-26.73 16.15-12.78 85 10.41 8.34 60.1-10.25 60.1-10.25S169.17 346.81 164 331c-3.92-11.83-18-23.19-33.45-21.62Z" class="colorffffff svgShape"></path><path fill="#97aba6" d="M134.15 385.21h-1.69a1 1 0 1 1 .06-2.07c14.85.43 28.28-5 39.06-9.37l3.42-1.38a1 1 0 0 1 .77 1.93c-1.1.43-2.23.89-3.41 1.37-10 4.02-23.56 9.52-38.21 9.52Z" class="colorab97a6 svgShape"></path><g clip-path="url(#g)" fill="#000000" class="color000000 svgShape"><path d="M114.14 324.81c-.1 22.41 6.12 44.43 13.58 53.94s22.87 15.12 22.87 15.12L130 405.32l-38.34 1.38s3.53-52.14 5.39-55.5 8.08-21.8 8.7-22.21 8.39-4.18 8.39-4.18Z" style="mix-blend-mode:multiply" fill="#aee7da" opacity=".61" class="coloraec5e7 svgShape"></path></g><path fill="#97aba6" d="M113.34 328.9a1.13 1.13 0 0 1-.36-.06 1.05 1.05 0 0 1-.62-1.33q.56-1.51 1-2.91c2.28-6.59 3.92-11.36 12.57-15.28 9.61-4.36 22.43 1.83 30.49 8.45a1 1 0 0 1-1.32 1.6c-7.6-6.24-19.58-12.13-28.31-8.17-7.84 3.56-9.21 7.52-11.47 14.08-.32.93-.66 1.91-1 2.94a1 1 0 0 1-.98.68ZM169.72 352.24a1 1 0 0 1-1-.76l-4.35-15.71a1 1 0 0 1 2-.55l4.35 15.71a1 1 0 0 1-.72 1.27.9.9 0 0 1-.28.04ZM131 397.64c-9.47 0-13.74-2.35-14-2.47a1 1 0 0 1-.38-1.42 1 1 0 0 1 1.41-.39c.06 0 6.77 3.65 22.14 1.54 14-1.92 32.58-9.49 36.64-11.19l-2.48-10.14a1 1 0 1 1 2-.49l2.9 11.84-.8.35c-.22.09-22 9.48-38 11.68a69.09 69.09 0 0 1-9.43.69Z" class="colorab97a6 svgShape"></path><path fill="#cf5567" d="M191.85 467.62c-6.34 0-12.67-2.64-18.46-5.66-9.54-5-22.61-24.53-40-59.76a1.26 1.26 0 1 1 2.26-1.11c16.86 34.25 29.94 54 38.87 58.64 13.71 7.15 22.46 7.19 30.23.12 9.6-8.72 20.63-23 29.66-63a1.26 1.26 0 1 1 2.46.56c-9.19 40.6-20.54 55.27-30.43 64.26a21.09 21.09 0 0 1-14.59 5.95Z" class="colorcf7455 svgShape"></path><path fill="#cf5567" d="M192.38 431a1.26 1.26 0 0 1-1.14-.72L182 410.81a1.26 1.26 0 0 1 2.28-1.08l8.18 17.18c3.76-7 15.51-29.21 19.94-39.34.91-2.08 1.84-4.27 2.76-6.52a1.26 1.26 0 1 1 2.33 1c-.93 2.26-1.86 4.47-2.78 6.57-5.33 12.16-21.05 41.42-21.21 41.72a1.26 1.26 0 0 1-1.12.66Z" class="colorcf7455 svgShape"></path><path fill="#5debcb" d="m226.78 360.49-12.44 17.4 25.7 14.92 2.07-21.96-15.33-10.36z" class="color7ea3d6 svgShape"></path><path fill="#97aba6" d="M236.51 750.9H89a1 1 0 1 1 0-2.07h147.51a1 1 0 1 1 0 2.07ZM348 750.9h-95.32a1 1 0 1 1 0-2.07H348a1 1 0 1 1 0 2.07ZM641.43 750.07H442.08a1 1 0 0 1 0-2.07h199.35a1 1 0 1 1 0 2.07ZM412.66 750.07h-32.74a1 1 0 1 1 0-2.07h32.74a1 1 0 0 1 0 2.07Z" class="colorab97a6 svgShape"></path></g></g></svg>