<svg xmlns="http://www.w3.org/2000/svg" viewBox="0 0 800 800" id="FemaleDentistCheckuptopatient"><defs><clipPath id="a"><path fill="#5debcb" d="M567.36 460.65A35.68 35.68 0 0 0 517 458l-54.55 49.08-2.16 1.92a24.9 24.9 0 0 0-7.83 22.35 227.8 227.8 0 0 0 5 22.25l5.76 22.07 11.29 44.19c.95 3.68 1.86 7.37 2.84 11l2.92 11c1.93 7.36 4 14.68 6 22l3.16 11c1.08 3.65 2.13 7.31 3.24 11s2.18 7.29 3.32 10.93l1.68 5.46c.29.91.55 1.82.86 2.72a1.42 1.42 0 0 0 .6.59 4.89 4.89 0 0 0 1.21.45 19.09 19.09 0 0 0 4.93.29h.27a60.24 60.24 0 0 0 22.17-5.3 19 19 0 0 0 4.25-2.48 4.64 4.64 0 0 0 .88-.94 1.48 1.48 0 0 0 .29-.8c-.12-1-.28-1.89-.42-2.83l-.85-5.66-1.7-11.31q-.42-2.84-.89-5.65l-.9-5.64-1.82-11.29-1.94-11.26c-.65-3.75-1.27-7.51-2-11.25l-2.07-11.23-.52-2.8-.54-2.8-1.09-5.61c-.74-3.73-1.44-7.47-2.2-11.19L513.94 587l-1.13-5.59-1.17-5.59-2.33-11.16-4.67-22.33c-.3-1.42-.59-2.85-.92-4.26l50.54-20.53a36.3 36.3 0 0 0 10.44-6.53 35.69 35.69 0 0 0 2.66-50.36Z" class="color7ea3d6 svgShape"></path></clipPath><clipPath id="b"><path fill="#f66c80" d="m538.18 340.06-.11.1-.09.06-.17.13-.31.23-.61.45-1.18.85-2.33 1.65c-1.55 1.09-3.11 2.15-4.67 3.2-3.13 2.1-6.27 4.16-9.49 6.19s-6.48 4-9.88 5.92-6.87 3.83-10.62 5.64a95.25 95.25 0 0 1-12.56 5.12c-1.21.38-2.53.75-3.92 1.09l-1.08.25-1.14.22c-.37.08-.8.15-1.2.21l-1.3.2a33.58 33.58 0 0 1-4.93.39c-1.48 0-2.87-.06-4.16-.18a57.57 57.57 0 0 1-7.1-1.11c-2.19-.48-4.26-1-6.25-1.64a118.17 118.17 0 0 1-11.27-4.11 185.41 185.41 0 0 1-20.23-10.15C417.16 351.09 411 347.14 405 343a304.12 304.12 0 0 1-33.63-27.23 9.36 9.36 0 0 1 11.75-14.52h.05a269 269 0 0 0 34.47 20.49c5.94 2.94 12 5.64 18 8a155.41 155.41 0 0 0 18.15 5.87 83.92 83.92 0 0 0 8.7 1.72c1.38.19 2.71.32 3.95.38a21.06 21.06 0 0 0 3.24-.05 5.64 5.64 0 0 0 1-.2c.25-.07.35-.17.23-.21v-.05a.27.27 0 0 1 .06-.1l.11-.12.17-.14c.25-.2.56-.43.95-.72 1.54-1.12 3.66-2.8 5.77-4.66s4.34-3.95 6.53-6.13 4.37-4.5 6.53-6.87 4.3-4.79 6.38-7.27c1-1.24 2.08-2.49 3.09-3.73l1.5-1.87.72-.92.34-.45.16-.21.07-.1a25.11 25.11 0 1 1 34.79 36.21Z" data-name="SVGID" class="colorf68e6c svgShape"></path></clipPath><clipPath id="c"><path fill="#5debcb" d="M577.58 469.12a38.15 38.15 0 0 0-59.84-29.87l-6.6 4.57a6.41 6.41 0 0 0-1.3.28v.62l-97.74 67.62-3.21 2.22a21.56 21.56 0 0 0-9.14 16c-1.16 14.73-2 29.49-2.83 44.25L395.81 597c-.35 7.38-.64 14.78-1 22.16l-.46 11.09-.4 11.09-.78 22.18-.61 22.2-.31 11.1-.15 5.55c-.15 1.84-.13 3.69 3.42 5.85l.4.24a25.19 25.19 0 0 0 22.54 1.73c3.76-1.53 4.17-3.35 4.42-5.19l1-5.47 2.12-10.99 4.17-21.9 4-21.9 2-11 1.94-11L442 600.9l3.7-21.9q2.07-12.81 4.1-25.63l93.85-42.7c1.18-.35 2.38-.75 3.62-1.19 18.6-6.69 47-11 52.5-37.85-7.42-.52-14.85-1.28-22.19-2.51Z" data-name="SVGID" class="color7ea3d6 svgShape"></path></clipPath><clipPath id="d"><path fill="#f66c80" d="M502 320.93a25.58 25.58 0 0 0-27.43 23.57 2.64 2.64 0 0 1 0 .3l-.06.35-.14.72-.29 1.47-.59 3c-.41 2-.83 4-1.26 5.95-.85 4-1.75 7.94-2.71 11.87-1.91 7.86-3.95 15.66-6.27 23.1-1.16 3.71-2.38 7.33-3.66 10.7-.35.92-.71 1.83-1.07 2.69-2.68-1.93-5.43-4.18-8.16-6.54-2.93-2.55-5.85-5.26-8.73-8.05-5.78-5.58-11.38-11.52-16.86-17.61s-10.8-12.35-15.89-18.76c-2.54-3.21-5-6.45-7.44-9.72s-4.72-6.57-6.83-9.85l-.06-.1a9.36 9.36 0 0 0-16.37 8.98c1.94 4.09 4 8 6.09 11.8s4.3 7.58 6.53 11.29c4.48 7.41 9.13 14.69 14 21.85s10 14.2 15.4 21.16c2.72 3.48 5.53 6.92 8.51 10.35s6.13 6.81 9.7 10.19c1.79 1.69 3.69 3.38 5.87 5.08 1.09.85 2.25 1.7 3.54 2.56a42.46 42.46 0 0 0 4.43 2.56 30.36 30.36 0 0 0 6.45 2.34 23.86 23.86 0 0 0 4.86.63 22.19 22.19 0 0 0 6.5-.76c.59-.15 1.21-.36 1.81-.57s1.23-.49 1.82-.77 1.2-.6 1.78-.94l.85-.54.42-.28.26-.18c.55-.38 1.13-.8 1.63-1.19s.92-.74 1.37-1.13a46.25 46.25 0 0 0 4-4 71.94 71.94 0 0 0 5.38-6.88c1.52-2.17 2.87-4.26 4.15-6.33 2.53-4.13 4.78-8.17 6.92-12.19 4.25-8 8.09-16 11.74-24 1.81-4 3.61-8 5.35-12q1.32-3 2.59-6.05l1.28-3.06.64-1.55.32-.79.16-.41.18-.45 1.23-3.16a25.59 25.59 0 0 0-22-34.64Z" data-name="SVGID" class="colorf68e6c svgShape"></path></clipPath><clipPath id="e"><path fill="#5debcb" d="M462.47 372.66c1.55-7.82 6-30.17 20.66-47s33.36-13.79 43.92-6.35c12.8 9 7.57 37-.14 51.1s-13.83 25.7-13.83 25.7-27.54-7.09-37.59-12.16-13.02-11.29-13.02-11.29Z" data-name="SVGID" class="color7ea3d6 svgShape"></path></clipPath></defs><g style="isolation:isolate" fill="#000000" class="color000000 svgShape"><g data-name="Layer 1" fill="#000000" class="color000000 svgShape"><circle cx="346.8" cy="363.79" r="311.29" fill="#c6ebe3" class="colorebcbc6 svgShape"></circle><path fill="#ffffff" d="M226.48 455.37a5.93 5.93 0 0 1-5.93-5.93V123.91a31.86 31.86 0 0 1 31.82-31.82h84.69l.2-2.62a23.28 23.28 0 0 1 39.13-15.27l19.11 17.89h40.83a17.6 17.6 0 0 1 14.21 28l-1.45 2a23.73 23.73 0 0 1-35.38 3.31L390.82 104h-42.75l-4.59 61.71a5.93 5.93 0 0 1-11.83-.88l4.53-60.83h-83.81a20 20 0 0 0-20 20v325.44a5.92 5.92 0 0 1-5.89 5.93ZM408.17 104l13.64 12.77a11.88 11.88 0 0 0 17.7-1.66l1.45-2a5.73 5.73 0 0 0-4.63-9.12ZM349 92.09h29.2l-9.86-9.24a11.43 11.43 0 0 0-19.21 7.5Z" class="colorffffff svgShape"></path><ellipse cx="351.78" cy="168.76" fill="#ffffff" rx="28" ry="39.52" transform="rotate(-65.42 351.807 168.761)" class="colorffffff svgShape"></ellipse><path fill="#ffffff" d="M440.05 216.16a5.06 5.06 0 0 1-2.53-.68l-21.18-12.18a19.39 19.39 0 0 1-5.09-29.37h-115a7.43 7.43 0 0 0-6.25 11.49l14.88 22.88a5.09 5.09 0 1 1-8.53 5.55L281.47 191a17.62 17.62 0 0 1 14.77-27.22h116.3a9.6 9.6 0 0 1 6.88 16.31 9.22 9.22 0 0 0 2 14.42l21.17 12.18a5.09 5.09 0 0 1-2.54 9.5Z" class="colorffffff svgShape"></path><path fill="#c6ebe3" d="M379.5 174.91a1 1 0 0 1-.94-.67c-2.65-8-24.12-22.49-39.75-22.23-9.16.15-13.4 2.85-15.34 5.08a7.89 7.89 0 0 0-2 6 1 1 0 1 1-2 .24 9.75 9.75 0 0 1 2.53-7.53c2.21-2.54 6.92-5.6 16.81-5.76 16.7-.26 38.78 14.93 41.66 23.57a1 1 0 0 1-.63 1.25.84.84 0 0 1-.34.05Z" class="colorebcbc6 svgShape"></path><path fill="#ffffff" d="M244.67 436h-99.22a15.81 15.81 0 1 1 0-31.62h99.22a15.81 15.81 0 1 1 0 31.62Z" class="colorffffff svgShape"></path><path fill="#ffffff" d="M177.46 456.16h-49.8a15.81 15.81 0 1 1 0-31.62h49.8a15.81 15.81 0 1 1 0 31.62Z" class="colorffffff svgShape"></path><path fill="#c6ebe3" d="M144.65 434a5.54 5.54 0 0 1 5.54 5.54v17h-11.07v-17a5.54 5.54 0 0 1 5.53-5.54Z" class="colorebcbc6 svgShape"></path><path fill="#ffffff" d="M179.11 589a31.69 31.69 0 0 1-16.51-4.9c-11.4-6.92-19-19.61-19-31.56V439.82a2 2 0 1 1 3.95 0V552.5c0 10.46 7.05 22 17.15 28.19 8.54 5.19 17.77 5.7 26 1.43 12.56-6.52-1.46-36.61-12.73-60.79-7-15-13-27.9-13.65-35.92-2.13-26.5-1.57-49.23-1.56-49.46a2 2 0 0 1 2-1.93h.05a2 2 0 0 1 1.93 2c0 .23-.56 22.77 1.55 49 .59 7.31 6.76 20.55 13.3 34.57 12.6 27.05 26.89 57.71 11 66a28.81 28.81 0 0 1-13.48 3.41ZM200.19 408.75h-43.48l-17.99-32.46h79.46l-17.99 32.46z" class="colorffffff svgShape"></path><path fill="#ffffff" d="M177.27 396.67a4 4 0 0 1-4-3.95V354a11.87 11.87 0 0 1 11.86-11.86h2A11.87 11.87 0 0 1 199 354v.79a4 4 0 0 1-7.91 0V354a4 4 0 0 0-3.95-4h-2a4 4 0 0 0-3.95 4v38.74a4 4 0 0 1-3.92 3.93Z" class="colorffffff svgShape"></path><path fill="#c6ebe3" d="M335 106.32h-.08a1 1 0 0 1-.9-1.06l1.18-14.63a1 1 0 0 1 1.07-.9 1 1 0 0 1 .9 1.06L336 105.41a1 1 0 0 1-1 .91Z" class="colorebcbc6 svgShape"></path><path fill="#a9dbd0" d="M145.25 451.22a2 2 0 0 1-2-2v-30.41l-11.9-27.89a2 2 0 0 1 3.64-1.55l12.06 28.26a2.08 2.08 0 0 1 .15.78v30.83a2 2 0 0 1-1.95 1.98Z" class="colordbb1a9 svgShape"></path><path fill="#a9dbd0" d="M145.05 452.6a3.56 3.56 0 0 1-3.56-3.55v-16.61a3.56 3.56 0 0 1 7.12 0v16.61a3.55 3.55 0 0 1-3.56 3.55Z" class="colordbb1a9 svgShape"></path><ellipse cx="165.21" cy="438.18" fill="#c6ebe3" rx="3.95" ry="2.17" class="colorebcbc6 svgShape"></ellipse><ellipse cx="165.21" cy="447.27" fill="#c6ebe3" rx="3.95" ry="2.17" class="colorebcbc6 svgShape"></ellipse><ellipse cx="178.26" cy="438.18" fill="#c6ebe3" rx="3.95" ry="2.17" class="colorebcbc6 svgShape"></ellipse><ellipse cx="178.26" cy="447.27" fill="#c6ebe3" rx="3.95" ry="2.17" class="colorebcbc6 svgShape"></ellipse><path fill="#c6ebe3" d="M389.94 105.53a1 1 0 0 1-.68-.27l-13.44-12.65a1 1 0 0 1 1.36-1.44l13.44 12.65a1 1 0 0 1-.68 1.71ZM357.53 81.41a1 1 0 0 1-.45-.1 1 1 0 0 1-.44-1.33 7.31 7.31 0 0 0-.23-5.63 4.37 4.37 0 0 0-2-2.47 1 1 0 0 1 .62-1.88 6 6 0 0 1 3.17 3.59c.83 2 1.32 5 .17 7.28a1 1 0 0 1-.84.54ZM455.16 104a1 1 0 0 1-.6-.21c-4.56-3.51-11.52.06-11.58.09a1 1 0 1 1-.92-1.75c.33-.17 8.13-4.2 13.71.09a1 1 0 0 1 .18 1.39 1 1 0 0 1-.79.39ZM192.29 404.38H152a1 1 0 0 1 0-2h40.32a1 1 0 0 1 0 2Z" class="colorebcbc6 svgShape"></path><path fill="#ffffff" d="M535.21 381.45H313.45a7.91 7.91 0 1 1 0-15.81h221.76a7.91 7.91 0 1 1 0 15.81Z" class="colorffffff svgShape"></path><path fill="#ffffff" d="M519.8 389.36h-149a15.82 15.82 0 0 1 0-31.63h149a15.82 15.82 0 0 1 0 31.63ZM225.69 420.19h24.9v35.18h-24.9z" class="colorffffff svgShape"></path><path fill="#f66c80" d="m677.52 573.17-11.06 8.3v9.1l9.88 1.97 7.11-15.42-5.93-3.95z" class="colorf68e6c svgShape"></path><path fill="#4c7b72" d="M648.27 581.08s-4.94 1.83 9.09 4.35c-.12-.19 24.91-41.91 14.63-43.49-7.85-2.88-32.33 28.54-32.81 29.25-.19 2.67 5.93-5.92 8.3-3.16s.79 13.05.79 13.05Z" class="color4c4f7b svgShape"></path><path fill="#008f74" d="M668.43 581.47c0-7.9-99.22-59.29-115-69.18S447.85 474 447.85 474l-14.23 1.58 3.95 65.23 230.86 58.11Z" class="color00568f svgShape"></path><path fill="#4c7b72" d="M677.52 589s-4.94 1.84 9.1 4.35c-.12-.19 24.9-41.9 14.62-43.48-7.84-2.88-32.33 28.54-32.81 29.25-.19 2.67 5.93-5.93 8.3-3.16s.79 13.04.79 13.04Z" class="color4c4f7b svgShape"></path><path fill="#f66c80" d="M316 348c-.32.14-.66.31-.93.4l-.43.15-.38.1a6.15 6.15 0 0 1-1.39.27 3.9 3.9 0 0 1-2-.27 2.83 2.83 0 0 1-.7-.46c-.19-.18-.37-.39-.56-.58-.37-.39-.73-.79-1.09-1.19a66.84 66.84 0 0 1-4.1-4.95 70.09 70.09 0 0 1-6.85-10.92 61.52 61.52 0 0 1-4.69-12.3 47 47 0 0 1-1.62-13.37 12.51 12.51 0 0 1 23.34-5.79l.88 1.52c1.42 2.49 2.76 4.89 4.23 7.25s3 4.69 4.68 7 3.42 4.57 5.24 6.8c.45.56.92 1.1 1.4 1.64s.93 1.09 1.4 1.63c.24.27.47.54.72.79s.25.26.36.4a1.31 1.31 0 0 1 .23.52 3.54 3.54 0 0 1-.14 1.64 10.37 10.37 0 0 1-.44 1.21l-.15.34-.19.39a9.14 9.14 0 0 1-.45.87l-1.69 3.2A30.62 30.62 0 0 1 316 348Z" class="colorf68e6c svgShape"></path><path fill="#008f74" d="M271.65 388.43a36.47 36.47 0 0 1 22.25-57c26.45-5.44 76.73 0 92.68 7.34 30 13.83 49.41 50.2 58.9 71.94S504 474 504 474s-177.9 26.83-177.9 25.64c0-.64-36.95-86.88-54.45-111.21Z" class="color00568f svgShape"></path><path fill="#f66c80" d="M332.42 271.55c7.11 22.08.78 48.63-17.39 48.63s-54.55-18.35-54.55-41.54 22.07-39.19 40.24-39.19 24.19 8.78 31.7 32.1Z" class="colorf68e6c svgShape"></path><path fill="#cf5567" d="M333.07 301.81a1.35 1.35 0 0 1-.78-.26 1.33 1.33 0 0 1-.3-1.86c5.1-7.09-2-30-4.22-35.71a9.72 9.72 0 0 0-4.65-5c-.42-.26-.81-.5-1.16-.75-1.27-.92-2-3.36-3.09-7a23.77 23.77 0 0 0-1.17-3.55 1.33 1.33 0 0 1 2.31-1.33 22.62 22.62 0 0 1 1.43 4.15c.5 1.76 1.44 5 2.08 5.56.27.19.6.39 1 .63a12.34 12.34 0 0 1 5.76 6.35c.11.29 10.68 28.78 3.88 38.22a1.34 1.34 0 0 1-1.09.55Z" class="colorcf7455 svgShape"></path><path fill="#5e121d" d="M319 279.86c0 26.19-5.56 36.36-26.09 36.36s-38.34-31.91-38.34-58.11 30.83-39.53 53.36-33.6c14 3.7 7.12 26.88 7.12 26.88-.65 7.07 3.95 20.79 3.95 28.47Z" class="color5e1512 svgShape"></path><path fill="#5e121d" d="M319 279.86c5.54 11.86 7.12 12.25 10.68 13a7.27 7.27 0 0 0 4.72-.89 3.06 3.06 0 0 1 4.24 1.69c1.32 3.57 3 9.08 2.5 13-.79 6.32-8.3 9.48-13.84 9.48s-16.2-10.67-16.2-10.67V289Z" class="color5e1512 svgShape"></path><path fill="#008f74" d="M294.08 333.62c1.19-2.37-2.37-2.77-2-4.35s.61-2.37 1.1-2.37-3.86-3.56-3.07-4 8.69-1.18 22.92-2 17.4-4.35 18.58-3.16-.79 4.34 2 4.74 5.14-.79 5.93 2 2 5.93 0 6.32-39.14 5.2-39.14 5.2Z" class="color00568f svgShape"></path><path fill="#97aba6" d="M550.83 745.92H278.47a1 1 0 0 1 0-2h272.36a1 1 0 0 1 0 2ZM712.9 747.5H581.27a1 1 0 0 1 0-2H712.9a1 1 0 0 1 0 2ZM763.5 745.92h-25.3a1 1 0 0 1 0-2h25.3a1 1 0 0 1 0 2Z" class="colorab97a6 svgShape"></path><path fill="#ffffff" d="M372.35 703.62c-2.77-29.25-1.19-117-7.51-122.15S351 569.22 351 569.22h95.27l83 17.39 51.79 12.26-86 68.78Z" class="colorffffff svgShape"></path><path fill="#ffffff" d="M635.63 613.1a11.86 11.86 0 0 1-2.43-.25L447 574H327.68a11.86 11.86 0 1 1 0-23.72h121.79l188.58 39.39a11.86 11.86 0 0 1-2.42 23.47Z" class="colorffffff svgShape"></path><path fill="#c80b27" d="M313.45 524.94h147.78l2 .61 228.41 68.24a9.25 9.25 0 0 1-4.77 17.86l-.29-.07L454.59 556l4.33.6H313.45a15.82 15.82 0 0 1 0-31.63Z" class="coloref4050 svgShape"></path><path fill="#c6ebe3" d="M630.53 612.05a7.63 7.63 0 0 1-1.65-.16c-5-1.16-100.52-12.13-101.49-12.24a1 1 0 1 1 .23-2c3.94.45 96.57 11.08 101.7 12.27 3.93.91 13.69-3.35 17.13-5.06a1 1 0 0 1 .88 1.77c-.48.28-10.84 5.42-16.8 5.42Z" class="colorebcbc6 svgShape"></path><path fill="#c80b27" d="M468 532.46H308.31l-61.78-124.14a25.33 25.33 0 0 1 .24-23l16.88-32.18a25.31 25.31 0 0 1 22.41-13.55h16.82a27.32 27.32 0 0 1 15 4.5l62.87 41.37a99.64 99.64 0 0 1 34.8 39.54Z" class="coloref4050 svgShape"></path><path fill="#ffffff" d="M453 562.1H313.81a31.6 31.6 0 0 1-28.87-18.75l-53.44-120a25.33 25.33 0 0 1 .25-23l16.88-32.18a25.31 25.31 0 0 1 22.37-13.6h16.82a27.34 27.34 0 0 1 15 4.5l62.86 41.38A99.47 99.47 0 0 1 400.52 440Z" class="colorffffff svgShape"></path><path fill="#c80b27" d="M284.59 320.18s-18.58 2-33.2 0c-20.47-2.77-20.62-21.72-25.3-30.44-9-16.73 5.91-38.35 24.9-38.35h14.63c19 0 53.36 15.4 53.36 34.4a34.39 34.39 0 0 1-34.39 34.39Z" class="coloref4050 svgShape"></path><path fill="#ffffff" d="M287 381.45a7.83 7.83 0 0 1-3.79-1c-13.49-7.38-22.56-18.72-27-33.71-4.32-14.74-3-29.63-1.12-39.53a7.91 7.91 0 0 1 15.54 2.95c-2.35 12.37-5.08 42.62 20.14 56.42a7.91 7.91 0 0 1-3.8 14.84Z" class="colorffffff svgShape"></path><path fill="#ffffff" d="M293.38 292.85a81.74 81.74 0 0 1-5.57-7.79c-5.35-8.21-17.08-13.9-30.69-13.9-18.67 0-33.8 10.71-33.8 23.92a18.82 18.82 0 0 0 4.68 12.11 82 82 0 0 1 5.56 7.78c5.36 8.21 17.08 13.9 30.69 13.9 18.67 0 33.8-10.7 33.8-23.91a18.87 18.87 0 0 0-4.67-12.11Z" class="colorffffff svgShape"></path><path fill="#c6ebe3" d="M312.85 744.73a1 1 0 0 1-1-.89c-1.09-11.35 1.08-20.39 6.45-26.88a27.07 27.07 0 0 1 17-9.38h54.25a1 1 0 0 1 0 2h-54.11a25.53 25.53 0 0 0-15.62 8.7c-5 6.06-7 14.61-6 25.4a1 1 0 0 1-.89 1.08ZM324.71 555.38a1 1 0 0 1-.93-.67l-41.11-122.15a1 1 0 1 1 1.87-.63l41.11 122.15a1 1 0 0 1-.62 1.25.86.86 0 0 1-.32.05ZM363.06 553.8a1 1 0 0 1-.9-.57L327 478.13a1 1 0 1 1 1.79-.84l35.21 75.1a1 1 0 0 1-.47 1.32 1.06 1.06 0 0 1-.47.09ZM384.21 459.13a1 1 0 0 1-.9-.59C377 444.48 359.57 421.76 331.5 404a1 1 0 0 1-.31-1.37 1 1 0 0 1 1.37-.3c28.44 18 46.08 41.05 52.55 55.37a1 1 0 0 1-.49 1.31 1 1 0 0 1-.41.12ZM250.6 379a1 1 0 0 1-.74-.32 1 1 0 0 1 .07-1.4c15.12-13.65 32.34-9.05 48.69-2.05a1 1 0 1 1-.78 1.82c-21.53-9.23-35-8.74-46.58 1.7a1 1 0 0 1-.66.25Z" class="colorebcbc6 svgShape"></path><path fill="#b5c6c2" d="M508.33 726.93a4 4 0 0 1-4-4v-19.52l1.42-1.2c1.79-1.5 44.19-36.7 87.64-38.45a4 4 0 0 1 .32 8c-36.46 1.47-73.73 29.39-81.4 35.44v15.77a4 4 0 0 1-3.98 3.96Z" class="colorb9b5c6 svgShape"></path><circle cx="508.33" cy="733.99" r="12.46" fill="#afbbb8" transform="rotate(-13.28 508.462 734.129)" class="colorbbafb8 svgShape"></circle><path fill="#b5c6c2" d="M586.54 535.13h18.69v132.61h-18.69z" class="colorb9b5c6 svgShape"></path><path fill="#b5c6c2" d="M678.25 726.93a4 4 0 0 1-4-4v-15.76c-7.66-6-44.94-34-81.4-35.44a4 4 0 0 1 .32-8c43.45 1.75 85.85 37 87.63 38.45l1.43 1.2v19.53a4 4 0 0 1-3.98 4.02Z" class="colorb9b5c6 svgShape"></path><path fill="#b5c6c2" d="M620.5 726.93a4 4 0 0 1-4-4v-17.3c-.64-3.26-6.62-31.11-24.13-34a4 4 0 0 1 1.28-7.88c24.12 3.92 30.51 39.28 30.77 40.78l.06.34v18a4 4 0 0 1-3.98 4.06Z" class="colorb9b5c6 svgShape"></path><circle cx="620.5" cy="733.99" r="12.46" fill="#b5c6c2" transform="rotate(-45 620.499 733.99)" class="colorb9b5c6 svgShape"></circle><circle cx="675.62" cy="733.99" r="12.46" fill="#b5c6c2" transform="rotate(-13.28 675.763 734.102)" class="colorb9b5c6 svgShape"></circle><path fill="#97aba6" d="M683.45 744.67a1 1 0 0 1-.57-.19 1 1 0 0 1-.23-1.37l.78-1.09c3.71-5.14 6.38-8.85-2.77-18.4a1 1 0 0 1-.27-.74 168.74 168.74 0 0 0-.07-19c-3.6-3-36.94-30.31-65.61-35.09a1 1 0 1 1 .32-2c30.75 5.13 66.53 35.5 66.89 35.8a1 1 0 0 1 .34.68 170.41 170.41 0 0 1 .13 19.22c9.92 10.51 6.55 15.19 2.64 20.61-.26.35-.51.71-.77 1.07a1 1 0 0 1-.81.5Z" class="colorab97a6 svgShape"></path><path fill="#f67084" d="M506.91 725.19a16.47 16.47 0 0 0 .58-3.89 35.29 35.29 0 0 0-.2-5.34 58.36 58.36 0 0 0-.92-5.79c-.2-1-.42-2-.67-2.92-.11-.49-.25-1-.37-1.44a11.07 11.07 0 0 1-.3-1.27l-.13-.91a9.87 9.87 0 0 1 19.22-4.19c.25.82.36 1.38.5 2s.23 1.28.33 1.91c.2 1.26.38 2.52.52 3.8A75.39 75.39 0 0 1 526 715a52.82 52.82 0 0 1-.46 8.29 31.82 31.82 0 0 1-2.72 9.29 8.74 8.74 0 0 1-16.23-6.34Z" class="colorf69070 svgShape"></path><path fill="#778582" d="M528 721.41s6.72 11.07 3.14 23.72c-.18-.2-59.87-.28-65.85-.2-.28-9.66 39.57-20.48 40.62-20.73 15.45 3.8 22.09-2.79 22.09-2.79Z" class="color857782 svgShape"></path><path fill="#f67084" d="M393.31 723.94a17.07 17.07 0 0 0 1.14-3.76 35.07 35.07 0 0 0 .58-5.32A57.65 57.65 0 0 0 395 709c0-1-.13-2-.23-3-.05-.5-.12-1-.17-1.47s-.11-1-.11-1.31v-.91a9.87 9.87 0 0 1 19.6-1.31c.12.85.15 1.41.19 2.09s0 1.3.05 1.94v3.83a71.59 71.59 0 0 1-.6 7.77 51.73 51.73 0 0 1-1.66 8.13 31.8 31.8 0 0 1-4 8.8 8.73 8.73 0 0 1-15.13-8.63Z" class="colorf69070 svgShape"></path><path fill="#778582" d="M413.75 721.41s6.72 11.07 3.14 23.72c-.17-.2-59.86-.28-65.84-.2-.28-9.66 39.57-20.48 40.62-20.73 15.45 3.8 22.08-2.79 22.08-2.79Z" class="color857782 svgShape"></path><path fill="#5debcb" d="M567.36 460.65A35.68 35.68 0 0 0 517 458l-54.55 49.08-2.16 1.92a24.9 24.9 0 0 0-7.83 22.35 227.8 227.8 0 0 0 5 22.25l5.76 22.07 11.29 44.19c.95 3.68 1.86 7.37 2.84 11l2.92 11c1.93 7.36 4 14.68 6 22l3.16 11c1.08 3.65 2.13 7.31 3.24 11s2.18 7.29 3.32 10.93l1.68 5.46c.29.91.55 1.82.86 2.72a1.42 1.42 0 0 0 .6.59 4.89 4.89 0 0 0 1.21.45 19.09 19.09 0 0 0 4.93.29h.27a60.24 60.24 0 0 0 22.17-5.3 19 19 0 0 0 4.25-2.48 4.64 4.64 0 0 0 .88-.94 1.48 1.48 0 0 0 .29-.8c-.12-1-.28-1.89-.42-2.83l-.85-5.66-1.7-11.31q-.42-2.84-.89-5.65l-.9-5.64-1.82-11.29-1.94-11.26c-.65-3.75-1.27-7.51-2-11.25l-2.07-11.23-.52-2.8-.54-2.8-1.09-5.61c-.74-3.73-1.44-7.47-2.2-11.19L513.94 587l-1.13-5.59-1.17-5.59-2.33-11.16-4.67-22.33c-.3-1.42-.59-2.85-.92-4.26l50.54-20.53a36.3 36.3 0 0 0 10.44-6.53 35.69 35.69 0 0 0 2.66-50.36Z" data-name="SVGID" class="color7ea3d6 svgShape"></path><g clip-path="url(#a)" fill="#000000" class="color000000 svgShape"><path d="M476.91 663.1c19.76 16.21 25.3 24.12 38.74 11.07s6.72-81 6.72-81l35.18 102.39-22.93 17-52.57 2.76ZM465.44 605.78c-2.37-30 24.12-72.34 50.21-34.39 3.55-35.57 28.06-39.13 28.06-39.13l.4-44.91-76.29 6.56-19 41.11Z" style="mix-blend-mode:multiply" fill="#aee7da" opacity=".61" class="coloraec5e7 svgShape"></path></g><path fill="#f66c80" d="m538.18 340.06-.11.1-.09.06-.17.13-.31.23-.61.45-1.18.85-2.33 1.65c-1.55 1.09-3.11 2.15-4.67 3.2-3.13 2.1-6.27 4.16-9.49 6.19s-6.48 4-9.88 5.92-6.87 3.83-10.62 5.64a95.25 95.25 0 0 1-12.56 5.12c-1.21.38-2.53.75-3.92 1.09l-1.08.25-1.14.22c-.37.08-.8.15-1.2.21l-1.3.2a33.58 33.58 0 0 1-4.93.39c-1.48 0-2.87-.06-4.16-.18a57.57 57.57 0 0 1-7.1-1.11c-2.19-.48-4.26-1-6.25-1.64a118.17 118.17 0 0 1-11.27-4.11 185.41 185.41 0 0 1-20.23-10.15C417.16 351.09 411 347.14 405 343a304.12 304.12 0 0 1-33.63-27.23 9.36 9.36 0 0 1 11.75-14.52h.05a269 269 0 0 0 34.47 20.49c5.94 2.94 12 5.64 18 8a155.41 155.41 0 0 0 18.15 5.87 83.92 83.92 0 0 0 8.7 1.72c1.38.19 2.71.32 3.95.38a21.06 21.06 0 0 0 3.24-.05 5.64 5.64 0 0 0 1-.2c.25-.07.35-.17.23-.21v-.05a.27.27 0 0 1 .06-.1l.11-.12.17-.14c.25-.2.56-.43.95-.72 1.54-1.12 3.66-2.8 5.77-4.66s4.34-3.95 6.53-6.13 4.37-4.5 6.53-6.87 4.3-4.79 6.38-7.27c1-1.24 2.08-2.49 3.09-3.73l1.5-1.87.72-.92.34-.45.16-.21.07-.1a25.11 25.11 0 1 1 34.79 36.21Z" data-name="SVGID" class="colorf68e6c svgShape"></path><path d="M476.31 345.48c-15 13.44-67.2 1.58-67.2 1.58s37.16 32.81 37.95 32.41 19.37-5.53 19.37-5.53Z" style="mix-blend-mode:multiply" fill="#aee7da" clip-path="url(#b)" opacity=".61" class="coloraec5e7 svgShape"></path><path fill="#f66c80" d="M487.65 301.18a9.54 9.54 0 0 1-2.34-.2 5.71 5.71 0 0 1-1.62-.64 4.37 4.37 0 0 1-1.14-1 8.69 8.69 0 0 1-.78-1.22c-1-1.67-1.95-3.33-2.85-5.05-1.85-3.4-3.54-6.93-5.12-10.58a91.74 91.74 0 0 1-4.12-11.7 59.18 59.18 0 0 1-1.46-6.81l-.13-.93-.11-1-.09-1-.07-1.09a29.45 29.45 0 0 1 .19-5.08 10.69 10.69 0 1 1 21.38 0h.3s.08 0 .11.05a1.58 1.58 0 0 1 .45.32l.22.23c.08.09.19.2.27.3l.55.67 2.6 3.25c1.89 2.37 4 4.9 6.07 7.46l6.43 7.79 3.24 3.94a6.88 6.88 0 0 1 .78 1 3.57 3.57 0 0 1 .42 1.24 4.94 4.94 0 0 1 0 1.57 5.48 5.48 0 0 1-.75 2l-4.16 6.3a22.31 22.31 0 0 1-18.27 10.18Z" class="colorf68e6c svgShape"></path><path fill="#f77f91" d="M426.51 251.79c10.07 19.17 34 43.22 47 36.37s20.74-35.76 10.66-54.93-28.81-29.16-41.85-22.3-25.89 21.69-15.81 40.86Z" class="colorf79c7f svgShape"></path><path fill="#cf5567" d="M468.11 290.6c-9 0-27-15-32.5-22.93-5.32-7.58-8.37-12-8.4-12.08a1.24 1.24 0 1 1 2-1.4s3.08 4.49 8.39 12.06c5.68 8.09 23.36 22.23 30.71 21.86 6.92-.32 9.95-5.19 13.15-10.35.32-.51.63-1 .95-1.52a1.24 1.24 0 1 1 2.1 1.33c-.32.49-.63 1-.94 1.5-3.4 5.48-6.92 11.14-15.14 11.52Z" class="colorcf7455 svgShape"></path><path fill="#fd566f" d="M425.57 220.9c8.18-15.34 20.78-23.37 37-25.73 8.43-1.23 22-1.49 35.85 13.53 12.22 13.26 29.26 26.51 26.69 40.14-.67 3.52-9.1 25.71-33 27.06-6.45.37-20.16-28.46-25.3-33.6-6.72-6.72-6.33-10.72-12.26-5.14-6 5.33-25.33 20.5-27.67 17.79-8-9.3-5.32-26.53-1.31-34.05Z" class="colorfdb956 svgShape"></path><path fill="#b5c6c2" d="M647.43 414.85h18.69v84.6h-18.69z" class="colorb9b5c6 svgShape"></path><rect width="160.21" height="56.89" x="516.64" y="487.35" fill="#c80b27" rx="25.67" transform="rotate(-180 596.74 515.79)" class="coloref4050 svgShape"></rect><path fill="#97aba6" d="M665.86 482.65a1 1 0 0 1-1-1V435.8a1 1 0 0 1 2 0v45.86a1 1 0 0 1-1 .99Z" class="colorab97a6 svgShape"></path><path fill="#5debcb" d="M577.58 469.12a38.15 38.15 0 0 0-59.84-29.87l-6.6 4.57a6.41 6.41 0 0 0-1.3.28v.62l-97.74 67.62-3.21 2.22a21.56 21.56 0 0 0-9.14 16c-1.16 14.73-2 29.49-2.83 44.25L395.81 597c-.35 7.38-.64 14.78-1 22.16l-.46 11.09-.4 11.09-.78 22.18-.61 22.2-.31 11.1-.15 5.55c-.15 1.84-.13 3.69 3.42 5.85l.4.24a25.19 25.19 0 0 0 22.54 1.73c3.76-1.53 4.17-3.35 4.42-5.19l1-5.47 2.12-10.99 4.17-21.9 4-21.9 2-11 1.94-11L442 600.9l3.7-21.9q2.07-12.81 4.1-25.63l93.85-42.7c1.18-.35 2.38-.75 3.62-1.19 18.6-6.69 47-11 52.5-37.85-7.42-.52-14.85-1.28-22.19-2.51Z" data-name="SVGID" class="color7ea3d6 svgShape"></path><g clip-path="url(#c)" fill="#000000" class="color000000 svgShape"><path d="M445.28 605.78c-6.72 44.67-26.48 80.65-39.53 80.25s-19.37-16.21-19.37-16.21l-11.86 45.46 60.09 13.44s23.72-27.27 24.51-33.2-13.84-89.74-13.84-89.74ZM537.58 448.83c22.14 22.75 3 43.45-5.39 54.05s-70.9 46.78-70.9 46.78l145.47-50.41 6.33-50.6Z" style="mix-blend-mode:multiply" fill="#aee7da" opacity=".61" class="coloraec5e7 svgShape"></path></g><path fill="#aee7da" d="M585.81 413.47c-4.2-9.74-6.32-44.28-28.06-90.13-11.14-23.49-30.86-39.63-48.72-43a17.62 17.62 0 0 1-5 6.24 115.75 115.75 0 0 1-22.78 12.93c-2.87 8.47-5.14 20.27-6.48 36.48-1.3 15.76 3.34 19.22 20.16 63.64 7.31 19.29 14.89 32.07 14.95 44.47 2.75-.91 5.82.11 8.38 1.39.79.39 1.58 1.58 2.37 2.37 3.56 2 7.51 2 11.07 4.35 20.86 13.59 44.51 17.83 68.11 19.39.29-1.4.51-2.85.67-4.37 1.84-18.13-10.48-44.02-14.67-53.76Z" class="coloraec5e7 svgShape"></path><path fill="#29ccad" d="M582.25 400.13a1.28 1.28 0 0 1-1.24-.95c-5.08-18.95-19.4-69.76-24.53-77.29-4.47-6.55-16.34-24-26.51-30.47a1.29 1.29 0 0 1 1.39-2.18c9.41 6 19.51 19.84 27.26 31.2 6.42 9.42 24.7 77.38 24.88 78.07a1.28 1.28 0 0 1-.91 1.58 1.27 1.27 0 0 1-.34.04Z" class="color4b75ba svgShape"></path><path d="M596.74 441.36c-18-11.68-31.09-21.17-31.09-21.17l20.16-5.93 9.39 22.34Z" style="mix-blend-mode:multiply" fill="#aee7da" opacity=".61" class="coloraec5e7 svgShape"></path><path fill="#ffffff" d="M463.66 269.58c.84-.52 3.75-.64 4 .39.79 4-1.58 8.7-3.56 9.89-2.84 1.7-8.3-1.93-8.3-4-.04-1.14 5.43-4.77 7.86-6.28Z" class="colorffffff svgShape"></path><path fill="#5debcb" d="M390 305.59c-5.15-3.86-10.3-20.59-17.16-20.59-5.28 0-15.8 4.2-20.39 6.14a5.58 5.58 0 0 0-3.14 3.52c-.83 2.77-1.63 7.07.6 9 3.44 3 11.59 5.15 11.59 5.15s1.63 6.5 3.35 7.79 12.25 3.56 12.25 3.56Z" class="color7ea3d6 svgShape"></path><path fill="#5debcb" d="M365.63 302.78c-12-6-13.11-6-13.44-4.74-1.72 6.44 7.9 13 10.67 15.42 3.79 3.24 2.77-10.68 2.77-10.68Z" class="color7ea3d6 svgShape"></path><path fill="#f41f3f" d="M438.22 251.08a1.21 1.21 0 0 1-.66-.19c-2.46-1.59-8.71-16.11-7.5-24.57a1.2 1.2 0 1 1 2.38.34c-1.1 7.69 4.94 21 6.44 22.22a1.2 1.2 0 0 1 .35 1.66 1.21 1.21 0 0 1-1.01.54Z" class="colorf4921f svgShape"></path><path fill="#f41f3f" d="m427.24 258.12-.58-1a60.19 60.19 0 0 1-5.82-13.9c-1.55-5.85 1.43-23.64 9.41-31.66 4.13-4.15 7.2-6 9.37-5.73a2.39 2.39 0 0 1 1.77 1.06 1.22 1.22 0 0 1-.45 1.64 1.2 1.2 0 0 1-1.54-.3c-.22 0-2.12-.32-7.44 5-7.43 7.45-10 24.64-8.79 29.34a58.66 58.66 0 0 0 5 12.3c4.12-2.15 19.43-10.32 22.68-14.55a71.4 71.4 0 0 1 7.5-8.41 1.2 1.2 0 1 1 1.62 1.78 69.6 69.6 0 0 0-7.21 8.1c-4.07 5.29-23.69 15.33-24.52 15.75ZM502.4 221.37a1.21 1.21 0 0 1-.94-.46c-5.42-6.87-32-30.95-47.12-23a1.2 1.2 0 0 1-1.12-2.13c16.68-8.76 44.22 16.16 50.13 23.64a1.21 1.21 0 0 1-.2 1.69 1.22 1.22 0 0 1-.75.26Z" class="colorf4921f svgShape"></path><path fill="#f41f3f" d="M491.32 278.08a4 4 0 0 1-1.71-.31c-2.16-1.08-7.36-9-15.05-21.54l-.44-.71c-3.72-6.05-13.74-19.3-14.53-20.33-4.84-4.91-11.37-19.45-11.65-20.07a1.2 1.2 0 1 1 2.2-1c.06.15 6.68 14.87 11.21 19.41l.11.12c.44.58 10.79 14.22 14.71 20.59l.44.71c3 4.86 12.09 19.65 14.08 20.65 1.53.76 12.35-2.49 23-10.25 5.39-3.93 12.39-17.65 12.81-21.54-1.34-2-8.21-12.08-9.6-13.82a1.2 1.2 0 1 1 1.88-1.5c1.59 2 9.6 13.8 9.94 14.3l.21.31v.37c0 4.43-7.74 19.39-13.82 23.82-8.32 6.08-18.98 10.79-23.79 10.79Z" class="colorf4921f svgShape"></path><path fill="#f41f3f" d="M482.24 253a1.19 1.19 0 0 1-1.07-.66c-2.83-5.66-9.67-14.7-16.29-23.44-7.84-10.35-15.24-20.12-17-25.34a1.2 1.2 0 0 1 2.28-.76c1.61 4.84 9.24 14.91 16.61 24.65 6.69 8.83 13.6 18 16.53 23.81a1.2 1.2 0 0 1-.54 1.62 1.25 1.25 0 0 1-.52.12Z" class="colorf4921f svgShape"></path><path fill="#5debcb" d="m405.55 313.46-15.41-7.91-13.05 14.63 17 15.81s7.12-8.3 8.7-12.26a68.72 68.72 0 0 0 2.76-10.27Z" class="color7ea3d6 svgShape"></path><path fill="#5debcb" d="M349.42 278.68h1.98v32.39h-1.98z" transform="rotate(-70.02 350.387 294.88)" class="color7ea3d6 svgShape"></path><path fill="#f66c80" d="M510.71 281c1 6.13-14.43 18.78-22.34 24.71s-11.84 12.34-11.26 10.72 2.17-13.89 5.13-19.82S503 280.84 503 280.84Z" class="colorf68e6c svgShape"></path><path fill="#29ccad" d="M395.08 612.21H395a1.3 1.3 0 0 1-1.2-1.38c0-.61 4.34-61.75 3.95-74.58-.35-11.53 5.07-20.31 16.11-26.09C422 505.9 509.13 444.66 510 444a1.21 1.21 0 0 1 .55-.22c.28 0 7.1-1 17.68 6.34a1.29 1.29 0 1 1-1.47 2.12c-8.59-5.95-14.29-6-15.56-5.93-6.39 4.49-88 61.84-96.16 66.1-10.09 5.28-15 13.26-14.73 23.72.4 13-3.78 72.32-3.95 74.84a1.3 1.3 0 0 1-1.28 1.24Z" class="color4b75ba svgShape"></path><path fill="#29ccad" d="m449 554.19-9.3-.09a1.29 1.29 0 0 1 0-2.58l6.55.06-4.78-5.86a1.29 1.29 0 0 1 2-1.63l6.52 8a1.29 1.29 0 0 1-1 2.1ZM409.3 713.84a19.42 19.42 0 0 1-5-.67c-11.4-3-13.72-7.52-13.95-8a1.35 1.35 0 0 1-.12-.57l1-36.86a1.29 1.29 0 0 1 1.29-1.26 1.29 1.29 0 0 1 1.26 1.33l-1 36.49c.57.82 3.29 4.05 12.15 6.41 9.2 2.45 15.7-3.75 17-5.08l13.37-78.69a1.29 1.29 0 0 1 2.55.44l-13.44 79.06a1.32 1.32 0 0 1-.29.62c-.26.29-5.89 6.78-14.82 6.78Z" class="color4b75ba svgShape"></path><path fill="#29ccad" d="M444.89 580.59a1.21 1.21 0 0 1-.58-.14 1.29 1.29 0 0 1-.62-1.63c.38-1.33 2.81-16.74 4.27-26.2a1.29 1.29 0 0 1 .76-1L550.42 507l.13-.05c.31-.1 31-9.9 37.15-16.68 6.62-7.3 13.8-27.88 9.54-42.25a1.29 1.29 0 1 1 2.48-.74c4.57 15.44-2.93 36.8-10.11 44.72-6.52 7.2-36.19 16.75-38.21 17.39l-101 44.31c-2.57 16.73-4 25.53-4.36 26.17a1.28 1.28 0 0 1-1.15.72Zm-1.16-1.87v.09Z" class="color4b75ba svgShape"></path><path fill="#29ccad" d="M597.28 475.24h-.19c-1.91-.29-46.87-7-54.17-12.71a1.29 1.29 0 1 1 1.59-2c5.61 4.37 40.14 10.28 53 12.19a1.29 1.29 0 0 1-.19 2.57ZM502.34 707.29a30.88 30.88 0 0 1-3.86-.21 1.3 1.3 0 0 1-1.12-1.28c-.18-2.23-10.24-37.89-16.95-61.32a1.29 1.29 0 0 1 2.48-.71c2.65 9.24 15.11 52.81 16.85 60.85 6.22.52 20.82-.77 31.1-8.09l-17.65-104a1.29 1.29 0 1 1 2.54-.43l17.79 104.75a1.29 1.29 0 0 1-.5 1.25c-9.56 7.2-23.02 9.19-30.68 9.19ZM499 307a1.29 1.29 0 0 1-.52-2.47c7-3.1 20.51-14.21 20-20.66a1.29 1.29 0 1 1 2.57-.21c.7 8.57-15 20.31-21.51 23.23a1.4 1.4 0 0 1-.54.11ZM474.54 329.18h-.11a1.29 1.29 0 0 1-1.18-1.39c.05-.61 1.39-15 14.44-23.13 12.27-7.67 20.5-19.74 22-24.21a1.28 1.28 0 0 1 1.63-.82 1.3 1.3 0 0 1 .82 1.63c-1.64 4.92-10.09 17.48-23.08 25.59-12 7.48-13.22 21-13.23 21.15a1.29 1.29 0 0 1-1.29 1.18ZM360.29 312.57a1.26 1.26 0 0 1-.8-.28l-4.36-3.49c-2.88-2.32-4.43-8.53-4.43-10.56a2.05 2.05 0 0 1 .94-1.83c1.56-1 4.22.15 10.37 3.15a1.29 1.29 0 0 1-1.13 2.32c-2.19-1.07-6.08-3-7.57-3.21.2 2 1.62 6.65 3.44 8.12l4.35 3.49a1.29 1.29 0 0 1-.81 2.29ZM399.44 330.5a1.27 1.27 0 0 1-.72-.22 1.29 1.29 0 0 1-.34-1.8c1.26-1.86 5.56-11.5 6.06-14.41-1.43-.66-2.93-1.33-4.4-2-5.76-2.56-10.74-4.76-12.38-7-.52-.69-1.33-2.05-2.46-3.94-2.69-4.46-8.28-13.76-11.12-14.79-3.15-1.15-9.06 1.1-11.07 2.07a1.29 1.29 0 1 1-1.12-2.33c.34-.16 8.27-3.92 13.07-2.17 3.42 1.24 7.84 8.23 12.45 15.9 1 1.68 1.88 3.13 2.32 3.71 1.24 1.66 6.61 4.05 11.36 6.15 1.74.77 3.53 1.56 5.21 2.35a1.25 1.25 0 0 1 .72 1c.5 3-5.48 15.37-6.51 16.89a1.31 1.31 0 0 1-1.07.59Z" class="color4b75ba svgShape"></path><path d="M533.78 333.94c7 14.7-3.7 62.14-9.63 72s-14.63 0-14.63 0l-7.26 11.64-6.18-13.22 18.18-55.74Z" style="mix-blend-mode:multiply" fill="#aee7da" opacity=".61" class="coloraec5e7 svgShape"></path><path fill="#f66c80" d="M502 320.93a25.58 25.58 0 0 0-27.43 23.57 2.64 2.64 0 0 1 0 .3l-.06.35-.14.72-.29 1.47-.59 3c-.41 2-.83 4-1.26 5.95-.85 4-1.75 7.94-2.71 11.87-1.91 7.86-3.95 15.66-6.27 23.1-1.16 3.71-2.38 7.33-3.66 10.7-.35.92-.71 1.83-1.07 2.69-2.68-1.93-5.43-4.18-8.16-6.54-2.93-2.55-5.85-5.26-8.73-8.05-5.78-5.58-11.38-11.52-16.86-17.61s-10.8-12.35-15.89-18.76c-2.54-3.21-5-6.45-7.44-9.72s-4.72-6.57-6.83-9.85l-.06-.1a9.36 9.36 0 0 0-16.37 8.98c1.94 4.09 4 8 6.09 11.8s4.3 7.58 6.53 11.29c4.48 7.41 9.13 14.69 14 21.85s10 14.2 15.4 21.16c2.72 3.48 5.53 6.92 8.51 10.35s6.13 6.81 9.7 10.19c1.79 1.69 3.69 3.38 5.87 5.08 1.09.85 2.25 1.7 3.54 2.56a42.46 42.46 0 0 0 4.43 2.56 30.36 30.36 0 0 0 6.45 2.34 23.86 23.86 0 0 0 4.86.63 22.19 22.19 0 0 0 6.5-.76c.59-.15 1.21-.36 1.81-.57s1.23-.49 1.82-.77 1.2-.6 1.78-.94l.85-.54.42-.28.26-.18c.55-.38 1.13-.8 1.63-1.19s.92-.74 1.37-1.13a46.25 46.25 0 0 0 4-4 71.94 71.94 0 0 0 5.38-6.88c1.52-2.17 2.87-4.26 4.15-6.33 2.53-4.13 4.78-8.17 6.92-12.19 4.25-8 8.09-16 11.74-24 1.81-4 3.61-8 5.35-12q1.32-3 2.59-6.05l1.28-3.06.64-1.55.32-.79.16-.41.18-.45 1.23-3.16a25.59 25.59 0 0 0-22-34.64Z" data-name="SVGID" class="colorf68e6c svgShape"></path><path d="M489.36 385.93c3.16 12.12-6.72 46.12-18.18 48.09s-54.16-27.67-68-48.22c-2.37 7.9 28.46 56.92 28.46 56.92L461.29 457l41.11-23 9.89-43.48Z" style="mix-blend-mode:multiply" fill="#aee7da" clip-path="url(#d)" opacity=".61" class="coloraec5e7 svgShape"></path><path fill="#5debcb" d="M462.47 372.66c1.55-7.82 6-30.17 20.66-47s33.36-13.79 43.92-6.35c12.8 9 7.57 37-.14 51.1s-13.83 25.7-13.83 25.7-27.54-7.09-37.59-12.16-13.02-11.29-13.02-11.29Z" data-name="SVGID" class="color7ea3d6 svgShape"></path><path d="M531.66 329.27c-1.58 10.28-18.89 42.4-26.25 46.5s-16.84 10-22 9.63 30 10.68 30 10.68 10.94-21.11 12.19-23.41 17.46-32.73 17.46-33.12-11.4-10.28-11.4-10.28Z" style="mix-blend-mode:multiply" fill="#aee7da" clip-path="url(#e)" opacity=".61" class="coloraec5e7 svgShape"></path><path fill="#5debcb" d="M391.92 332.63c-4.35-6.33-6.53-9.74-13.64-17.2-8.1-8.5-24-4.24-24.91-1.18-3.95 13.44 12.46 26.68 18 26.29s7.91 3.16 7.91 3.16Z" class="color7ea3d6 svgShape"></path><path fill="#5debcb" d="m377.09 341.13 6.72 18.18s15.42-3.16 18.58-6.32 3.16-4.75 3.16-4.75l-12.64-17-15.82 5.93Z" class="color7ea3d6 svgShape"></path><path fill="#29ccad" d="M513.27 397.56a1.1 1.1 0 0 1-.35-.05l-16.65-4.8c-16.68-4.81-34-17.78-34.76-18.33a1.3 1.3 0 0 1-.46-1.43c.39-1.21 9.61-29.91 16.53-42s25.18-23 35.08-18.2a1.29 1.29 0 0 1-1.14 2.32c-7.81-3.82-25 5.49-31.7 17.17-6.12 10.64-14.39 35.57-16 40.58 3.5 2.53 18.86 13.24 33.19 17.37l15.62 4.51 5.31-10.41c-6.14-1.67-28.6-8-39.7-14.62a1.29 1.29 0 1 1 1.32-2.22c12.35 7.33 40.3 14.69 40.58 14.76a1.28 1.28 0 0 1 .83 1.83l-6.53 12.78a1.28 1.28 0 0 1-1.17.74ZM534.25 348.4a1 1 0 0 1-.25 0 1.28 1.28 0 0 1-1-1.51c1.87-9.78-3-22.26-5.2-25.36a1.29 1.29 0 1 1 2.1-1.53c2.42 3.45 7.66 16.65 5.61 27.33a1.29 1.29 0 0 1-1.26 1.07ZM364.42 339a1.27 1.27 0 0 1-.89-.35 84.59 84.59 0 0 1-9.72-11.1c-3.79-5.58-2.06-14-.49-15.21 1.21-1 16.5-4.9 21.92-1.29a1.29 1.29 0 1 1-1.43 2.15c-3.84-2.56-16.75.21-18.84 1.16-.63 1.14-1.94 7.46 1 11.74a83.21 83.21 0 0 0 9.37 10.68 1.27 1.27 0 0 1 0 1.82 1.26 1.26 0 0 1-.92.4ZM384.4 360.8a1.29 1.29 0 0 1-.09-2.58 41.71 41.71 0 0 0 11.05-2.85 19.39 19.39 0 0 0 8.44-7.26l-8.4-11.35c-.14-.2-12-17.21-13.58-19.14a1.29 1.29 0 1 1 2-1.61c1.59 2 13.17 18.54 13.66 19.24l8.9 12a1.28 1.28 0 0 1 .1 1.38 22 22 0 0 1-10.17 9.1 43.49 43.49 0 0 1-11.81 3Z" class="color4b75ba svgShape"></path><path fill="#c80b27" d="M579.69 395.68h82.21a17.2 17.2 0 0 1 17.2 17.2v2.93a9.91 9.91 0 0 1-9.91 9.91H572.4a9.91 9.91 0 0 1-9.91-9.91v-2.93a17.2 17.2 0 0 1 17.2-17.2Z" class="coloref4050 svgShape"></path></g></g></svg>